<svg xmlns="http://www.w3.org/2000/svg" xmlns:xlink="http://www.w3.org/1999/xlink" width="154.475" height="106.125" viewBox="0 0 154.475 106.125">
  <defs>
    <linearGradient id="linear-gradient" x1="0.859" y1="0.092" x2="0.168" y2="0.816" gradientUnits="objectBoundingBox">
      <stop offset="0" stop-color="#d9e862" stop-opacity="0.094"/>
      <stop offset="1" stop-color="#3c6" stop-opacity="0.106"/>
    </linearGradient>
  </defs>
  <g id="EmptyState" transform="translate(0 1.768)">
    <g id="Ellipse_1" data-name="Ellipse 1" transform="translate(57.15 93.357)" fill="#fff" stroke="#3c6" stroke-width="1">
      <ellipse cx="19" cy="5.5" rx="19" ry="5.5" stroke="none"/>
      <ellipse cx="19" cy="5.5" rx="18.5" ry="5" fill="none"/>
    </g>
    <path id="Background" d="M42.55,61.435a6.152,6.152,0,1,1,0-12.287H6.475a6.152,6.152,0,1,1,0-12.286h37a6.316,6.316,0,0,0,6.475-6.144,6.316,6.316,0,0,0-6.475-6.144H20.35a6.315,6.315,0,0,1-6.474-6.144,6.315,6.315,0,0,1,6.474-6.143h37a6.316,6.316,0,0,1-6.475-6.144A6.316,6.316,0,0,1,57.35,0H148a6.316,6.316,0,0,1,6.475,6.144A6.317,6.317,0,0,1,148,12.287H111a6.315,6.315,0,0,1,6.475,6.143A6.316,6.316,0,0,1,111,24.574h20.35a6.316,6.316,0,0,1,6.475,6.144,6.317,6.317,0,0,1-6.475,6.144h-9.411c-4.509,0-8.163,2.75-8.163,6.143s5.549,6.144,5.549,6.144a6.152,6.152,0,1,1,0,12.287Zm98.975-30.717a6.484,6.484,0,0,1,12.95,0,6.484,6.484,0,0,1-12.95,0Z" transform="translate(0 18.786)" fill="url(#linear-gradient)"/>
    <path id="cloud" d="M11.032,32.473h-.877A9.9,9.9,0,0,1,0,22.851,9.9,9.9,0,0,1,10.156,13.23h.108a15.251,15.251,0,0,1,30.347,1.221c4.968.3,9.339,4.891,9.339,9.675,0,3.927-3.065,8.347-6.7,8.347H18" transform="translate(12.805 10.887)" fill="#fff" stroke="rgba(51,204,102,0.38)" stroke-linecap="round" stroke-miterlimit="10" stroke-width="2.5"/>
    <g id="Shape" transform="translate(39.775 3.866)" fill="#fff" stroke-miterlimit="10">
      <path d="M 37.00336074829102 92.270751953125 C 35.68662643432617 92.270751953125 34.46060180664062 91.71994018554688 33.63964080810547 90.75952911376953 C 22.84338760375977 78.12932586669922 14.63891983032227 67.00910186767578 9.254159927368164 57.70772552490234 C 3.942986726760864 48.533447265625 1.25 40.9289665222168 1.25 35.10548400878906 C 1.25 30.54277801513672 2.191826581954956 26.1165657043457 4.049333095550537 21.94980621337891 C 5.845786571502686 17.92000579833984 8.418959617614746 14.29953861236572 11.69741344451904 11.18895244598389 C 14.98049354553223 8.073978424072266 18.80458641052246 5.627965450286865 23.06348037719727 3.918845415115356 C 27.47633361816406 2.14792537689209 32.16525268554688 1.25000536441803 37 1.25000536441803 C 41.83474731445312 1.25000536441803 46.52366638183594 2.14792537689209 50.93651962280273 3.918845415115356 C 55.19541168212891 5.627965450286865 59.01950836181641 8.073978424072266 62.30258560180664 11.18895244598389 C 65.58103942871094 14.29953861236572 68.15421295166016 17.92000579833984 69.95066833496094 21.94980621337891 C 71.80817413330078 26.1165657043457 72.75 30.54277801513672 72.75 35.10548400878906 C 72.75 40.9289665222168 70.05701446533203 48.533447265625 64.74584197998047 57.70772552490234 C 59.36108016967773 67.00910186767578 51.15661239624023 78.12932586669922 40.36035919189453 90.75952911376953 C 40.17445373535156 90.97700500488281 39.9636116027832 91.17699432373047 39.73368072509766 91.35392761230469 C 38.96534729003906 91.94515228271484 37.99570846557617 92.270751953125 37.00336074829102 92.270751953125 Z" stroke="none"/>
      <path d="M 37.00336456298828 91.020751953125 C 37.73189163208008 91.020751953125 38.41239929199219 90.79341125488281 38.97132873535156 90.36329650878906 C 39.1328010559082 90.23904418945312 39.28043746948242 90.09912109375 39.41018295288086 89.94731903076172 C 50.15712738037109 77.37480926513672 58.31731033325195 66.317138671875 63.66403579711914 57.08144378662109 C 68.86360168457031 48.09997177124023 71.5 40.70619201660156 71.5 35.1054801940918 C 71.5 30.71928215026855 70.59459686279297 26.46431732177734 68.8089599609375 22.45875358581543 C 67.07963562011719 18.57950019836426 64.60111236572266 15.09288215637207 61.44223785400391 12.09575462341309 C 58.27408981323242 9.089827537536621 54.58283615112305 6.729027271270752 50.47098159790039 5.078917980194092 C 46.20681762695312 3.367681741714478 41.67452621459961 2.500009059906006 37 2.500009059906006 C 32.32547378540039 2.500009059906006 27.79318237304688 3.367681741714478 23.52901840209961 5.078917980194092 C 19.41718101501465 6.729027271270752 15.72590923309326 9.089827537536621 12.55778217315674 12.09575462341309 C 9.398890495300293 15.09288215637207 6.920363426208496 18.57950019836426 5.191036224365234 22.45875358581543 C 3.405400037765503 26.46431732177734 2.5 30.71928215026855 2.5 35.1054801940918 C 2.5 40.70619201660156 5.13640022277832 48.09997177124023 10.33596324920654 57.08144378662109 C 15.68269062042236 66.317138671875 23.84287261962891 77.37480926513672 34.58981704711914 89.94731903076172 C 35.17294692993164 90.62950134277344 36.05263519287109 91.020751953125 37.00336456298828 91.020751953125 M 37.00336837768555 93.52075958251953 C 35.38787078857422 93.52075958251953 33.78636932373047 92.85494232177734 32.68947219848633 91.57171630859375 C 10.89649105072021 66.07682800292969 0 47.25475311279297 0 35.1054801940918 C 0 15.71726322174072 16.56547355651855 9.028209206007887e-06 37 9.028209206007887e-06 C 57.43454360961914 9.028209206007887e-06 74 15.71726322174072 74 35.1054801940918 C 74 47.25475311279297 63.10350799560547 66.07682800292969 41.31052780151367 91.57171630859375 C 41.06800079345703 91.85546112060547 40.79501724243164 92.11446380615234 40.49596405029297 92.34458923339844 C 39.46780395507812 93.13576507568359 38.23148345947266 93.52075958251953 37.00336837768555 93.52075958251953 Z" stroke="none" fill="#3c6"/>
    </g>
    <g id="Oval" transform="translate(58.275 21.419)" fill="rgba(51,204,102,0.06)" stroke-miterlimit="10">
      <path d="M 18.5 33.8554801940918 C 15.14931964874268 33.8554801940918 11.90081977844238 32.94686126708984 9.105669975280762 31.22783279418945 C 7.523910045623779 30.25505256652832 6.127930164337158 29.05128288269043 4.956500053405762 27.64995193481445 C 3.778280019760132 26.24051284790039 2.861299991607666 24.67131233215332 2.230999946594238 22.98592185974121 C 1.580060005187988 21.24532127380371 1.25 19.41733169555664 1.25 17.55274200439453 C 1.25 13.21059226989746 3.035959959030151 9.124752044677734 6.278890132904053 6.047872066497803 C 9.539810180664062 2.953922033309937 13.88002014160156 1.250002026557922 18.5 1.250002026557922 C 23.11997985839844 1.250002026557922 27.46018981933594 2.953922033309937 30.72110939025879 6.047872066497803 C 33.96403884887695 9.124752044677734 35.75 13.21059226989746 35.75 17.55274200439453 C 35.75 21.8948917388916 33.96403884887695 25.98073196411133 30.72110939025879 29.0576114654541 C 27.46018981933594 32.15156173706055 23.11997985839844 33.8554801940918 18.5 33.8554801940918 Z" stroke="none"/>
      <path d="M 18.5 32.60548782348633 C 22.79843330383301 32.60548782348633 26.83308982849121 31.02345275878906 29.86074447631836 28.15081977844238 C 32.85240936279297 25.31233024597168 34.5 21.54853057861328 34.5 17.55274200439453 C 34.5 13.55695343017578 32.85240936279297 9.793152809143066 29.86074447631836 6.95466423034668 C 26.83308982849121 4.082030773162842 22.79843330383301 2.499997615814209 18.5 2.499997615814209 C 14.20156669616699 2.499997615814209 10.16691112518311 4.082030773162842 7.139255523681641 6.95466423034668 C 4.147588729858398 9.793152809143066 2.5 13.55695343017578 2.5 17.55274200439453 C 2.5 20.9609317779541 3.681066751480103 24.17526435852051 5.915533542633057 26.84823036193848 C 7.000266551971436 28.14585304260254 8.293899536132812 29.2611198425293 9.760488510131836 30.1630744934082 C 12.35858917236328 31.76091957092285 15.38066673278809 32.60548782348633 18.5 32.60548782348633 M 18.5 35.10548782348633 C 14.79500007629395 35.10548782348633 11.3443775177002 34.07212066650391 8.450833320617676 32.29258728027344 C 6.754611015319824 31.24940872192383 5.24982213973999 29.94980812072754 3.99744439125061 28.45165252685547 C 1.494699954986572 25.45774269104004 0 21.67085266113281 0 17.55274200439453 C 0 7.858630657196045 8.282732963562012 -2.440049911456299e-06 18.5 -2.440049911456299e-06 C 28.71726608276367 -2.440049911456299e-06 37 7.858630657196045 37 17.55274200439453 C 37 27.24685287475586 28.71726608276367 35.10548782348633 18.5 35.10548782348633 Z" stroke="none" fill="#3c6"/>
    </g>
    <path id="Star" d="M7.742,8.671a8.124,8.124,0,0,0-6.39.168l-1.6.721.721-1.6a8.124,8.124,0,0,0,.168-6.39L0,0,1.567.638A8.124,8.124,0,0,0,7.957.47l1.6-.721-.721,1.6a8.124,8.124,0,0,0-.168,6.39l.638,1.567Z" transform="translate(117.013 0.355) rotate(45)" fill="none" stroke="rgba(51,204,102,0.38)" stroke-linejoin="round" stroke-miterlimit="10" stroke-width="2.5"/>
    <path id="cloud-2" data-name="cloud" d="M8.039,23.7H7.4A7.218,7.218,0,0,1,0,16.675,7.218,7.218,0,0,1,7.4,9.654h.079a11.112,11.112,0,0,1,22.113.891,7.488,7.488,0,0,1,6.8,7.06c0,2.866-2.234,6.091-4.88,6.091h-18.4" transform="translate(89.725 56.524)" fill="#fff" stroke="rgba(51,204,102,0.38)" stroke-linecap="round" stroke-miterlimit="10" stroke-width="2.5"/>
  </g>
</svg>
