<svg xmlns="http://www.w3.org/2000/svg" xmlns:xlink="http://www.w3.org/1999/xlink" width="154.475" height="92.014" viewBox="0 0 154.475 92.014">
  <defs>
    <linearGradient id="linear-gradient" x1="0.859" y1="0.092" x2="0.168" y2="0.816" gradientUnits="objectBoundingBox">
      <stop offset="0" stop-color="#d9e862" stop-opacity="0.094"/>
      <stop offset="1" stop-color="#3c6" stop-opacity="0.106"/>
    </linearGradient>
    <linearGradient id="linear-gradient-2" x1="0.859" y1="0.092" x2="0.168" y2="0.816" gradientUnits="objectBoundingBox">
      <stop offset="0" stop-color="#d9e862"/>
      <stop offset="1" stop-color="#3c6"/>
    </linearGradient>
  </defs>
  <g id="EmptyState" transform="translate(0 1.768)">
    <path id="Background" d="M42.55,61.435a6.152,6.152,0,1,1,0-12.287H6.475a6.152,6.152,0,1,1,0-12.286h37a6.316,6.316,0,0,0,6.475-6.144,6.316,6.316,0,0,0-6.475-6.144H20.35a6.315,6.315,0,0,1-6.474-6.144,6.315,6.315,0,0,1,6.474-6.143h37a6.316,6.316,0,0,1-6.475-6.144A6.316,6.316,0,0,1,57.35,0H148a6.316,6.316,0,0,1,6.475,6.144A6.317,6.317,0,0,1,148,12.287H111a6.315,6.315,0,0,1,6.475,6.143A6.316,6.316,0,0,1,111,24.574h20.35a6.316,6.316,0,0,1,6.475,6.144,6.317,6.317,0,0,1-6.475,6.144h-9.411c-4.509,0-8.163,2.75-8.163,6.143s5.549,6.144,5.549,6.144a6.152,6.152,0,1,1,0,12.287Zm98.975-30.717a6.484,6.484,0,0,1,12.95,0,6.484,6.484,0,0,1-12.95,0Z" transform="translate(0 18.786)" fill="url(#linear-gradient)"/>
    <path id="cloud" d="M11.032,32.473h-.877A9.9,9.9,0,0,1,0,22.851,9.9,9.9,0,0,1,10.156,13.23h.108a15.251,15.251,0,0,1,30.347,1.221c4.968.3,9.339,4.891,9.339,9.675,0,3.927-3.065,8.347-6.7,8.347H18" transform="translate(12.805 10.887)" fill="#fff" stroke="rgba(51,204,102,0.38)" stroke-linecap="round" stroke-miterlimit="10" stroke-width="2.5"/>
    <path id="Star" d="M7.742,8.671a8.124,8.124,0,0,0-6.39.168l-1.6.721.721-1.6a8.124,8.124,0,0,0,.168-6.39L0,0,1.567.638A8.124,8.124,0,0,0,7.957.47l1.6-.721-.721,1.6a8.124,8.124,0,0,0-.168,6.39l.638,1.567Z" transform="translate(117.013 0.355) rotate(45)" fill="none" stroke="rgba(51,204,102,0.38)" stroke-linejoin="round" stroke-miterlimit="10" stroke-width="2.5"/>
    <g id="spot" transform="translate(36.075 10.009)">
      <path id="Path" d="M41.334,0Q-.286.281,0,39.772T41.916,78.985q41.628-.277,41.332-39.765T41.334,0Z" transform="translate(0 0)" fill="url(#linear-gradient-2)"/>
      <path id="Path-2" data-name="Path" d="M35.15,65.823Q0,65.823,0,32.915T35.15,0Q70.3,0,70.3,32.915T35.15,65.823Z" transform="translate(6.475 7.021)" fill="#fff"/>
      <path id="Path-3" data-name="Path" d="M27.1,0Q-.184.185,0,26.069t27.479,25.71Q54.764,51.6,54.574,25.712T27.1,0Z" transform="translate(14.8 14.042)" fill="url(#linear-gradient-2)"/>
      <path id="Path-4" data-name="Path" d="M19.888,38.616Q-.006,38.616,0,19.311T19.888,0Q39.773,0,39.775,19.311T19.888,38.616Z" transform="translate(22.2 20.186)" fill="#fff"/>
      <path id="Path-5" data-name="Path" d="M13.322,0Q-.093.09,0,12.813T13.508,25.451q13.407-.089,13.316-12.811T13.322,0Z" transform="translate(28.675 27.207)" fill="url(#linear-gradient-2)"/>
    </g>
    <path id="cloud-2" data-name="cloud" d="M8.039,23.7H7.4A7.218,7.218,0,0,1,0,16.675,7.218,7.218,0,0,1,7.4,9.654h.079a11.112,11.112,0,0,1,22.113.891,7.488,7.488,0,0,1,6.8,7.06c0,2.866-2.234,6.091-4.88,6.091h-18.4" transform="translate(101.127 65.3)" fill="#fff" stroke="rgba(51,204,102,0.38)" stroke-linecap="round" stroke-miterlimit="10" stroke-width="2.5"/>
  </g>
</svg>
