<?xml version="1.0" encoding="UTF-8"?>
<svg width="1037px" height="673px" viewBox="0 0 1037 673" version="1.1" xmlns="http://www.w3.org/2000/svg" xmlns:xlink="http://www.w3.org/1999/xlink">
    <!-- Generator: Sketch 54.1 (76490) - https://sketchapp.com -->
    <title>vector 1-HD</title>
    <desc>Created with Sketch.</desc>
    <defs>
        <linearGradient x1="49.9952002%" y1="88.2044793%" x2="49.9952002%" y2="22.4444444%" id="linearGradient-1">
            <stop stop-color="#7FEAED" stop-opacity="0.8" offset="0%"></stop>
            <stop stop-color="#C3F6FE" stop-opacity="0.58" offset="54.6234131%"></stop>
            <stop stop-color="#C3F6FE" stop-opacity="0" offset="100%"></stop>
        </linearGradient>
        <linearGradient x1="50%" y1="20.8491199%" x2="50%" y2="100%" id="linearGradient-2">
            <stop stop-color="#E2F3E1" offset="0%"></stop>
            <stop stop-color="#FFF5BD" offset="100%"></stop>
        </linearGradient>
        <linearGradient x1="60.1393484%" y1="14.9812813%" x2="31.3031605%" y2="92.8399916%" id="linearGradient-3">
            <stop stop-color="#D4E8FB" offset="0.0897381757%"></stop>
            <stop stop-color="#56C4FF" offset="100%"></stop>
        </linearGradient>
        <linearGradient x1="50%" y1="0%" x2="50%" y2="100%" id="linearGradient-4">
            <stop stop-color="#F5515F" stop-opacity="0.5" offset="0%"></stop>
            <stop stop-color="#FF9CAB" offset="100%"></stop>
        </linearGradient>
        <linearGradient x1="127.517969%" y1="-30.1052433%" x2="26.8812386%" y2="52.0282862%" id="linearGradient-5">
            <stop stop-color="#FFFFFF" offset="0%"></stop>
            <stop stop-color="#FCFFEB" stop-opacity="0.44" offset="100%"></stop>
        </linearGradient>
        <linearGradient x1="49.9952002%" y1="88.2044793%" x2="49.9952002%" y2="22.4444444%" id="linearGradient-6">
            <stop stop-color="#7FEAED" stop-opacity="0.401796568" offset="0%"></stop>
            <stop stop-color="#C3F6FE" stop-opacity="0.58" offset="74.3692759%"></stop>
            <stop stop-color="#9AEFFF" stop-opacity="0.4438197" offset="100%"></stop>
        </linearGradient>
        <linearGradient x1="49.9952002%" y1="22.4444444%" x2="49.9952002%" y2="88.2044793%" id="linearGradient-7">
            <stop stop-color="#7FEAED" stop-opacity="0.401796568" offset="0%"></stop>
            <stop stop-color="#C3F6FE" stop-opacity="0.58" offset="74.3692759%"></stop>
            <stop stop-color="#9AEFFF" stop-opacity="0.4438197" offset="100%"></stop>
        </linearGradient>
        <linearGradient x1="-1.11022302e-14%" y1="50%" x2="100%" y2="50%" id="linearGradient-8">
            <stop stop-color="#FF67A0" offset="0%"></stop>
            <stop stop-color="#FE895E" offset="100%"></stop>
        </linearGradient>
        <linearGradient x1="-1.11022302e-14%" y1="50%" x2="100%" y2="50%" id="linearGradient-9">
            <stop stop-color="#FF67A0" offset="0%"></stop>
            <stop stop-color="#FE895E" offset="100%"></stop>
        </linearGradient>
        <linearGradient x1="49.9952002%" y1="88.2044793%" x2="49.9952002%" y2="22.4444444%" id="linearGradient-10">
            <stop stop-color="#CEE7FF" offset="0%"></stop>
            <stop stop-color="#DCF7F7" offset="100%"></stop>
        </linearGradient>
        <radialGradient cx="59.717605%" cy="192.534688%" fx="59.717605%" fy="192.534688%" r="245.032287%" gradientTransform="translate(0.597176,1.925347),scale(0.632851,1.000000),rotate(30.416316),translate(-0.597176,-1.925347)" id="radialGradient-11">
            <stop stop-color="#3023AE" offset="0%"></stop>
            <stop stop-color="#C86DD7" offset="100%"></stop>
        </radialGradient>
        <radialGradient cx="59.717605%" cy="192.534688%" fx="59.717605%" fy="192.534688%" r="182.81188%" gradientTransform="translate(0.597176,1.925347),scale(0.995894,1.000000),rotate(42.733762),translate(-0.597176,-1.925347)" id="radialGradient-12">
            <stop stop-color="#3023AE" offset="0%"></stop>
            <stop stop-color="#C86DD7" offset="100%"></stop>
        </radialGradient>
        <linearGradient x1="50.2716898%" y1="0%" x2="49.737742%" y2="92.8399916%" id="linearGradient-13">
            <stop stop-color="#FCFFEB" offset="0%"></stop>
            <stop stop-color="#F4E185" stop-opacity="0.61" offset="100%"></stop>
        </linearGradient>
        <linearGradient x1="48.9139515%" y1="63.4306775%" x2="50%" y2="38.6552351%" id="linearGradient-14">
            <stop stop-color="#FFFFFF" offset="17%"></stop>
            <stop stop-color="#E8E8E8" offset="46%"></stop>
            <stop stop-color="#CCCCCC" offset="86%"></stop>
        </linearGradient>
        <linearGradient x1="50.020982%" y1="36.5074737%" x2="49.6852707%" y2="61.8440799%" id="linearGradient-15">
            <stop stop-color="#826ABC" offset="0%"></stop>
            <stop stop-color="#9177C9" offset="26%"></stop>
            <stop stop-color="#B799EC" offset="76%"></stop>
            <stop stop-color="#CCACFF" offset="100%"></stop>
        </linearGradient>
        <linearGradient x1="50.0415628%" y1="36.4624566%" x2="49.6674979%" y2="62.2611798%" id="linearGradient-16">
            <stop stop-color="#826ABC" offset="0%"></stop>
            <stop stop-color="#9177C9" offset="26%"></stop>
            <stop stop-color="#B799EC" offset="76%"></stop>
            <stop stop-color="#CCACFF" offset="100%"></stop>
        </linearGradient>
        <linearGradient x1="48.820556%" y1="65.6157503%" x2="49.873631%" y2="40.5946295%" id="linearGradient-17">
            <stop stop-color="#FFFFFF" offset="17%"></stop>
            <stop stop-color="#E8E8E8" offset="46%"></stop>
            <stop stop-color="#CCCCCC" offset="86%"></stop>
        </linearGradient>
        <linearGradient x1="54.6809018%" y1="14.9812813%" x2="41.368472%" y2="92.8399916%" id="linearGradient-18">
            <stop stop-color="#D4E8FB" offset="0.0897381757%"></stop>
            <stop stop-color="#56C4FF" offset="100%"></stop>
        </linearGradient>
        <linearGradient x1="50%" y1="0%" x2="50%" y2="100%" id="linearGradient-19">
            <stop stop-color="#FDFDFD" offset="0%"></stop>
            <stop stop-color="#CEE7FF" offset="100%"></stop>
        </linearGradient>
        <linearGradient x1="50%" y1="0%" x2="50%" y2="100%" id="linearGradient-20">
            <stop stop-color="#FFF2BF" offset="0%"></stop>
            <stop stop-color="#E7DCA1" stop-opacity="0.8" offset="100%"></stop>
        </linearGradient>
        <linearGradient x1="89.724538%" y1="34.5576102%" x2="11.6545232%" y2="63.231037%" id="linearGradient-21">
            <stop stop-color="#DA5C45" offset="0%"></stop>
            <stop stop-color="#D5D5D5" offset="100%"></stop>
        </linearGradient>
        <linearGradient x1="50.5765555%" y1="14.7712975%" x2="48.9463952%" y2="92.7699342%" id="linearGradient-22">
            <stop stop-color="#EAEAEA" stop-opacity="0.510995718" offset="0%"></stop>
            <stop stop-color="#45D7DA" stop-opacity="0.419260305" offset="99.9102618%"></stop>
        </linearGradient>
        <linearGradient x1="50.5765555%" y1="14.7712975%" x2="48.944931%" y2="92.8399916%" id="linearGradient-23">
            <stop stop-color="#EAEAEA" stop-opacity="0.510995718" offset="0%"></stop>
            <stop stop-color="#45D7DA" stop-opacity="0.419260305" offset="99.9102618%"></stop>
        </linearGradient>
        <linearGradient x1="50%" y1="0%" x2="50%" y2="100%" id="linearGradient-24">
            <stop stop-color="#FFF9DD" offset="0%"></stop>
            <stop stop-color="#FFF0B8" offset="100%"></stop>
        </linearGradient>
        <linearGradient x1="50%" y1="0%" x2="50%" y2="100%" id="linearGradient-25">
            <stop stop-color="#D3F6EF" offset="0%"></stop>
            <stop stop-color="#A8E9DB" offset="100%"></stop>
        </linearGradient>
        <linearGradient x1="50%" y1="0%" x2="50%" y2="100%" id="linearGradient-26">
            <stop stop-color="#D3F6EF" offset="0%"></stop>
            <stop stop-color="#A8E9DB" offset="100%"></stop>
        </linearGradient>
        <linearGradient x1="50%" y1="0%" x2="50%" y2="100%" id="linearGradient-27">
            <stop stop-color="#D3F6EF" offset="0%"></stop>
            <stop stop-color="#A8E9DB" offset="100%"></stop>
        </linearGradient>
        <linearGradient x1="50%" y1="0%" x2="50%" y2="100%" id="linearGradient-28">
            <stop stop-color="#D3F6EF" offset="0%"></stop>
            <stop stop-color="#A8E9DB" offset="100%"></stop>
        </linearGradient>
        <linearGradient x1="50%" y1="0%" x2="50%" y2="100%" id="linearGradient-29">
            <stop stop-color="#D3F6EF" offset="0%"></stop>
            <stop stop-color="#A8E9DB" offset="100%"></stop>
        </linearGradient>
        <linearGradient x1="50%" y1="0%" x2="50%" y2="100%" id="linearGradient-30">
            <stop stop-color="#D3F6EF" offset="0%"></stop>
            <stop stop-color="#A8E9DB" offset="100%"></stop>
        </linearGradient>
        <linearGradient x1="4.75130995%" y1="69.4676851%" x2="100%" y2="50%" id="linearGradient-31">
            <stop stop-color="#A1901A" offset="0%"></stop>
            <stop stop-color="#A54040" offset="100%"></stop>
        </linearGradient>
        <linearGradient x1="50%" y1="0%" x2="50%" y2="100%" id="linearGradient-32">
            <stop stop-color="#A8E9DB" stop-opacity="0.8" offset="0%"></stop>
            <stop stop-color="#D4F6EF" stop-opacity="0.8" offset="100%"></stop>
        </linearGradient>
        <linearGradient x1="50%" y1="0%" x2="50%" y2="100%" id="linearGradient-33">
            <stop stop-color="#F5515F" offset="0%"></stop>
            <stop stop-color="#9F041B" offset="100%"></stop>
        </linearGradient>
        <linearGradient x1="50%" y1="39.6741807%" x2="88.3354268%" y2="60.3258193%" id="linearGradient-34">
            <stop stop-color="#F5515F" offset="0%"></stop>
            <stop stop-color="#9F041B" offset="100%"></stop>
        </linearGradient>
        <linearGradient x1="0.698602794%" y1="30.0606372%" x2="101.76314%" y2="55.6530983%" id="linearGradient-35">
            <stop stop-color="#CDACFF" offset="16%"></stop>
            <stop stop-color="#C2A3F3" offset="45%"></stop>
            <stop stop-color="#AF94DE" offset="82%"></stop>
        </linearGradient>
        <linearGradient x1="50%" y1="0%" x2="50%" y2="100%" id="linearGradient-36">
            <stop stop-color="#ADC126" offset="0%"></stop>
            <stop stop-color="#7283DD" offset="100%"></stop>
        </linearGradient>
        <linearGradient x1="50%" y1="0%" x2="50%" y2="99.7358167%" id="linearGradient-37">
            <stop stop-color="#98AC6B" offset="0%"></stop>
            <stop stop-color="#7485D8" offset="100%"></stop>
        </linearGradient>
        <linearGradient x1="50%" y1="0%" x2="50%" y2="100%" id="linearGradient-38">
            <stop stop-color="#F5D651" offset="0%"></stop>
            <stop stop-color="#FF9600" offset="100%"></stop>
        </linearGradient>
        <linearGradient x1="50%" y1="0%" x2="50%" y2="100%" id="linearGradient-39">
            <stop stop-color="#F5D651" offset="0%"></stop>
            <stop stop-color="#FF9600" offset="100%"></stop>
        </linearGradient>
        <linearGradient x1="50%" y1="0%" x2="50%" y2="100%" id="linearGradient-40">
            <stop stop-color="#F5D651" offset="0%"></stop>
            <stop stop-color="#FF9600" offset="100%"></stop>
        </linearGradient>
        <linearGradient x1="71.0076222%" y1="15.0024889%" x2="11.6545232%" y2="92.4743084%" id="linearGradient-41">
            <stop stop-color="#BBDA45" offset="0.0897381757%"></stop>
            <stop stop-color="#33CC66" offset="100%"></stop>
        </linearGradient>
        <linearGradient x1="69.0520973%" y1="9.18896635%" x2="32.3393829%" y2="81.5795139%" id="linearGradient-42">
            <stop stop-color="#D9E862" offset="0%"></stop>
            <stop stop-color="#33CC66" offset="100%"></stop>
        </linearGradient>
        <path d="M51.6931478,61.13 C54.8745592,62.239381 57.6837666,62.9459969 61.72,64.2089343 C60.169398,84.1591519 41.6423821,76.2363165 51.6931478,61.13 Z M68.6698251,43.685272 C68.4608806,37.7844694 67.4246259,30.0439339 59.1704036,31.2568034 C55.3010402,32.269632 52.442071,36.5317754 51.0974344,43.8853128 C50.3589198,47.9284788 50.7883659,53.6036472 51.6595019,57.0056037 C52.4548869,59.4029948 52.1843805,59.2556326 53.0392678,59.7109177 C56.3480512,60.4585172 59.6236506,61.2861101 62.9593245,62.13 C66.3479782,59.7298544 69.1310821,46.987495 68.6698251,43.685272 Z M42.7810502,43.0059482 C43.6515105,39.6035329 44.080962,33.9283647 43.3427814,29.885658 C41.9991577,22.5317767 39.1398094,18.2689448 35.2697109,17.2568049 C27.015385,16.0439355 25.9791172,23.7843558 25.7701701,29.6855025 C25.3089074,32.9871514 28.0923894,45.7303136 31.481429,48.13 C34.8169159,47.2861101 38.0920987,46.4592059 41.4019535,45.7109178 C42.2558217,45.2560918 41.9853119,45.4033393 42.7810502,43.0059482 Z M32.72,50.2089694 C34.2700841,70.1591812 52.7977478,62.2362555 42.7468595,47.13 C39.5653369,48.2395102 36.7562601,48.9460176 32.72,50.2089694 Z" id="path-43"></path>
        <filter x="-108.5%" y="-108.5%" width="317.0%" height="317.0%" filterUnits="objectBoundingBox" id="filter-45">
            <feOffset dx="2" dy="2" in="SourceAlpha" result="shadowOffsetOuter1"></feOffset>
            <feGaussianBlur stdDeviation="25" in="shadowOffsetOuter1" result="shadowBlurOuter1"></feGaussianBlur>
            <feColorMatrix values="0 0 0 0 1   0 0 0 0 1   0 0 0 0 1  0 0 0 1 0" type="matrix" in="shadowBlurOuter1" result="shadowMatrixOuter1"></feColorMatrix>
            <feMerge>
                <feMergeNode in="shadowMatrixOuter1"></feMergeNode>
                <feMergeNode in="SourceGraphic"></feMergeNode>
            </feMerge>
        </filter>
        <path d="M51.6931478,61.13 C54.8745592,62.239381 57.6837666,62.9459969 61.72,64.2089343 C60.169398,84.1591519 41.6423821,76.2363165 51.6931478,61.13 Z M68.6698251,43.685272 C68.4608806,37.7844694 67.4246259,30.0439339 59.1704036,31.2568034 C55.3010402,32.269632 52.442071,36.5317754 51.0974344,43.8853128 C50.3589198,47.9284788 50.7883659,53.6036472 51.6595019,57.0056037 C52.4548869,59.4029948 52.1843805,59.2556326 53.0392678,59.7109177 C56.3480512,60.4585172 59.6236506,61.2861101 62.9593245,62.13 C66.3479782,59.7298544 69.1310821,46.987495 68.6698251,43.685272 Z M42.7810502,43.0059482 C43.6515105,39.6035329 44.080962,33.9283647 43.3427814,29.885658 C41.9991577,22.5317767 39.1398094,18.2689448 35.2697109,17.2568049 C27.015385,16.0439355 25.9791172,23.7843558 25.7701701,29.6855025 C25.3089074,32.9871514 28.0923894,45.7303136 31.481429,48.13 C34.8169159,47.2861101 38.0920987,46.4592059 41.4019535,45.7109178 C42.2558217,45.2560918 41.9853119,45.4033393 42.7810502,43.0059482 Z M32.72,50.2089694 C34.2700841,70.1591812 52.7977478,62.2362555 42.7468595,47.13 C39.5653369,48.2395102 36.7562601,48.9460176 32.72,50.2089694 Z" id="path-46"></path>
        <filter x="-108.5%" y="-108.5%" width="317.0%" height="317.0%" filterUnits="objectBoundingBox" id="filter-48">
            <feOffset dx="2" dy="2" in="SourceAlpha" result="shadowOffsetOuter1"></feOffset>
            <feGaussianBlur stdDeviation="25" in="shadowOffsetOuter1" result="shadowBlurOuter1"></feGaussianBlur>
            <feColorMatrix values="0 0 0 0 1   0 0 0 0 1   0 0 0 0 1  0 0 0 0.5 0" type="matrix" in="shadowBlurOuter1" result="shadowMatrixOuter1"></feColorMatrix>
            <feMerge>
                <feMergeNode in="shadowMatrixOuter1"></feMergeNode>
                <feMergeNode in="SourceGraphic"></feMergeNode>
            </feMerge>
        </filter>
        <path d="M51.6931478,61.13 C54.8745592,62.239381 57.6837666,62.9459969 61.72,64.2089343 C60.169398,84.1591519 41.6423821,76.2363165 51.6931478,61.13 Z M68.6698251,43.685272 C68.4608806,37.7844694 67.4246259,30.0439339 59.1704036,31.2568034 C55.3010402,32.269632 52.442071,36.5317754 51.0974344,43.8853128 C50.3589198,47.9284788 50.7883659,53.6036472 51.6595019,57.0056037 C52.4548869,59.4029948 52.1843805,59.2556326 53.0392678,59.7109177 C56.3480512,60.4585172 59.6236506,61.2861101 62.9593245,62.13 C66.3479782,59.7298544 69.1310821,46.987495 68.6698251,43.685272 Z M42.7810502,43.0059482 C43.6515105,39.6035329 44.080962,33.9283647 43.3427814,29.885658 C41.9991577,22.5317767 39.1398094,18.2689448 35.2697109,17.2568049 C27.015385,16.0439355 25.9791172,23.7843558 25.7701701,29.6855025 C25.3089074,32.9871514 28.0923894,45.7303136 31.481429,48.13 C34.8169159,47.2861101 38.0920987,46.4592059 41.4019535,45.7109178 C42.2558217,45.2560918 41.9853119,45.4033393 42.7810502,43.0059482 Z M32.72,50.2089694 C34.2700841,70.1591812 52.7977478,62.2362555 42.7468595,47.13 C39.5653369,48.2395102 36.7562601,48.9460176 32.72,50.2089694 Z" id="path-49"></path>
    </defs>
    <g id="Page-1" stroke="none" stroke-width="1" fill="none" fill-rule="evenodd">
        <g id="vector-1-HD" transform="translate(0.000000, -104.000000)">
            <path d="M536.932298,615.108471 C746.155261,615.108471 996.539319,684.408255 1034,597 C1037,590 1037.68411,558.096926 1035,513 C1032.8877,477.510371 1033.28272,434.904844 1014,395 C928.638797,218.348255 723.218015,-5.68434189e-14 536.5,-5.68434189e-14 C354.57646,-5.68434189e-14 122.125937,186.808766 29,365 C-22.4814393,463.506834 10.5040523,596.46886 19,606 C94.8525449,691.094833 322.045555,615.108471 536.932298,615.108471 Z" id="Oval-Copy" fill="url(#linearGradient-1)" fill-rule="nonzero"></path>
            <path d="M1034.5,607.33 L1034.5,607.33 C1034.5,700.511483 958.961483,776.05 865.78,776.05 L177,776.05 C92.929709,776.052274 22.6646567,712.081619 14.8,628.38 L12.41,603 L1034.5,607.33 Z" id="Path" fill="#F1F1F1" fill-rule="nonzero"></path>
            <path d="M106,316 C106,309 110.208224,309.495836 119,311 C141.689156,314.881833 186.302195,339.228403 204,311 C222.120011,282.098169 189.641001,130.27952 205,116 C215.022738,106.681692 225.348019,115.483774 235,116 C244.830342,116.525766 363.944379,92.2631167 498,113 C509.001783,114.701851 489.780105,176.867504 501,179 C584.854915,194.937782 874.410901,179 776,179 C776,179 778.887916,240.235038 780,293 C780.16946,301.040352 781.363581,325.806284 780,349 C779.422214,358.827804 779.422214,371.494471 780,387 C782.96098,390.414759 790.102539,388.893573 797,389 C806.7449,389.150362 838.067112,389.913821 865,399 C891.328236,407.882191 913.344874,425.011289 917,432 C923.112912,445.109336 919.635453,457.012035 920,469 C920.738917,493.29893 919.328626,515.758929 920,534 C920.707886,553.23309 920.707886,574.566423 920,598 L1034.49,607.33 L12.58,607.33 C74.86,601.11 106,597.666667 106,597 C106,455.542823 106,376.076358 106,316 Z" id="Path" fill="#FEFEFF" fill-rule="nonzero"></path>
            <path d="M614,387.56 L837,388 C857.805409,394.228683 873.138743,399.895349 883,405 C892.861257,410.104651 905.861257,419.104651 922,432 L922,596.56 L614,596.56 L614,387.56 Z" id="Rectangle" fill-opacity="0.29" fill="url(#linearGradient-2)" fill-rule="nonzero"></path>
            <path d="M905.59,523.851182 L905.59,599.67 L824.59,599.67 L824.59,523.851182 C824.59,501.659728 842.722468,483.67 865.09,483.67 C887.457532,483.67 905.59,501.659728 905.59,523.851182 Z" id="Path" fill-opacity="0.61" fill="url(#linearGradient-3)" fill-rule="nonzero"></path>
            <ellipse id="Oval" fill="#6589B0" fill-rule="nonzero" cx="861.22" cy="545" rx="2.22" ry="5"></ellipse>
            <ellipse id="Oval" fill="#6589B0" fill-rule="nonzero" cx="872.03" cy="545" rx="2.22" ry="5"></ellipse>
            <path d="M866.73,598 L866.73,484" id="Path" stroke="#A3C8E8"></path>
            <path d="M753.61,723.72 C753.61,737.43 741.38,748.55 726.29,748.55 C711.2,748.55 699,737.43 699,723.72 C699,710.01 711.23,698.89 726.32,698.89 C741.41,698.89 753.61,710 753.61,723.72 Z M726.29,711.94 C719.14,711.94 713.34,717.21 713.34,723.72 C713.34,730.23 719.14,735.49 726.29,735.49 C733.44,735.49 739.29,730.22 739.29,723.72 C739.29,717.22 733.44,711.94 726.29,711.94 Z" id="Shape" fill="#4D4D4D" fill-rule="nonzero"></path>
            <path d="M646.56,725.37 C646.56,738.72 634.33,749.55 619.24,749.55 C604.15,749.55 591.92,738.72 591.92,725.37 C591.92,712.02 604.15,701.18 619.24,701.18 C634.33,701.18 646.56,712 646.56,725.37 Z M619.24,713.9 C612.09,713.9 606.24,719.03 606.24,725.37 C606.24,731.71 612.04,736.83 619.24,736.83 C626.44,736.83 632.24,731.7 632.24,725.37 C632.24,719.04 626.39,713.9 619.24,713.9 Z" id="Shape" fill="#4D4D4D" fill-rule="nonzero"></path>
            <path d="M630.96,629.51 L646.19,631.69" id="Path" stroke="#4D4D4D" stroke-width="2.7" stroke-linecap="round"></path>
            <path d="M12.58,615.87 L12.49,615.87" id="Path" stroke="#D82727"></path>
            <rect id="Rectangle" fill-opacity="0.29" fill="url(#linearGradient-4)" fill-rule="nonzero" x="363.48" y="254.74" width="242.04" height="351.56"></rect>
            <rect id="Rectangle" fill-opacity="0.29" fill="url(#linearGradient-5)" fill-rule="nonzero" x="116.59" y="310.73" width="253.19" height="292.26"></rect>
            <rect id="Rectangle" fill="url(#linearGradient-6)" fill-rule="nonzero" x="144.03" y="347.8" width="42.13" height="48.13"></rect>
            <rect id="Rectangle" fill="url(#linearGradient-7)" fill-rule="nonzero" x="211.61" y="347.8" width="42.13" height="48.13"></rect>
            <rect id="Rectangle" fill="url(#linearGradient-6)" fill-rule="nonzero" x="281.74" y="347.8" width="42.13" height="48.13"></rect>
            <rect id="Rectangle" fill="url(#linearGradient-6)" fill-rule="nonzero" x="144.03" y="425.08" width="42.13" height="48.13"></rect>
            <rect id="Rectangle" fill="url(#linearGradient-6)" fill-rule="nonzero" x="211.61" y="425.08" width="42.13" height="48.13"></rect>
            <rect id="Rectangle" fill="url(#linearGradient-6)" fill-rule="nonzero" x="281.74" y="425.08" width="42.13" height="48.13"></rect>
            <path d="M284.12,544.81 C285.717559,543.841873 286.916367,542.334497 287.5,540.56 L294.28,540.56 C294.873934,542.379405 296.116063,543.91694 297.77,544.88 C296.714253,547.399092 294.289692,549.074031 291.56,549.17 C288.405428,549.445524 285.421378,547.696807 284.12,544.81 Z" id="Path" fill="url(#linearGradient-8)" fill-rule="nonzero"></path>
            <path d="M304.27,554.58 C303.68,558.37 301.27,561.12 300.01,563.67 C298.75,566.22 299.39,571.14 299.39,571.14 C296.78,573.14 291.62,572.06 290.89,571.89 L290.89,571.89 C290.16,572.06 285,573.18 282.39,571.14 C282.39,571.14 283.08,566.22 281.77,563.67 C280.46,561.12 278.1,558.37 277.51,554.58 C276.93,550.98 277.57,548.38 280.38,546.79 C281.38,546.24 282.33,545.79 283.26,545.31 C284.673155,548.306584 287.696981,550.210619 291.01,550.19 L291.62,550.19 C294.684484,550.076028 297.409382,548.207526 298.62,545.39 C299.52,545.86 300.44,546.28 301.37,546.81 C304.21,548.38 304.85,551 304.27,554.58 Z" id="Path" fill="url(#linearGradient-9)" fill-rule="nonzero"></path>
            <rect id="Rectangle" fill="url(#linearGradient-10)" fill-rule="nonzero" x="252.76" y="516.01" width="76.43" height="56.77"></rect>
            <path d="M284.12,544.81 C285.717559,543.841873 286.916367,542.334497 287.5,540.56 L294.28,540.56 C294.873934,542.379405 296.116063,543.91694 297.77,544.88 C296.714253,547.399092 294.289692,549.074031 291.56,549.17 C288.405428,549.445524 285.421378,547.696807 284.12,544.81 Z" id="Path" fill="url(#radialGradient-11)" fill-rule="nonzero"></path>
            <path d="M304.27,554.58 C303.68,558.37 301.27,561.12 300.01,563.67 C298.75,566.22 299.39,571.14 299.39,571.14 C296.78,573.14 291.62,572.06 290.89,571.89 L290.89,571.89 C290.16,572.06 285,573.18 282.39,571.14 C282.39,571.14 283.08,566.22 281.77,563.67 C280.46,561.12 278.1,558.37 277.51,554.58 C276.93,550.98 277.57,548.38 280.38,546.79 C281.38,546.24 282.33,545.79 283.26,545.31 C284.673155,548.306584 287.696981,550.210619 291.01,550.19 L291.62,550.19 C294.684484,550.076028 297.409382,548.207526 298.62,545.39 C299.52,545.86 300.44,546.28 301.37,546.81 C304.21,548.38 304.85,551 304.27,554.58 Z" id="Path" fill="url(#radialGradient-12)" fill-rule="nonzero"></path>
            <path d="M331.93,576.27 L250,576.27 L250,514 L331.92,514 L331.93,576.27 Z M255.51,570.74 L326.43,570.74 L326.43,519.5 L255.51,519.5 L255.51,570.74 Z" id="Shape" fill-opacity="0.6" fill="#989697" fill-rule="nonzero"></path>
            <rect id="Rectangle" fill-opacity="0.29" fill="url(#linearGradient-13)" fill-rule="nonzero" x="345.6" y="310.73" width="24.17" height="292.26"></rect>
            <rect id="Rectangle" fill="#CEE7FF" fill-rule="nonzero" x="137.61" y="520.69" width="84.26" height="79.92"></rect>
            <path d="M223.86,602.61 L135.61,602.61 L135.61,518.69 L223.86,518.69 L223.86,602.61 Z M139.61,598.61 L219.86,598.61 L219.86,520.69 L139.61,520.69 L139.61,598.61 Z" id="Shape" fill="#989697" fill-rule="nonzero"></path>
            <ellipse id="Oval" fill="#999999" fill-rule="nonzero" cx="174.6" cy="564.68" rx="2.22" ry="3.59"></ellipse>
            <ellipse id="Oval" fill="#999999" fill-rule="nonzero" cx="185.41" cy="564.68" rx="2.22" ry="3.59"></ellipse>
            <path d="M180.01,597.53 L180.01,518.53" id="Path" stroke="#A3C8E8"></path>
            <rect id="Rectangle" fill="#CEE7FF" fill-rule="nonzero" x="444" y="516.84" width="84.26" height="79.92"></rect>
            <path d="M530.25,598.92 L442,598.92 L442,515 L530.25,515 L530.25,598.92 Z M446,594.92 L526.25,594.92 L526.25,517 L446,517 L446,594.92 Z" id="Shape" fill="#989697" fill-rule="nonzero"></path>
            <ellipse id="Oval" fill="#999999" fill-rule="nonzero" cx="480.99" cy="558.15" rx="2.22" ry="3.59"></ellipse>
            <ellipse id="Oval" fill="#999999" fill-rule="nonzero" cx="491.8" cy="558.15" rx="2.22" ry="3.59"></ellipse>
            <path d="M486.5,595 L486.5,516" id="Path" stroke="#A3C8E8"></path>
            <polygon id="Path" fill="#FFFFFF" fill-rule="nonzero" points="227.56 520.69 203.82 520.69 199.09 506.22 215.82 506.22"></polygon>
            <path d="M179.77,520.69 C179.77,525.03 174.97,533.12 166.12,532.01 C157.27,530.9 155.83,520.69 155.83,520.69 L179.77,520.69 Z" id="Path" fill="url(#linearGradient-14)" fill-rule="nonzero"></path>
            <polygon id="Path" fill="#FFFFFF" fill-rule="nonzero" points="179.78 506.22 179.78 520.69 155.82 520.69 162.65 506.22"></polygon>
            <polygon id="Path" fill="#CCACFF" fill-rule="nonzero" points="203.82 520.69 179.78 520.69 179.78 506.22 199.09 506.22"></polygon>
            <polygon id="Path" fill="#CCACFF" fill-rule="nonzero" points="162.65 506.22 155.82 520.69 132 520.69 143.56 506.22"></polygon>
            <path d="M155.83,520.69 C154.97,526.31 149.77,533.03 141.7,531.33 C133.63,529.63 132,520.69 132,520.69 L155.83,520.69 Z" id="Path" fill="url(#linearGradient-15)" fill-rule="nonzero"></path>
            <path d="M203.83,520.69 C203.06,523.84 200.58,532.18 191.49,532.01 C182.4,531.84 179.77,520.69 179.77,520.69 L203.83,520.69 Z" id="Path" fill="url(#linearGradient-16)" fill-rule="nonzero"></path>
            <path d="M227.57,520.69 C227.57,522.14 225.52,532.61 215.49,532.01 C205.46,531.41 203.83,520.69 203.83,520.69 L227.57,520.69 Z" id="Path" fill="url(#linearGradient-17)" fill-rule="nonzero"></path>
            <rect id="Rectangle" fill-opacity="0.61" fill="url(#linearGradient-18)" fill-rule="nonzero" transform="translate(730.255000, 528.120000) rotate(90.000000) translate(-730.255000, -528.120000) " x="690.755" y="444.865" width="79" height="166.51"></rect>
            <rect id="Rectangle" stroke="#8C8C8C" stroke-width="2.5" fill="url(#linearGradient-19)" fill-rule="nonzero" x="528" y="519" width="26.81" height="77.17"></rect>
            <rect id="Rectangle" stroke="#8C8C8C" stroke-width="2.5" fill="url(#linearGradient-19)" fill-rule="nonzero" x="416" y="519" width="26.81" height="77.17"></rect>
            <path d="M621.19,414.37 L621.19,607.76 L598.19,607.76 L598.19,427.76 C605.5359,422.767148 613.22123,418.292949 621.19,414.37 L621.19,414.37 Z" id="Path" fill-opacity="0.29" fill="url(#linearGradient-20)" fill-rule="nonzero"></path>
            <path d="M1034.58,597.25 L1034.41,615.87 L104.2,615.87 C97.8172762,608.342111 90.2801798,601.874992 81.87,596.71 L1034.58,597.25 Z" id="Path" fill="#CCCCCC" fill-rule="nonzero"></path>
            <path d="M662.24,541.65 C662.24,541.65 661.24,534.92 662.37,533.65 C663.5,532.38 672.37,534.1 676.28,524.65 C676.28,524.65 677.11,536.14 690.51,535.76 C690.51,535.76 691.23,544.45 687.02,551.46 C687.02,551.46 703.66,555.96 709.79,563.05 C715.92,570.14 743.88,595.6 762.79,581.62 C762.79,581.62 775.23,594.74 787.39,589.38 C799.55,584.02 810.09,558.64 803.96,546.1 C797.83,533.56 786.05,529.63 768.96,529.1 C751.87,528.57 744.96,520.39 738.51,514.83 C732.06,509.27 722.9,508.23 709.88,514.83 C696.86,521.43 690.44,516.75 683.46,509.76 C676.48,502.77 670,496.93 654.35,511.67 C639.42,525.63 650.37,542 662.24,541.65 Z" id="Path" fill="url(#linearGradient-21)" fill-rule="nonzero"></path>
            <path d="M679.7,560.1 L679.7,567.37 L674.14,567.37 L674.14,561.44 C676.07699,561.472155 677.990323,561.011028 679.7,560.1 L679.7,560.1 Z" id="Path" fill="#EBD9BF" fill-rule="nonzero"></path>
            <path d="M679.7,560.1 C677.990323,561.011028 676.07699,561.472155 674.14,561.44 C674.14,561.44 667.34,554.83 664.47,550.04 C661.6,545.25 661.6,533.29 661.6,533.29 C673.79,532.92 676.31,524.15 676.44,524.15 C678.44,536.45 690.6,535.59 690.6,535.59 C692.14,551.48 679.7,560.1 679.7,560.1 Z" id="Path" fill="#F3E7D7" fill-rule="nonzero"></path>
            <path d="M674.59,555.63 C674.59,555.63 676.91,554.74 678.31,554.18 L678.96,553.89 L682.69,552.12 C682.381191,552.863897 681.893411,553.519996 681.27,554.03 C680.673551,554.544522 679.99827,554.95982 679.27,555.26 C678.535462,555.547359 677.764922,555.732423 676.98,555.81 C676.17944,555.915301 675.365757,555.854019 674.59,555.63 Z" id="Path" fill="#000000" fill-rule="nonzero"></path>
            <ellipse id="Oval" fill="#000000" fill-rule="nonzero" cx="668.33" cy="541.08" rx="1.31" ry="2.87"></ellipse>
            <ellipse id="Oval" fill="#000000" fill-rule="nonzero" transform="translate(681.946636, 541.027814) rotate(-77.410000) translate(-681.946636, -541.027814) " cx="681.946636" cy="541.027814" rx="2.87" ry="1.31"></ellipse>
            <rect id="Rectangle" fill-opacity="0.8" fill="url(#linearGradient-22)" fill-rule="nonzero" x="406.33" y="304.44" width="27.62" height="166.51"></rect>
            <rect id="Rectangle" fill-opacity="0.8" fill="url(#linearGradient-23)" fill-rule="nonzero" x="470.93" y="304.44" width="27.62" height="166.51"></rect>
            <rect id="Rectangle" fill-opacity="0.8" fill="url(#linearGradient-23)" fill-rule="nonzero" x="535.52" y="304.44" width="27.62" height="166.51"></rect>
            <path d="M779.9,176.61 L780,388 C780,388 770.779829,388.065519 755,388 C723.985008,387.871223 669.301698,390.542813 621.19,414.37 C613.221806,418.286498 605.53649,422.754005 598.19,427.74 L598.19,266.48 L499.65,266.48 L499.65,176.61 L779.9,176.61 Z" id="Path" fill-opacity="0.29" fill="url(#linearGradient-24)" fill-rule="nonzero"></path>
            <rect id="Rectangle" fill="url(#linearGradient-25)" fill-rule="nonzero" x="598.2" y="314.48" width="26.21" height="68.77"></rect>
            <path d="M684.41,314.48 L684.41,373.17 C674.993888,370.090872 664.847123,370.055883 655.41,373.07 L655.41,314.48 L684.41,314.48 Z" id="Path" fill="url(#linearGradient-26)" fill-rule="nonzero"></path>
            <rect id="Rectangle" fill="url(#linearGradient-27)" fill-rule="nonzero" x="715.12" y="314.48" width="29.04" height="68.77"></rect>
            <rect id="Rectangle" fill="url(#linearGradient-28)" fill-rule="nonzero" x="655.37" y="203.67" width="29.04" height="67.21"></rect>
            <rect id="Rectangle" fill="url(#linearGradient-28)" fill-rule="nonzero" x="715.12" y="203.67" width="29.04" height="67.21"></rect>
            <rect id="Rectangle" fill="url(#linearGradient-29)" fill-rule="nonzero" x="535.52" y="203.67" width="29.04" height="62.81"></rect>
            <polygon id="Path" fill="url(#linearGradient-30)" fill-rule="nonzero" points="624.32 203.67 624.32 270.88 598.21 270.88 598.21 266.48 595.26 266.48 595.26 203.67"></polygon>
            <polygon id="Path" fill-opacity="0.29" fill="url(#linearGradient-31)" fill-rule="nonzero" points="499.65 113 499.65 266.48 494.72 266.48 383.9 267.38 369.77 267.5 369.77 310.73 204.57 310.73 204.57 113"></polygon>
            <rect id="Rectangle" fill="url(#linearGradient-32)" fill-rule="nonzero" x="234.55" y="143.84" width="57.96" height="32.85"></rect>
            <rect id="Rectangle" fill="url(#linearGradient-32)" fill-rule="nonzero" x="325.95" y="143.84" width="57.96" height="32.85"></rect>
            <rect id="Rectangle" fill="url(#linearGradient-32)" fill-rule="nonzero" x="417.18" y="143.84" width="57.96" height="32.85"></rect>
            <rect id="Rectangle" fill="url(#linearGradient-32)" fill-rule="nonzero" x="234.55" y="203.67" width="57.96" height="32.85"></rect>
            <rect id="Rectangle" fill="url(#linearGradient-32)" fill-rule="nonzero" x="325.95" y="203.67" width="57.96" height="32.85"></rect>
            <rect id="Rectangle" fill="url(#linearGradient-32)" fill-rule="nonzero" x="417.18" y="203.67" width="57.96" height="32.85"></rect>
            <rect id="Rectangle" fill="url(#linearGradient-32)" fill-rule="nonzero" x="234.55" y="263.25" width="57.96" height="32.85"></rect>
            <polygon id="Path" fill="url(#linearGradient-32)" fill-rule="nonzero" points="383.9 263.25 383.9 267.38 369.77 267.5 369.77 296.1 325.94 296.1 325.94 263.25"></polygon>
            <rect id="Rectangle" fill="#666666" fill-rule="nonzero" x="101.52" y="308.36" width="268.25" height="7.54"></rect>
            <rect id="Rectangle" fill="#666666" fill-rule="nonzero" x="357.23" y="262.73" width="254.43" height="7.5"></rect>
            <path d="M583.12,730.52 C584.901519,711.90161 600.541571,697.686657 619.245,697.686657 C637.948429,697.686657 653.588481,711.90161 655.37,730.52 L583.12,730.52 Z" id="Path" fill="url(#linearGradient-33)" fill-rule="nonzero"></path>
            <path d="M688.82,730.52 L761.07,730.52 C759.288481,711.90161 743.648429,697.686657 724.945,697.686657 C706.241571,697.686657 690.601519,711.90161 688.82,730.52 L688.82,730.52 Z" id="Path" fill="url(#linearGradient-34)" fill-rule="nonzero"></path>
            <rect id="Rectangle" fill="#4D4D4D" fill-rule="nonzero" x="666.03" y="645.88" width="46.85" height="11.88" rx="5.94"></rect>
            <path d="M657.48,631 C657.48,631 647.24,636.65 640.73,643.54 C634.22,650.43 637.28,662.88 644.65,669.54 C652.02,676.2 673.82,689.9 685.95,702.28 L685.31,692 C685.31,692 669.86,675.92 660.67,668 C651.48,660.08 650.49,657.89 652.79,655.59 C655.09,653.29 669.35,642.59 669.35,642.59 L657.48,631 Z" id="Path" fill="#F3E7D7" fill-rule="nonzero"></path>
            <path d="M609.69,712.34 C609.690005,705.762049 610.339827,699.200186 611.63,692.75 C612.89,686.39 614.47,679.02 615.35,677 C616.98,673.27 622.44,672.22 625.69,672.22 L639.16,631.13 C640.168421,627.984303 643.529887,626.24546 646.68,627.24 L646.68,627.24 C649.786174,628.168636 651.592878,631.396791 650.76,634.53 C648.05,644.98 642.29,667.64 639.61,681.25 C636.03,699.38 638.81,709.75 653.17,712.43 C667.53,715.11 680.94,712.33 680.75,702.95 C680.56,693.57 678,664.37 678.26,661 C678.52,657.63 682.37,657.27 691.57,657.46 C700.77,657.65 704.01,659.57 706.41,668.09 C708.81,676.61 711.29,690.09 726.23,699.88 C741.17,709.67 740.11,719.6 738.1,721.32 C736.09,723.04 712.25,727.64 699.8,728.22 C690.94,728.63 649,728.45 625.59,728.32 C616.792521,728.265015 609.689828,721.11765 609.69,712.32 L609.69,712.34 Z" id="Path" fill="#E25465" fill-rule="nonzero"></path>
            <path d="M652.58,705.41 C650,709.67 647.58,714.41 647.26,715.84 C647.199688,716.160635 647.030051,716.450432 646.78,716.66 L622.52,702.77 C622.69494,702.142543 623.232803,701.683777 623.88,701.61 C625.56,701.56 633.35,703.01 637.95,703.27 C641.87,703.48 645.14,701.05 646.01,700.34 L652.58,705.41 Z" id="Path" fill="url(#linearGradient-35)" fill-rule="nonzero"></path>
            <path d="M692.84,650.73 C692.84,650.73 659,696.05 655.7,700.65 C654.7,701.99 653.64,703.65 652.58,705.41 L646,700.34 L646.24,700.14 C657.59,681.37 671.38,645.88 671.38,645.88 L692.84,650.73 Z" id="Path" fill="#F3E7D7" fill-rule="nonzero"></path>
            <path d="M646.78,716.66 C645.5,717.81 642.13,717.59 641.26,717.05 C640.39,716.51 622.1,704.81 622.1,704.81 C622.138146,704.125942 622.279754,703.451617 622.52,702.81 L646.78,716.66 Z" id="Path" fill="#F3E7D7" fill-rule="nonzero"></path>
            <path d="M691.09,654.41 L690.62,654.35 C675.32,652.49 661.88,645.63 652.62,627.5 C660.821668,622.716474 669.68844,619.177854 678.93,617 L682.76,607.91 C682.76,607.91 667.63,614.8 661.6,599.48 L647.43,626.72 L642.35,626.96 C642.35,626.96 655.62,576.38 660.55,570.18 C665.48,563.98 686.72,565.11 692.24,570.18 C697.02,574.49 702.74,580.23 698.17,596.23 C693.48,612.66 698.56,616.43 703.06,622.65 C707.56,628.87 703.53,644.65 703.53,644.65 L691.09,654.41 Z" id="Path" fill="url(#linearGradient-36)" fill-rule="nonzero"></path>
            <path d="M646.19,631.69 L654.42,632.87" id="Path" stroke="#4D4D4D" stroke-width="2.7" stroke-linecap="round"></path>
            <polygon id="Path" fill="url(#linearGradient-37)" fill-rule="nonzero" points="655 631 674.2 602.99 685.23 603.5 662 632 657 631"></polygon>
            <path d="M800.94,410.56 L759.82,410.56 C761.789312,407.218864 765.381687,405.171515 769.26,405.18 L791.5,405.18 C795.374575,405.185632 798.960446,407.229275 800.94,410.56 Z" id="Path" fill-opacity="0.7" fill="url(#linearGradient-38)" fill-rule="nonzero"></path>
            <polygon id="Path" fill-opacity="0.7" fill="url(#linearGradient-39)" fill-rule="nonzero" points="792.92 483.37 767.9 483.37 759.32 424.05 801.46 424.05"></polygon>
            <path d="M780.38,468.76 C774.304868,468.76 769.38,463.835132 769.38,457.76 C769.38,451.684868 774.304868,446.76 780.38,446.76 C786.455132,446.76 791.38,451.684868 791.38,457.76 C791.38,463.835132 786.455132,468.76 780.38,468.76 Z M780.38,449.16 C775.602737,449.16 771.73,453.032737 771.73,457.81 C771.73,462.587263 775.602737,466.46 780.38,466.46 C785.157263,466.46 789.03,462.587263 789.03,457.81 C789.024489,453.035021 785.154979,449.165511 780.38,449.16 Z" id="Shape" fill="#FDFDFD" fill-rule="nonzero"></path>
            <rect id="Rectangle" fill-opacity="0.7" fill="url(#linearGradient-40)" fill-rule="nonzero" x="754.89" y="414.57" width="50.55" height="5.49" rx="2.74"></rect>
            <path d="M756.35,424.55 L763.64,474.94 C755.169998,469.865949 749.433422,461.249298 748.019719,451.477483 C746.606015,441.705668 749.665325,431.816502 756.35,424.55 Z" id="Path" fill="#B3B3B3" fill-rule="nonzero"></path>
            <path d="M813.26,446.78 C813.262341,458.374758 807.135574,469.10706 797.15,475 L804.44,424.39 C810.11398,430.464152 813.266903,438.468002 813.26,446.78 L813.26,446.78 Z" id="Path" fill="#B3B3B3" fill-rule="nonzero"></path>
            <path d="M145.24,774.05 C70.76,759.93 15.12,694.21 12.58,615.87 C12.58,614.3 12.5,612.72 12.49,611.14 L12.41,596.67 C16.8889509,593.69953 21.7862573,591.414345 26.94,589.89 C27.5133333,589.71 28.0933333,589.54 28.68,589.38 C35.7468492,591.071791 42.6100664,593.522701 49.15,596.69 C59.1497899,601.514256 68.2589562,607.999549 76.09,615.87 C96.22,636.09 107.62,665.29 104.34,698.73 C122.18,685.52 167.37,727 145.24,774.05 Z" id="Path" fill="#B8FFCF" fill-rule="nonzero"></path>
            <path d="M158.68,776 C154.14,775.54 149.68,774.88 145.24,774 C167.37,726.93 122.18,685.47 104.34,698.68 C107.62,665.24 96.22,636.04 76.09,615.82 C68.2589562,607.949549 59.1497899,601.464256 49.15,596.64 C42.6100664,593.472701 35.7468492,591.021791 28.68,589.33 C39.09,586.39 53.89,585.01 71.15,591.45 C74.8739166,592.858027 78.4620338,594.601879 81.87,596.66 C90.2801798,601.824992 97.8172762,608.292111 104.2,615.82 C122.37,636.82 134.33,666.55 131.33,693.2 C131.33,693.25 187.19,721.33 158.68,776 Z" id="Path" fill="#72DD96" fill-rule="nonzero"></path>
            <rect id="Rectangle" fill="#E79750" fill-rule="nonzero" x="963.05" y="538.17" width="4.5" height="61.21"></rect>
            <rect id="Rectangle" fill="#E79750" fill-rule="nonzero" transform="translate(974.792159, 562.507205) rotate(-45.990000) translate(-974.792159, -562.507205) " x="961.127159" y="560.507205" width="27.33" height="4"></rect>
            <path d="M994.33,559.18 L994.13,559.18 C1009.83,556.53 1015.05,541.81 1008.71,528.82 C1003.93,519.01 997.71,516.64 993.49,515.41 C992.95,515.26 992.41,515.14 991.87,515.04 C994.614259,514.249874 997.525741,514.249874 1000.27,515.04 C1004.54,516.27 1010.7,518.65 1015.49,528.45 C1022.65,543.08 1015.06,560 994.33,559.18 Z" id="Path" fill="#72DD96" fill-rule="nonzero"></path>
            <path d="M994.13,559.17 L994.13,559.17 C973.59,558.28 971.74,540.39 976.19,529.91 C979.33,522.53 985.12,517.34 991.19,515.25 C991.42,515.17 991.66,515.09 991.9,515.03 C992.44,515.13 992.98,515.25 993.52,515.4 C997.79,516.63 1003.96,519 1008.74,528.81 C1015.05,541.8 1009.83,556.52 994.13,559.17 Z" id="Path" fill="#B8FFCF" fill-rule="nonzero"></path>
            <path d="M965.3,541.59 L965,541.59 C990.52,537.28 999,513.32 988.71,492.19 C980.92,476.19 970.9,472.36 963.95,470.37 C963.080952,470.121883 962.199805,469.918284 961.31,469.76 C965.771953,468.469907 970.508047,468.469907 974.97,469.76 C981.92,471.76 991.97,475.62 999.75,491.57 C1011.38,515.4 999,542.86 965.3,541.59 Z" id="Path" fill="#72DD96" fill-rule="nonzero"></path>
            <path d="M965,541.58 L965,541.58 C931.55,540.12 928.52,511 935.77,494 C940.89,482 950.3,473.54 960.14,470.14 C960.52,470.01 960.9,469.89 961.3,469.78 C962.189805,469.938284 963.070952,470.141883 963.94,470.39 C970.89,472.39 980.94,476.25 988.7,492.21 C999,513.31 990.51,537.27 965,541.58 Z" id="Path" fill="#B8FFCF" fill-rule="nonzero"></path>
            <g id="Group-2" transform="translate(149.000000, 249.000000)">
                <ellipse id="Oval" stroke="url(#linearGradient-41)" stroke-width="4" fill="#FFFFFF" fill-rule="nonzero" cx="46.76" cy="46.56" rx="46.76" ry="46.56"></ellipse>
                <mask id="mask-44" fill="white">
                    <use xlink:href="#path-43"></use>
                </mask>
                <use id="Like" fill="url(#linearGradient-42)" xlink:href="#path-43"></use>
            </g>
            <g id="Group-2" filter="url(#filter-45)" transform="translate(452.000000, 204.000000)">
                <ellipse id="Oval" stroke="url(#linearGradient-41)" stroke-width="4" fill="#FFFFFF" fill-rule="nonzero" cx="46.76" cy="46.56" rx="46.76" ry="46.56"></ellipse>
                <mask id="mask-47" fill="white">
                    <use xlink:href="#path-46"></use>
                </mask>
                <use id="Like" fill="url(#linearGradient-42)" xlink:href="#path-46"></use>
            </g>
            <g id="Group-2" filter="url(#filter-48)" transform="translate(590.000000, 356.000000)">
                <ellipse id="Oval" stroke="url(#linearGradient-41)" stroke-width="4" fill="#FFFFFF" fill-rule="nonzero" cx="46.76" cy="46.56" rx="46.76" ry="46.56"></ellipse>
                <mask id="mask-50" fill="white">
                    <use xlink:href="#path-49"></use>
                </mask>
                <use id="Like" fill="url(#linearGradient-42)" xlink:href="#path-49"></use>
            </g>
        </g>
    </g>
</svg>