<?xml version="1.0" encoding="UTF-8"?>
<svg width="1054px" height="967px" viewBox="0 0 1054 967" version="1.1" xmlns="http://www.w3.org/2000/svg" xmlns:xlink="http://www.w3.org/1999/xlink" style="background: #FFFFFF;">
    <!-- Generator: Sketch 54.1 (76490) - https://sketchapp.com -->
    <title>Slice</title>
    <desc>Created with Sketch.</desc>
    <defs>
        <linearGradient x1="49.9952002%" y1="88.2044793%" x2="49.9952002%" y2="22.4444444%" id="linearGradient-1">
            <stop stop-color="#7FEAED" stop-opacity="0.8" offset="0%"></stop>
            <stop stop-color="#C3F6FE" stop-opacity="0.58" offset="54.6234131%"></stop>
            <stop stop-color="#C3F6FE" stop-opacity="0" offset="100%"></stop>
        </linearGradient>
        <linearGradient x1="50%" y1="0%" x2="50%" y2="100%" id="linearGradient-2">
            <stop stop-color="#F6B275" offset="0%"></stop>
            <stop stop-color="#8B572A" offset="100%"></stop>
        </linearGradient>
        <linearGradient x1="50%" y1="0%" x2="50%" y2="100%" id="linearGradient-3">
            <stop stop-color="#FFB75B" offset="0%"></stop>
            <stop stop-color="#4A2F17" offset="100%"></stop>
        </linearGradient>
        <linearGradient x1="59.7183554%" y1="14.841355%" x2="32.1705956%" y2="92.8399916%" id="linearGradient-4">
            <stop stop-color="#D6F16F" offset="0.0897381757%"></stop>
            <stop stop-color="#81F8A9" offset="100%"></stop>
        </linearGradient>
        <linearGradient x1="31.0367233%" y1="69.7611845%" x2="62.972179%" y2="26.3422446%" id="linearGradient-5">
            <stop stop-color="#DBCD2C" offset="0%"></stop>
            <stop stop-color="#93F79E" offset="100%"></stop>
        </linearGradient>
        <linearGradient x1="50%" y1="0%" x2="50%" y2="100%" id="linearGradient-6">
            <stop stop-color="#FFEBA0" offset="0%"></stop>
            <stop stop-color="#FBAA7C" offset="100%"></stop>
        </linearGradient>
        <linearGradient x1="50%" y1="0%" x2="50%" y2="100%" id="linearGradient-7">
            <stop stop-color="#F9D862" offset="0%"></stop>
            <stop stop-color="#F58241" offset="100%"></stop>
        </linearGradient>
        <linearGradient x1="0%" y1="0%" x2="101.999998%" y2="100.999999%" id="linearGradient-8">
            <stop stop-color="#3023AE" offset="0%"></stop>
            <stop stop-color="#C86DD7" offset="100%"></stop>
        </linearGradient>
        <linearGradient x1="71.0076222%" y1="14.7011772%" x2="11.6545232%" y2="92.8399916%" id="linearGradient-9">
            <stop stop-color="#BBDA45" offset="0.0897381757%"></stop>
            <stop stop-color="#33CC66" offset="100%"></stop>
        </linearGradient>
        <linearGradient x1="0%" y1="0%" x2="58.1104079%" y2="57.8773676%" id="linearGradient-10">
            <stop stop-color="#3023AE" offset="0%"></stop>
            <stop stop-color="#C86DD7" offset="100%"></stop>
        </linearGradient>
        <linearGradient x1="0%" y1="48.842155%" x2="58.1104079%" y2="50.1824154%" id="linearGradient-11">
            <stop stop-color="#3023AE" offset="0%"></stop>
            <stop stop-color="#C86DD7" offset="100%"></stop>
        </linearGradient>
    </defs>
    <g id="Page-1" stroke="none" stroke-width="1" fill="none" fill-rule="evenodd">
        <g id="vector-3-HD" transform="translate(-584.000000, -321.000000)">
            <g id="Group">
                <path d="M1419.55855,1250.1638 C2032.87076,1250.1638 2529.12,1439.75726 2529.12,927.679752 C2529.12,415.602242 2031.93221,0.481400485 1418.62,0.481400485 C805.307785,0.481400485 308.12,415.602242 308.12,927.679752 C308.12,1439.75726 806.246333,1250.1638 1419.55855,1250.1638 Z" id="Oval-Copy" fill="url(#linearGradient-1)" fill-rule="nonzero"></path>
                <polygon id="Path" fill="#9900FF" fill-rule="nonzero" points="949.63 966.25 949.63 945.95 952.82 945.95"></polygon>
                <polygon id="Path" fill="#9900FF" fill-rule="nonzero" points="960.48 968.22 970.82 957.31 968.52 956.1"></polygon>
                <ellipse id="Oval" fill="#F2F2F2" fill-rule="nonzero" cx="1418.68" cy="1159.03" rx="1418.23" ry="257.04"></ellipse>
                <ellipse id="Oval" fill="#EDEBEB" fill-rule="nonzero" cx="1418.68" cy="1159.03" rx="1110.66" ry="201.29"></ellipse>
                <ellipse id="Oval" fill-opacity="0.351195435" fill="#CFCFCF" fill-rule="nonzero" cx="1423.13" cy="1163.68" rx="781.55" ry="147.1"></ellipse>
                <ellipse id="Oval" fill-opacity="0.478492577" fill="#D3D3D3" fill-rule="nonzero" cx="1420.32" cy="1172.97" rx="286.68" ry="77.94"></ellipse>
                <path d="M1045.5,756.39 C1031.41,757.44 1017.85,755.86 1006.42,752 C895.3,714.62 913.47,610.47 933.5,537.29 C955.92,455.16 1000.22,414.45 1000.22,414.45 C1005.1624,409.786961 1010.85549,405.990436 1017.06,403.22 C1026.98,398.83 1040.63,396.22 1055.43,403.04 C1088.43,418.31 1147.43,498.95 1153.43,616.35 C1158.39,712.52 1097.78,752.53 1045.5,756.39 Z" id="Path" fill="#72DD96" fill-rule="nonzero"></path>
                <path d="M1045.5,756.39 C1031.41,757.44 1017.85,755.86 1006.42,752 C895.3,714.62 913.47,610.47 933.5,537.29 C955.92,455.16 1000.22,414.45 1000.22,414.45 C1005.1624,409.786961 1010.85549,405.990436 1017.06,403.22 C1022.25737,403.620882 1027.33927,404.959117 1032.06,407.17 C1065.06,422.44 1124.06,503.07 1130.06,620.47 C1134.2,702.51 1090.78,743.67 1045.5,756.39 Z" id="Path" fill="#B8FFCF" fill-rule="nonzero"></path>
                <path d="M1098.85,656.54 L1041.6,699.09 L1041.6,939.33 C1041.6,943.488704 1038.2287,946.86 1034.07,946.86 C1029.9113,946.86 1026.54,943.488704 1026.54,939.33 L1026.54,649.69 L977.18,613.19 C975.576588,612.019249 974.513331,610.251115 974.23098,608.285951 C973.948628,606.320788 974.471067,604.324824 975.68,602.75 C978.183021,599.434677 982.896078,598.76841 986.22,601.26 L1026.54,631.09 L1026.54,529.75 C1026.54,525.591296 1029.9113,522.22 1034.07,522.22 C1038.2287,522.22 1041.6,525.591296 1041.6,529.75 L1041.6,581.52 L1071.82,559.4 C1075.17686,556.949557 1079.88158,557.663746 1082.36,561 C1083.55417,562.587995 1084.05858,564.58996 1083.75943,566.554209 C1083.46027,568.518458 1082.38276,570.279498 1080.77,571.44 L1041.6,600.2 L1041.6,680.49 L1089.72,644.6 C1093.04686,642.119865 1097.75099,642.78487 1100.26,646.09 C1101.47626,647.656222 1102.01203,649.645541 1101.74687,651.610745 C1101.48171,653.57595 1100.43786,655.352134 1098.85,656.54 L1098.85,656.54 Z" id="Path" fill="url(#linearGradient-2)" fill-rule="nonzero"></path>
                <path d="M895.3,1198.45026 L880.64,1198.45 C880.227064,1198.45892 879.842732,1198.23985 879.64,1197.88 L844.17,1135.81 L756.63,1135.81 L756.63,1196.56 C756.627367,1197.06566 756.423273,1197.54941 756.062909,1197.90415 C755.702544,1198.25888 755.215639,1198.45533 754.71,1198.45 L745.25,1198.45 C744.745285,1198.45534 744.259402,1198.25858 743.90062,1197.90355 C743.541839,1197.54853 743.339972,1197.06474 743.34,1196.56 L743.34,1131.56 C743.369637,1130.76574 743.309253,1129.97067 743.16,1129.19 C743.174481,1128.78127 743.144302,1128.37218 743.07,1127.97 L724.07,995.97 C723.537045,992.324921 726.059921,988.937955 729.705,988.405 C733.350079,987.872046 736.737045,990.394921 737.27,994.04 L755.7,1122.58 L886,1122.58 C888.413801,1122.48592 890.685621,1123.72003 891.920501,1125.79617 C893.155381,1127.87231 893.155381,1130.45769 891.920501,1132.53383 C890.685621,1134.60997 888.413801,1135.84408 886,1135.75 L859.42,1135.75 L895.3,1198.45026 Z" id="Path" fill="url(#linearGradient-3)" fill-rule="nonzero"></path>
                <path d="M1014.75,1186.47 C1003.06,1179.54 981.61,1141.11 966.46,1117.24 C951.22,1093.24 936.46,1067.68 927.06,1063.32 C911.06,1055.91 895.24,1062.24 887.33,1062.66 C888.424284,1060.67651 889.699719,1058.79851 891.14,1057.05 C891.14,1057.05 906.03,1055.12 912.94,1056.05 C923.04,1057.46 933.05,1054.74 951.04,1084.66 C967.26,1111.8 1002.17,1169 1014.75,1186.47 Z" id="Path" fill="#936D47" fill-rule="nonzero"></path>
                <path d="M1036.46,1220.16 C1030.17,1219.46 1016.08,1210.86 1003.94,1207.44 C991.8,1204.02 998.89,1192.35 997.3,1188.44 C995.71,1184.53 939.08,1123.85 924.79,1105 C924.057329,1103.9728 922.805723,1103.44968 921.56,1103.65 C913.63,1104.86 884.32,1109.24 872.27,1109.92 C872.27,1109.92 878.03,1079.03 887.33,1062.71 C888.424284,1060.72651 889.699719,1058.84851 891.14,1057.1 C891.14,1057.1 906.03,1055.17 912.94,1056.1 C923.04,1057.51 933.05,1054.79 951.04,1084.71 C967.26,1111.82 1002.17,1169.03 1014.75,1186.49 C1014.84,1186.58 1014.84,1186.67 1014.93,1186.67 C1016.17,1188.33 1017.15,1189.67 1017.93,1190.53 C1017.93,1190.53 1036.01,1207.02 1041.06,1213.6 C1046.11,1220.18 1042.67,1221 1036.46,1220.16 Z" id="Path" fill="#A67C52" fill-rule="nonzero"></path>
                <path d="M1013.67,1185 C1010.89242,1185.95675 1008.04355,1186.69237 1005.15,1187.2 C1002.26201,1187.52341 999.354633,1187.64038 996.45,1187.55 C996.36,1187.55 998.36,1190.9 996.29,1196.49 C994.12,1202.32 999.73,1206.91 1009.29,1210.17 C1025.96,1215.84 1029.99,1219.06 1036.29,1220.34 C1043.37,1221.76 1047.14,1219.39 1038.93,1211.14 C1035.56126,1212.70831 1031.67621,1212.73022 1028.29,1211.2 C1022.56,1208.62 1017.35,1201.01 1015.78,1198.49 C1014.21,1195.97 1016.78,1189.13 1016.78,1189.13 L1013.67,1185 Z" id="Path" fill="#F0D762" fill-rule="nonzero"></path>
                <path d="M874.08,1115.05 C874.08,1115.12 874.08,1115.16 874.01,1115.16 C873.11,1115.22 858.55,1116.25 830.79,1120.84 C802.12,1125.58 786.48,1121.84 777.1,1107.93 C767.72,1094.02 768.76,1073.87 777.1,1052.71 C785.44,1031.55 789.61,1014 798,993.87 C806.39,973.74 815.43,943.32 837.88,945.87 C850.71,947.32 846.31,951.52 863.29,949.45 C884,946.91 888,946.15 885,967 C885,967 877.7,1004.16 871.45,1023.52 C867.747424,1034.99943 865.004664,1046.76654 863.25,1058.7 C863.25,1058.96 863.36,1059.11 863.62,1059.08 C866,1058.82 878.01,1057.52 890.97,1056.82 C891.12,1056.82 891.23,1056.88 891.18,1057.03 C890.13,1060 878.81,1092.58 874.08,1115.05 Z" id="Path" fill="url(#linearGradient-4)" fill-rule="nonzero"></path>
                <path d="M846.43,1008.84 L841.34,1029.35 C841.266038,1029.64721 841.359703,1029.96112 841.584437,1030.16921 C841.80917,1030.3773 842.129347,1030.44657 842.42,1030.35 C852.42,1026.91 910.25,1006.93 923.88,1002.56 C924.843683,1002.25954 925.658134,1001.60584 926.16,1000.73 C927.8,997.91 931.64,991.56 933.61,990.73 C936.15,989.64 934.19,993.32 934.39,995.45 C934.59,997.58 947.39,990.65 950.02,990.54 C951.02,990.49 951.59,1001.84 950.02,1006.1 C948.45,1010.36 940.79,1012.88 929.02,1013.1 C928.216726,1013.10567 927.420912,1013.25467 926.67,1013.54 C917.36,1017.2 852.36,1042.77 840.99,1047.54 C828.75,1052.7 822.99,1045.47 822.99,1037.21 C822.99,1028.95 828.74,1011.57 828.74,1011.57 L846.43,1008.84 Z" id="Path" fill="#A67C52" fill-rule="nonzero"></path>
                <path d="M935.46,995.14 L942.34,973.48 L953,973.48 L948.24,991.12 C948.24,991.12 937.15,996 935.46,995.14 Z" id="Path" fill="#000000" fill-rule="nonzero"></path>
                <path d="M819.88,1017.9 C819.502662,1017.99405 819.10502,1017.86081 818.860522,1017.55841 C818.616023,1017.256 818.569014,1016.83928 818.74,1016.49 C820.97,1010.59 828.66,990.18 832.2,980.96 C836.37,970.13 842.11,961.87 849.4,963.96 C856.69,966.05 856.7,976.13 854.09,991.46 C851.97,1003.95 850.89,1011.06 850.56,1013.27 C850.516428,1013.73158 850.142815,1014.09246 849.68,1014.12 L819.88,1017.9 Z" id="Path" fill="url(#linearGradient-5)" fill-rule="nonzero"></path>
                <path d="M891.25,932.83 C895.16,934.64 896.34,936.32 896.34,936.32 C902.062613,931.04161 909.554828,928.09824 917.34,928.07 C917.91,928.01 918.42,927.85 918.47,927.28 C918.89,922.28 920.84,901.14 923.59,894.77 C923.59,894.77 903.33,879.54 900.4,870.25 C897.47,860.96 881.22,859 872.23,885 C863.24,911 864,906.83 860.5,924.45 C857,942.07 860.5,950 860.5,950 C866.368017,949.558048 872.151646,948.340796 877.7,946.38 C888.78,942.25 891.25,938.77 891.25,938.77 L891.25,932.83 Z" id="Path" fill="#A67C52" fill-rule="nonzero"></path>
                <polygon id="Path" fill="#422607" fill-rule="nonzero" points="916.04 907.01 916.04 909.73 912.94 909.73 912.94 912.71 909.84 912.71 909.84 907.01"></polygon>
                <path d="M863.22,955.21 C863.213772,955.366397 863.136073,955.511273 863.009236,955.602986 C862.882399,955.694699 862.720473,955.723091 862.57,955.68 C779.57,939.93 781.23,867.07 815.93,835.03 C830.61,821.48 847.38,817.42 861.35,817.03 C881.73,816.47 901.35,825.55 914.74,840.75 C938.13,867.24 932.62,895.48 931.74,899.24 C931.671267,899.503265 931.404637,899.663242 931.14,899.6 C899.29,895.55 886.21,883.69 883.14,880.39 C883.012419,880.240809 882.808114,880.182158 882.620824,880.240958 C882.433535,880.299759 882.299414,880.464659 882.28,880.66 C881.87,883.89 880.02,893.82 871.97,907.66 C862.87,923.32 863.12,950.83 863.22,955.21 Z" id="Path" fill="#4D4D4D" fill-rule="nonzero"></path>
                <path d="M1392.19,765.23 C1385.94,760.38 1378.01,758.09 1372.03,752.92 C1365.94827,747.796008 1360.90118,741.557572 1357.16,734.54 C1346.79,714.25 1348.54,647.85 1406.25,639.8 C1446.95,634.12 1476.05,664.57 1481.76,701.22 C1487.47,737.87 1520.83,749.75 1535.95,779.68 C1551.07,809.61 1521.87,874.68 1473.95,865.87 C1426.03,857.06 1433.11,797.49 1416.64,788.19 C1405.93,782.15 1397.67,769.5 1392.19,765.23 Z" id="Path" fill="#D64B1B" fill-rule="nonzero"></path>
                <path d="M1360,967 C1360,967 1453.82,964.68 1485.09,967" id="Path"></path>
                <polyline id="Path" fill="#FFD7CC" fill-rule="nonzero" points="1426.97 793.05 1426.97 809.15 1406.25 809.15 1406.25 803.94 1406.25 793.33"></polyline>
                <path d="M1451,886.39 C1447.72,891.83 1430.62,904.81 1418.22,920.96 C1416.8,922.8 1416.89,927.19 1416.89,929.47 L1417.15,966.15 C1400.4,966.23 1384.63,966.5 1374.15,966.76 C1372.15,950.53 1371.22,938.76 1371.22,928.33 C1371.22,908.67 1347.03,898.93 1351.46,879.81 C1354.65,865.81 1363.25,826.46 1373.88,813.21 C1383.72,800.84 1400.46,803.38 1400.46,803.38 C1400.46,803.38 1411.98,804.52 1421.82,804.61 C1427.49,809.61 1436.44,819 1440.07,830.76 C1445.53,848.57 1456.52,877.26 1451,886.39 Z" id="Path" fill="url(#linearGradient-6)" fill-rule="nonzero"></path>
                <path d="M1480.77,895.25 C1478.91,899.11 1472.35,907.09 1467.66,912.62 C1464.41011,916.490732 1462.73266,921.440971 1462.96,926.49 C1463.22835,939.740606 1462.56002,952.993613 1460.96,966.15 C1447.4,965.97 1431.45,965.97 1416.21,966.15 L1416.03,947.15 C1416.44181,947.228055 1416.86126,947.258255 1417.28,947.24 C1427.38,947.24 1435.62,940.05 1435.62,931.18 C1435.62,923.64 1429.62,917.32 1421.62,915.65 C1433.27,902 1447.1,891.21 1450,886.39 C1455.5,877.26 1444.51,848.57 1439.1,830.76 C1435.47,819 1426.52,809.61 1420.85,804.61 C1423.89964,804.660229 1426.94933,804.513256 1429.98,804.17 C1437.24,803.17 1451.07,801.63 1458.86,810.17 C1466.86,818.85 1472.24,840.97 1475.79,856.32 C1479,869.72 1483.87,889.11 1480.77,895.25 Z" id="Path" fill="url(#linearGradient-7)" fill-rule="nonzero"></path>
                <path d="M1460.92,966.15 C1458.53,986.5 1454.92,1004.93 1453.12,1016.6 C1450,1037.07 1436.18,1138.37 1436,1139.78 C1436,1139.78 1436,1139.78 1435.93,1139.78 C1424.37,1135.72 1417.69,1145.07 1417.69,1145.07 L1416.18,966.16 C1431.41,966 1447.36,966 1460.92,966.15 Z" id="Path" fill="#B0DAFF" fill-rule="nonzero"></path>
                <path d="M1417.68,1145.06 C1414.05,1138.91 1401.87,1140.96 1401.87,1140.96 C1401.87,1140.96 1389.06,1071.26 1381.26,1021.78 C1377.63,998.61 1374.88,980.97 1373.2,966.78 C1383.65,966.52 1399.42,966.25 1416.2,966.17 L1417.68,1145.06 Z" id="Path" fill="#CCE7FF" fill-rule="nonzero"></path>
                <path d="M1435.58,931.22 C1435.58,940.09 1427.34,947.28 1417.24,947.28 C1416.82126,947.298255 1416.40181,947.268055 1415.99,947.19 L1415.91,929.47 C1415.91,927.19 1415.82,922.8 1417.24,920.96 C1418.66,919.12 1420.07,917.36 1421.58,915.69 C1429.55,917.36 1435.58,923.68 1435.58,931.22 Z" id="Path" fill="#FFDCC3" fill-rule="nonzero"></path>
                <path d="M1417.24,921 C1415.82,922.84 1415.91,927.23 1415.91,929.51 L1415.99,947.23 C1406.34,946.71 1398.8,939.78 1398.8,931.23 C1398.8,922.37 1407.05,915.18 1417.24,915.18 C1418.70248,915.175387 1420.16001,915.350022 1421.58,915.7 C1420.07,917.36 1418.65,919.12 1417.24,921 Z" id="Path" fill="#FFE6DF" fill-rule="nonzero"></path>
                <path d="M1406.81,891.54 L1426.43,891.54 C1426.73376,891.54 1426.98,891.786243 1426.98,892.09 L1426.98,921.62 C1426.98,922.106011 1426.58601,922.5 1426.1,922.5 L1407.1,922.5 C1406.61399,922.5 1406.22,922.106011 1406.22,921.62 L1406.22,892.1 C1406.21677,891.945199 1406.27894,891.796208 1406.39125,891.689616 C1406.50355,891.583024 1406.65558,891.528706 1406.81,891.54 Z" id="Path" fill="#333333" fill-rule="nonzero"></path>
                <path d="M1418.12,1153.8 L1418.12,1158 L1394.81,1158 C1394.63,1156.59 1394.54,1155.19 1394.46,1153.87 C1399.33,1153.8 1408.72,1153.8 1418.12,1153.8 Z" id="Path" fill="#FFFFFF" fill-rule="nonzero"></path>
                <path d="M1441.77,1153.89 C1441.77,1155.21 1441.69,1156.52 1441.6,1158.02 L1418.12,1158.02 L1418.12,1153.8 C1427.42,1153.8 1436.81,1153.89 1441.77,1153.89 Z" id="Path" fill="#FFFFFF" fill-rule="nonzero"></path>
                <path d="M1441.77,1153.89 C1436.77,1153.89 1427.42,1153.8 1418.12,1153.8 L1418.12,1144.06 C1421.3183,1140.06558 1426.31686,1137.95558 1431.41,1138.45 C1439.2,1139.24 1441.77,1144.06 1441.77,1153.89 Z" id="Path" fill="#D0021B" fill-rule="nonzero"></path>
                <path d="M1418.12,1144.06 L1418.12,1153.8 C1408.72,1153.8 1399.33,1153.8 1394.46,1153.89 C1394.28,1143.54 1399.06,1138.27 1406.06,1138.36 C1410.71292,1138.43612 1415.10748,1140.51315 1418.12,1144.06 Z" id="Path" fill="#FE5C70" fill-rule="nonzero"></path>
                <path d="M1460,756.55101 C1450.08,778.49101 1430.76,795.25101 1415,795.42101 L1415,660.03101 C1415.09,659.95101 1415.17,660.03101 1415.17,660.21101 C1416.06,670.04101 1422.44,706.01101 1467.81,707.77101 C1467.8,707.77101 1472.09,729.97101 1460,756.55101 Z" id="Path" fill="#FED8CE" fill-rule="nonzero"></path>
                <path d="M1415.9,660.18 L1415.9,795.57 C1412.53534,795.674543 1409.20282,794.887985 1406.24,793.29 C1387.36,783 1361.31,758 1364.41,706.86 C1364.41,706.86 1408.81,704.41 1415.54,660.45 C1415.63,660.18 1415.72,660.1 1415.9,660.18 Z" id="Path" fill="#FFE5DE" fill-rule="nonzero"></path>
                <path d="M1377.75,720.44 C1377.51583,720.437625 1377.2833,720.400555 1377.06,720.33 C1376.508,720.15546 1376.0481,719.768521 1375.78172,719.254512 C1375.51533,718.740503 1375.46435,718.141644 1375.64,717.59 C1375.64,717.47 1379.55,705.93 1394.89,709.14 C1395.4611,709.257738 1395.96167,709.598371 1396.28077,710.086417 C1396.59988,710.574463 1396.71118,711.169619 1396.59,711.74 C1396.32098,712.921676 1395.15747,713.672185 1393.97,713.43 C1382.84,711.1 1380.13,718.12 1379.85,718.93 C1379.54321,719.829344 1378.70022,720.435493 1377.75,720.44 L1377.75,720.44 Z" id="Path" fill="#D64B10" fill-rule="nonzero"></path>
                <ellipse id="Oval" fill="#333333" fill-rule="nonzero" transform="translate(1392.303709, 729.187640) rotate(-7.920000) translate(-1392.303709, -729.187640) " cx="1392.30371" cy="729.18764" rx="5.28" ry="7.09"></ellipse>
                <path d="M1455.29,720.44 C1455.52417,720.437625 1455.7567,720.400555 1455.98,720.33 C1456.532,720.15546 1456.9919,719.768521 1457.25828,719.254512 C1457.52467,718.740503 1457.57565,718.141644 1457.4,717.59 C1457.4,717.47 1453.49,705.93 1438.15,709.14 C1437.5784,709.257908 1437.07707,709.598115 1436.75636,710.085741 C1436.43565,710.573368 1436.32185,711.168446 1436.44,711.74 C1436.71367,712.923081 1437.88017,713.672661 1439.07,713.43 C1450.2,711.1 1452.91,718.12 1453.18,718.93 C1453.49307,719.829019 1454.33805,720.433718 1455.29,720.44 Z" id="Path" fill="#D64B10" fill-rule="nonzero"></path>
                <ellipse id="Oval" fill="#333333" fill-rule="nonzero" transform="translate(1442.470600, 730.289700) rotate(-81.950938) translate(-1442.470600, -730.289700) " cx="1442.4706" cy="730.2897" rx="7.08893642" ry="5.27920794"></ellipse>
                <path d="M1414.23,771.93 C1414.23,771.93 1406.54,770.38 1400.74,770.93 C1394.94,771.48 1403.81,779.44 1414.23,779.7 C1424.65,779.96 1429.61,775.31 1430.39,771.96 C1431.17,768.61 1418.35,772.58 1414.23,771.93 Z" id="Path" fill="#FF3B00" fill-rule="nonzero"></path>
                <polygon id="Path" fill="#FFFFFF" fill-rule="nonzero" points="969.67 765.9 969.67 853.9 992.9 826.521736 1157.07 826.521736 1157.07 765.9"></polygon>
                <rect id="Rectangle" fill="#E6E6E6" fill-rule="nonzero" x="978.61" y="788.44" width="112.21" height="11.36"></rect>
                <rect id="Rectangle" fill="#E6E6E6" fill-rule="nonzero" x="978.61" y="772.22" width="53.87" height="10.72"></rect>
                <circle id="Oval" fill="url(#linearGradient-8)" fill-rule="nonzero" cx="1105.97" cy="815.18" r="8"></circle>
                <circle id="Oval" fill="url(#linearGradient-9)" fill-rule="nonzero" cx="1125" cy="815" r="8"></circle>
                <circle id="Oval" fill="#E6E6E6" fill-rule="nonzero" cx="1145" cy="815" r="8"></circle>
                <circle id="Oval" fill-opacity="0.5" fill="#E6E6E6" fill-rule="nonzero" cx="1417" cy="906" r="2"></circle>
                <polygon id="Path" fill="#FFFFFF" fill-rule="nonzero" points="1324.31 668.74 1324.31 768.74 1296.58 737.632593 1100.65 737.632593 1100.65 668.74"></polygon>
                <rect id="Rectangle" fill="#E6E6E6" fill-rule="nonzero" transform="translate(1172.840000, 700.595000) rotate(-180.000000) translate(-1172.840000, -700.595000) " x="1109.33" y="694.37" width="127.02" height="12.45"></rect>
                <rect id="Rectangle" fill="#E6E6E6" fill-rule="nonzero" transform="translate(1141.020000, 682.625000) rotate(-180.000000) translate(-1141.020000, -682.625000) " x="1109.95" y="676.64" width="62.14" height="11.97"></rect>
                <circle id="Oval" fill="#E6E6E6" fill-rule="nonzero" cx="1282.65" cy="723" r="8"></circle>
                <circle id="Oval" fill="#E6E6E6" fill-rule="nonzero" cx="1263.33" cy="723" r="8"></circle>
                <circle id="Oval" fill="#E6E6E6" fill-rule="nonzero" cx="1244" cy="723" r="8"></circle>
                <path d="M940.87,1040.74 C970.621579,1040.74 994.74,1016.62158 994.74,986.87 C994.74,957.118421 970.621579,933 940.87,933 C911.118421,933 887,957.118421 887,986.87 C887,1016.62158 911.118421,1040.74 940.87,1040.74 Z" id="Oval" stroke="url(#linearGradient-10)" stroke-width="3.4" stroke-linecap="round" stroke-dasharray="4"></path>
                <path d="M1420.4,969.24 C1447.6663,969.24 1469.77,947.136298 1469.77,919.87 C1469.77,892.603702 1447.6663,870.5 1420.4,870.5 C1393.1337,870.5 1371.03,892.603702 1371.03,919.87 C1371.03,947.136298 1393.1337,969.24 1420.4,969.24 Z" id="Oval" stroke="url(#linearGradient-10)" stroke-width="3.4" stroke-linecap="round" stroke-dasharray="4"></path>
                <path d="M999.5,981.5 L1366.5,926.5" id="Path" stroke="url(#linearGradient-11)" stroke-width="3.4" stroke-linecap="round" stroke-dasharray="4"></path>
            </g>
        </g>
    </g>
</svg>