<?xml version="1.0" encoding="UTF-8"?>
<svg width="2837px" height="1207px" viewBox="0 0 2837 1207" version="1.1" xmlns="http://www.w3.org/2000/svg" xmlns:xlink="http://www.w3.org/1999/xlink">
    <!-- Generator: Sketch 54.1 (76490) - https://sketchapp.com -->
    <title>vector 3-HD</title>
    <desc>Created with Sketch.</desc>
    <defs>
        <linearGradient x1="49.9952002%" y1="88.2044793%" x2="49.9952002%" y2="22.4444444%" id="linearGradient-1">
            <stop stop-color="#7FEAED" stop-opacity="0.8" offset="0%"></stop>
            <stop stop-color="#C3F6FE" stop-opacity="0.58" offset="54.6234131%"></stop>
            <stop stop-color="#C3F6FE" stop-opacity="0" offset="100%"></stop>
        </linearGradient>
        <linearGradient x1="43.2585607%" y1="0.117135096%" x2="51.8055307%" y2="106.899291%" id="linearGradient-2">
            <stop stop-color="#818181" offset="1%"></stop>
            <stop stop-color="#8D8D8D" offset="11%"></stop>
            <stop stop-color="#AEAEAE" offset="29%"></stop>
            <stop stop-color="#AFAFAF" offset="30%"></stop>
            <stop stop-color="#818181" offset="58%"></stop>
        </linearGradient>
        <linearGradient x1="46.483942%" y1="-9.3295694%" x2="55.9027007%" y2="192.018026%" id="linearGradient-3">
            <stop stop-color="#D8BFFF" offset="29%"></stop>
            <stop stop-color="#B49AE0" offset="47%"></stop>
        </linearGradient>
        <linearGradient x1="-0.0457456542%" y1="50.1897533%" x2="100%" y2="50.1897533%" id="linearGradient-4">
            <stop stop-color="#CCE7FF" offset="0%"></stop>
            <stop stop-color="#C7E4FF" offset="11%"></stop>
            <stop stop-color="#BADBFF" offset="23%"></stop>
            <stop stop-color="#AED3FF" offset="30%"></stop>
            <stop stop-color="#BDDDFF" offset="37%"></stop>
            <stop stop-color="#CCE7FF" offset="43%"></stop>
            <stop stop-color="#A7CEFF" offset="82%"></stop>
        </linearGradient>
        <linearGradient x1="57.6798683%" y1="45.8821256%" x2="45.4069721%" y2="59.0296183%" id="linearGradient-5">
            <stop stop-color="#000000" offset="0%"></stop>
            <stop stop-color="#3588BE" offset="100%"></stop>
        </linearGradient>
        <linearGradient x1="50%" y1="0%" x2="50%" y2="100%" id="linearGradient-6">
            <stop stop-color="#65BDE0" offset="0%"></stop>
            <stop stop-color="#3588BE" offset="100%"></stop>
        </linearGradient>
        <linearGradient x1="-18.8415911%" y1="67.4831145%" x2="106.559665%" y2="36.448%" id="linearGradient-7">
            <stop stop-color="#818181" offset="1%"></stop>
            <stop stop-color="#7F7F7F" offset="42%"></stop>
            <stop stop-color="#787879" offset="59%"></stop>
            <stop stop-color="#6C6B6E" offset="73%"></stop>
            <stop stop-color="#5B595F" offset="84%"></stop>
            <stop stop-color="#45424B" offset="93%"></stop>
            <stop stop-color="#413E47" offset="95%"></stop>
        </linearGradient>
        <linearGradient x1="50%" y1="0%" x2="50%" y2="100%" id="linearGradient-8">
            <stop stop-color="#F6B275" offset="0%"></stop>
            <stop stop-color="#8B572A" offset="100%"></stop>
        </linearGradient>
        <linearGradient x1="50%" y1="0%" x2="50%" y2="100%" id="linearGradient-9">
            <stop stop-color="#F6B275" offset="0%"></stop>
            <stop stop-color="#8B572A" offset="100%"></stop>
        </linearGradient>
        <linearGradient x1="50%" y1="0%" x2="50%" y2="100%" id="linearGradient-10">
            <stop stop-color="#FFB75B" offset="0%"></stop>
            <stop stop-color="#4A2F17" offset="100%"></stop>
        </linearGradient>
        <linearGradient x1="59.7183554%" y1="14.841355%" x2="32.1705956%" y2="92.8399916%" id="linearGradient-11">
            <stop stop-color="#D6F16F" offset="0.0897381757%"></stop>
            <stop stop-color="#81F8A9" offset="100%"></stop>
        </linearGradient>
        <linearGradient x1="31.0367233%" y1="69.7611845%" x2="62.972179%" y2="26.3422446%" id="linearGradient-12">
            <stop stop-color="#DBCD2C" offset="0%"></stop>
            <stop stop-color="#93F79E" offset="100%"></stop>
        </linearGradient>
        <linearGradient x1="50%" y1="0%" x2="50%" y2="100%" id="linearGradient-13">
            <stop stop-color="#FFEBA0" offset="0%"></stop>
            <stop stop-color="#FBAA7C" offset="100%"></stop>
        </linearGradient>
        <linearGradient x1="50%" y1="0%" x2="50%" y2="100%" id="linearGradient-14">
            <stop stop-color="#F9D862" offset="0%"></stop>
            <stop stop-color="#F58241" offset="100%"></stop>
        </linearGradient>
    </defs>
    <g id="Page-1" stroke="none" stroke-width="1" fill="none" fill-rule="evenodd">
        <g id="vector-3-HD" transform="translate(0.000000, -289.000000)">
            <g id="Group">
                <path d="M1419.55855,1250.1638 C2032.87076,1250.1638 2529.12,1439.75726 2529.12,927.679752 C2529.12,415.602242 2031.93221,0.481400485 1418.62,0.481400485 C805.307785,0.481400485 308.12,415.602242 308.12,927.679752 C308.12,1439.75726 806.246333,1250.1638 1419.55855,1250.1638 Z" id="Oval-Copy" fill="url(#linearGradient-1)" fill-rule="nonzero"></path>
                <polygon id="Path" fill="#9900FF" fill-rule="nonzero" points="949.63 966.25 949.63 945.95 952.82 945.95"></polygon>
                <polygon id="Path" fill="#9900FF" fill-rule="nonzero" points="960.48 968.22 970.82 957.31 968.52 956.1"></polygon>
                <ellipse id="Oval" fill="#F2F2F2" fill-rule="nonzero" cx="1418.68" cy="1159.03" rx="1418.23" ry="257.04"></ellipse>
                <ellipse id="Oval" fill="#EDEBEB" fill-rule="nonzero" cx="1418.68" cy="1159.03" rx="1110.66" ry="201.29"></ellipse>
                <ellipse id="Oval" fill-opacity="0.351195435" fill="#CFCFCF" fill-rule="nonzero" cx="1423.13" cy="1163.68" rx="781.55" ry="147.1"></ellipse>
                <path d="M2070.45717,1472.20633 L2070.86986,1467.56778 C2071.35133,1467.56778 2122.66261,1471.49271 2148.90289,1467.56778 C2155.78108,1466.52979 2159.94238,1463.12386 2160.38946,1457.83656 C2160.97411,1450.60302 2153.95836,1440.51498 2141.61201,1436.78468 L2137.76023,1435.64937 C2127.44295,1432.63269 2114.54635,1428.90239 2110.45382,1420.7606 C2108.61317,1416.9257 2108.61317,1412.52878 2110.45382,1408.69388 C2117.33201,1393.1888 2136.76289,1393.80511 2155.78108,1394.45386 C2167.64595,1394.81067 2178.85739,1395.16748 2186.07949,1391.66424 C2195.537,1387.09057 2200.24856,1381.93302 2200.11099,1376.64572 C2199.87026,1368.50393 2188.21173,1358.77271 2168.88402,1350.69579 C2138.27609,1337.72083 2137.38193,1310.27878 2136.24703,1275.53831 C2136.00629,1269.05083 2135.79994,1262.56334 2135.38725,1255.91367 C2133.39258,1222.56802 2113.23949,1207.61437 2095.45938,1194.28259 C2090.64465,1190.71448 2086.13943,1187.34099 2082.04691,1183.74043 C2061.82504,1165.86742 2069.28788,1116.10843 2069.59739,1114 L2074.44652,1114.68119 C2074.44652,1115.16775 2067.05246,1164.1158 2085.38283,1180.36694 C2089.33779,1183.83775 2093.77422,1187.14636 2098.48578,1190.6496 C2117.09127,1204.46794 2138.17292,1220.10277 2140.30516,1255.52443 C2140.71785,1262.33628 2140.92419,1268.92108 2141.13054,1275.24637 C2142.26544,1309.6949 2143.09082,1334.5744 2170.91309,1346.34918 C2183.46578,1351.66891 2204.6162,1362.56788 2204.9945,1376.48353 C2205.20085,1383.81439 2199.59513,1390.30187 2188.34929,1395.75135 C2179.9579,1399.80603 2168.12742,1399.41678 2155.60912,1398.9951 C2137.51949,1398.41122 2120.4272,1397.85979 2115.02782,1410.38063 C2113.63163,1412.98171 2113.51844,1416.03021 2114.7183,1418.71704 C2117.88227,1425.0099 2129.60958,1428.44827 2139.03269,1431.17301 L2142.91887,1432.30832 C2157.74136,1436.78468 2165.85762,1448.94871 2165.10102,1458.25825 C2164.48198,1465.65398 2158.80748,1470.68177 2149.48754,1472.04415 C2138.6729,1473.43784 2127.76516,1474.0883 2116.85054,1473.99039 C2094.15252,1473.99039 2071.8672,1472.30365 2070.45717,1472.20633 Z" id="Path" fill="url(#linearGradient-2)" fill-rule="nonzero"></path>
                <path d="M1965.1022,1116.57045 C1950.9103,1073.58362 1975.66918,1032.79959 2006.75456,1023.08139 C2035.8565,1013.97868 2061.12833,1025.38136 2072.72123,1052.81907 C2084.51931,1080.7427 2076.14096,1113.84936 2075.76479,1115.2423 C2075.28318,1117.10293 2073.30045,1118.24144 2071.33623,1117.78522 C2069.37202,1117.32901 2068.17013,1115.45084 2068.65174,1113.5902 C2068.65174,1113.26626 2076.82491,1081.19621 2065.91596,1055.28102 C2055.65675,1031.21228 2034.557,1021.59127 2009.04578,1029.56019 C1984.45789,1037.23757 1958.50211,1073.22729 1972.07846,1114.36766 C1972.37737,1115.24391 1972.29221,1116.19717 1971.84209,1117.01337 C1971.39198,1117.82958 1970.61465,1118.44032 1969.68464,1118.70845 C1969.31551,1118.86253 1968.92319,1118.9609 1968.52193,1119 C1966.94923,1118.97062 1965.57233,1117.9924 1965.1022,1116.57045 Z" id="Path" fill="url(#linearGradient-3)" fill-rule="nonzero"></path>
                <path d="M1676,1407.07696 C1673.64409,1407.07696 1671.35748,1407.53371 1669.27874,1407.7947 C1648.49134,1410.60043 1639.62205,1413.30829 1637.26614,1398.49665 C1634.91024,1383.68501 1632,1330.63716 1632,1330.63716 C1632,1330.63716 1643.08661,1326.26544 1647.72913,1340.42459 C1652.37165,1354.58373 1651.1937,1365.02365 1660.58268,1372.72309 C1663.78665,1375.58714 1667.87625,1377.41553 1672.25827,1377.94305 C1674.0269,1387.58866 1675.27574,1397.31241 1676,1407.07696 Z" id="Path" fill="#C69C6D" fill-rule="nonzero"></path>
                <path d="M1898,1387.74194 L1890.52181,1388.3871 C1866.22629,1390.48387 1789.72126,1397.22581 1762.25526,1399.16129 L1761.18695,1399.16129 C1754.60476,1399.64516 1747.71241,1400.09677 1740.71668,1400.54839 C1717.31717,1402.12903 1692.47027,1404.06452 1675.72187,1406 C1674.99914,1396.3668 1673.75694,1386.77392 1672,1377.25806 C1677.41049,1378 1683.51022,1376.6129 1692.16011,1374.77419 C1698.36322,1373.3871 1720.76334,1367.87097 1745.95486,1361.41935 L1781.07136,1352.25806 C1796.8893,1348.03226 1811.43214,1344.06452 1821.18481,1341.22581 C1825.80268,1339.93548 1829.35224,1338.80645 1831.52333,1338 L1898,1387.74194 Z" id="Path" fill="url(#linearGradient-4)" fill-rule="nonzero"></path>
                <path d="M1761.48326,1432.86006 C1754.24021,1432.86006 1690.44568,1439.56503 1685.74467,1438.96158 C1681.04365,1438.35813 1676.41228,1425.55165 1700.96203,1418.84669 C1713.59778,1415.44356 1726.0355,1411.39245 1738.22193,1406.71071 C1739.47953,1406.23121 1740.33493,1405.09396 1740.41574,1403.79405 C1740.41574,1402.75478 1740.72914,1401.68199 1740.79879,1400.44157 C1747.76325,1399.97222 1754.72772,1399.50287 1761.48326,1399 L1762.56275,1399 C1761.90541,1405.66816 1762.65155,1412.39546 1764.75656,1418.77964 C1767.64681,1426.62445 1768.83077,1432.86006 1761.48326,1432.86006 Z" id="Path" fill="#C69C6D" fill-rule="nonzero"></path>
                <path d="M1991,1340.52695 C1970.88248,1380.13939 1951.04291,1383.28633 1951.04291,1383.28633 C1939.85493,1386.9199 1913.17054,1392.72713 1890.9683,1388.76913 C1884.08903,1387.72662 1877.52686,1385.32659 1871.71941,1381.72908 C1863.20681,1376.18139 1839.68425,1356.91047 1821.06077,1341.27313 C1811.22785,1333.13003 1802.71525,1325.89533 1798.54582,1322.39152 C1797.93751,1321.89734 1797.1039,1321.72177 1796.3273,1321.92429 C1795.5507,1322.1268 1794.93514,1322.68027 1794.68909,1323.39724 C1791.49252,1331.34569 1786.24599,1341.72733 1780.79097,1352.36851 C1776.72578,1360.34939 1772.34787,1368.39516 1768.66487,1375.69475 C1764.76275,1383.18726 1762.40538,1391.29845 1761.71581,1399.60497 L1760.6387,1399.60497 C1754.00235,1400.09161 1747.05329,1400.5458 1740,1401 C1741.32032,1390.6508 1742.9881,1376.5707 1745.17705,1361.6471 C1750.04139,1326.73883 1756.88621,1287.02906 1765.01661,1278.69131 C1777.31645,1266.2009 1800.59579,1263.41083 1821.61669,1277.03674 C1840.44864,1289.2676 1871.4067,1311.4908 1877.66085,1315.96788 C1877.93132,1316.2019 1878.30088,1316.30869 1878.66563,1316.25824 C1879.03038,1316.20778 1879.35092,1316.00552 1879.5371,1315.70834 C1883.9845,1309.21982 1889.05731,1302.01756 1894.79028,1293.93934 C1915.25526,1302.82862 1966.71304,1325.3438 1991,1340.52695 Z" id="Path" fill="#CCE7FF" fill-rule="nonzero"></path>
                <path d="M2126.52514,1364.79577 C2120.9413,1367.64821 2113.94428,1361.91091 2104.39662,1365.60612 C2094.95041,1369.27966 2084.68013,1370.68328 2074.51277,1369.6903 C2067.92936,1368.55581 2064.79277,1358.83157 2064,1355.59016 C2072.4449,1356.07507 2080.91306,1355.10846 2088.98937,1352.73772 C2097.7237,1351.54698 2106.61201,1351.79927 2115.25407,1353.48324 C2119.63152,1354.61774 2132.28131,1362.07298 2126.52514,1364.79577 Z" id="Path" fill="#E8C7BE" fill-rule="nonzero"></path>
                <path d="M2067.76525,1353.25153 C2065.62415,1356.55383 2051.22352,1358.63427 2044.73114,1355.33198 C2041.27775,1353.51571 2040.06907,1347.6046 2040,1345.12787 C2040.03844,1345.04365 2040.03844,1344.94791 2040,1344.86369 C2048.84978,1345.23064 2057.68791,1343.91746 2066.00402,1341 C2067.76525,1347.86878 2068.38686,1352.492 2067.76525,1353.25153 Z" id="Path" fill="#E8C7BE" fill-rule="nonzero"></path>
                <path d="M2066,1340.1545 C2057.87002,1343.01367 2049.2297,1344.30061 2040.57799,1343.941 C2040.50541,1343.2741 2040.33492,1342.62038 2040.07157,1341.9992 C2039.22755,1339.86323 2036.99932,1334.4262 2033.04929,1325.2674 C2023.42741,1303.00148 2016,1277.98468 2016,1277.98468 L2038.9237,1243 L2047.02633,1267.36953 C2047.02633,1267.36953 2060.96962,1316.69113 2066,1340.1545 Z" id="Path" fill="url(#linearGradient-5)" fill-rule="nonzero"></path>
                <path d="M2013.05009,1160.12875 C2013.05009,1160.12875 2013.36311,1169.06202 2013.05009,1172.70628 C2012.73707,1176.35053 2006.72021,1174.77028 2005.05079,1174.60903 C2003.38137,1174.44778 2001.57283,1188.02506 2017.81489,1190.73406 C2027.8593,1192.05729 2037.91357,1188.38199 2044.28216,1181.05904 C2048.87306,1176.02803 2051.23807,1171.96453 2038.99566,1173.80278 C2037.11756,1174.38328 2032.56144,1175.41528 2032.49188,1170.57777 C2032.42232,1165.74026 2032.49188,1159 2032.49188,1159 L2013.05009,1160.12875 Z" id="Path" fill="#E7C7BE" fill-rule="nonzero"></path>
                <path d="M2063.69931,1354.89963 C2063.61261,1354.79498 2063.55338,1354.67261 2063.52642,1354.54245 C2062.72516,1350.32942 2061.69802,1346.15704 2060.44892,1342.04122 C2054.05187,1318.40253 2039.42511,1270.86537 2036.24387,1261.31898 C2034.06542,1254.82483 2026.59643,1266.12465 2017.01815,1284.66543 C2009.03049,1299.86174 1999.72884,1319.96112 1990.46176,1338.69674 C1990.19621,1339.3278 1989.89613,1339.94557 1989.56272,1340.54757 C1965.59972,1325.48115 1915.08034,1303.23869 1894.29858,1294.27677 C1894.15947,1294.20904 1894.05747,1294.08908 1894.01792,1293.9467 C1893.97836,1293.80432 1894.00496,1293.65286 1894.09111,1293.52995 C1903.18529,1280.54165 1913.73177,1265.18299 1924.83151,1248.23327 C1943.40024,1219.88632 1964.32031,1188.74689 1977.52935,1179.75249 C1985.64989,1174.81056 1995.41781,1172.83513 2004.98479,1174.2 C2006.65273,1174.41085 2007.97483,1175.62593 2008.23518,1177.18731 C2009.13565,1183.74484 2015.44429,1188.42932 2022.447,1187.74029 C2035.5523,1187.74029 2038.80269,1179.84991 2039.49427,1175.23906 C2040.00198,1172.82784 2041.91585,1170.89239 2044.43901,1170.23857 C2051.63333,1168.13419 2059.41595,1168.72769 2066.15439,1171.89458 C2079.98585,1178.38872 2080.57368,1207.61238 2080.95405,1247.51892 C2081.43815,1285.93179 2083.7895,1348.17819 2083.99697,1353.43845 C2084.02317,1353.65816 2083.87724,1353.86372 2083.65118,1353.92551 C2077.23135,1355.94288 2070.393,1356.49934 2063.69931,1355.54905 C2063.69931,1355.28928 2063.52642,1354.99704 2063.69931,1354.89963 Z" id="Path" fill="url(#linearGradient-6)" fill-rule="nonzero"></path>
                <path d="M1980.33709,1131.12363 C1969.96408,1115.22143 1965.94472,1096.3869 1968.99368,1077.9689 C1973.62788,1045.78436 2009.24897,1030 2022.49448,1030 C2038.64501,1030 2064.20227,1038.16768 2074.05859,1075.18152 C2083.91491,1112.19536 2072.91733,1107.23642 2066.79604,1106.19925 C2058.19106,1105.00284 2049.421,1105.36594 2040.96211,1107.26883 C2031.69371,1109.44039 1989.29424,1106.71783 1987.56506,1114.88551 C1985.83588,1123.05319 1988.91382,1135.40194 1980.33709,1131.12363 Z" id="Path" fill="#4D4D4D" fill-rule="nonzero"></path>
                <path d="M2066,1106.39145 C2066,1118.93868 2057.38626,1142.14779 2040.09014,1155.1501 C2022.79402,1168.1524 2001.20819,1164.90182 1987.37816,1146.146 C1973.54812,1127.39017 1977.73488,1103.66097 1982.77958,1078.76155 C1982.82314,1078.45247 1983.03656,1078.18848 1983.34023,1078.06808 C1983.6439,1077.94767 1983.99222,1077.98892 1984.25525,1078.17645 C1991.73042,1083.01003 1998.84005,1088.33226 2005.53222,1094.10427 C2013.52824,1101.35306 2022.27925,1096.99729 2023.51469,1088.51328 C2023.54284,1088.17184 2023.7781,1087.87709 2024.11726,1087.75837 C2024.45641,1087.63965 2024.8375,1087.71864 2025.09331,1087.96068 C2036.34727,1098.02063 2050.65945,1104.46908 2066,1106.39145 Z" id="Path" fill="#E8D4D0" fill-rule="nonzero"></path>
                <path d="M2019.82757,1155.76038 C2019.20588,1155.5283 2018.86969,1154.89396 2019.0473,1154.28811 C2019.2249,1153.68227 2019.85939,1153.299 2020.51992,1153.39857 C2024.90188,1154.33527 2029.29048,1151.85884 2030.46803,1147.785 C2030.73811,1147.16818 2031.47119,1146.85382 2032.14426,1147.06618 C2032.47281,1147.17372 2032.74033,1147.40267 2032.88482,1147.69996 C2033.02931,1147.99726 2033.03822,1148.3371 2032.9095,1148.64072 C2031.53575,1153.00849 2027.26336,1156.00444 2022.4148,1155.99999 C2021.54605,1156.00124 2020.67933,1155.92097 2019.82757,1155.76038 Z" id="Path" fill="#0E0D0D" fill-rule="nonzero"></path>
                <path d="M2018.43708,1144.97495 C2015.53983,1144.39285 2013.60031,1141.39786 2014.07012,1138.23156 C2014.25594,1128.99312 2014.07012,1116.11326 2014.07012,1115.97839 C2014.06171,1115.72222 2014.14935,1115.47334 2014.3129,1115.28893 C2014.47645,1115.10452 2014.70185,1115.00044 2014.93731,1115.0006 C2015.17263,1114.99145 2015.40124,1115.08686 2015.57064,1115.26491 C2015.74003,1115.44296 2015.83563,1115.68834 2015.83548,1115.94468 C2015.83548,1115.94468 2016.05228,1128.99312 2015.83548,1138.26528 C2015.83548,1141.03007 2016.82657,1142.78335 2018.68485,1143.0868 C2020.66168,1143.38401 2022.56434,1142.15242 2023.26861,1140.11971 C2023.32643,1139.87122 2023.47458,1139.65901 2023.67902,1139.53183 C2023.88345,1139.40465 2024.12661,1139.37344 2024.35261,1139.44537 C2024.81752,1139.59266 2025.09151,1140.11464 2024.97204,1140.62546 C2024.13971,1143.26711 2021.83824,1145.02368 2019.27331,1144.97495 C2018.99541,1145.00835 2018.71498,1145.00835 2018.43708,1144.97495 Z" id="Path" fill="#0E0D0D" fill-rule="nonzero"></path>
                <path d="M1996.71647,1121.92954 C1999.89077,1121.34827 2001.69557,1117.32688 2000.74759,1112.94752 C1999.79962,1108.56816 1996.45784,1105.48919 1993.28353,1106.07046 C1990.10923,1106.65173 1988.30443,1110.67312 1989.25241,1115.05248 C1990.20038,1119.43184 1993.54216,1122.51081 1996.71647,1121.92954 Z" id="Oval" fill="#0E0D0D" fill-rule="nonzero"></path>
                <path d="M2035.71647,1118.92954 C2038.89077,1118.34827 2040.69557,1114.32688 2039.74759,1109.94752 C2038.79962,1105.56816 2035.45784,1102.48919 2032.28353,1103.07046 C2029.10923,1103.65173 2027.30443,1107.67312 2028.25241,1112.05248 C2029.20038,1116.43184 2032.54216,1119.51081 2035.71647,1118.92954 Z" id="Oval" fill="#0E0D0D" fill-rule="nonzero"></path>
                <path d="M2076.54914,1464.84611 L2053.49935,1494.69876 C2052.90596,1495.52798 2051.90927,1496.0174 2050.85035,1495.99953 L1959.13284,1493.98333 C1957.91389,1493.94732 1956.82004,1493.26615 1956.30391,1492.2217 C1955.78778,1491.17724 1955.93717,1489.94715 1956.69025,1489.04041 L1957.2751,1488.32499 L1980.5313,1461.10639 C1981.12679,1460.38981 1982.04453,1459.98015 1983.00829,1460.00074 L2073.90013,1460.00074 C2075.05921,1460.10968 2076.08126,1460.76562 2076.61602,1461.74375 C2077.15077,1462.72189 2077.1256,1463.88937 2076.54914,1464.84611 Z" id="Path" fill="#A3A3A3" fill-rule="nonzero"></path>
                <path d="M2066.86636,1460.00073 C2067.28952,1460.00051 2067.67753,1460.22185 2067.87253,1460.57469 C2068.06752,1460.92753 2068.03699,1461.35305 2067.79336,1461.67811 L2046.74709,1488.80648 C2046.10018,1489.55574 2045.13028,1489.99362 2044.10343,1490 L1957,1488.09682 L1980.20927,1461.09748 C1980.80356,1460.38667 1981.71945,1459.98031 1982.68126,1460.00073 L2066.86636,1460.00073 Z" id="Path" fill="#CBCBCB" fill-rule="nonzero"></path>
                <polygon id="Path" fill="url(#linearGradient-7)" fill-rule="nonzero" points="1984.6783 1463 2018 1463 2003.13608 1485 1968 1484.63053"></polygon>
                <path d="M2030.81159,1465.30153 C2033.04375,1464.58974 2035.496,1465.16033 2037.15995,1466.77867 C2038.82389,1468.39701 2039.41866,1470.78991 2038.69967,1472.97339 C2037.10476,1479.02016 2031.42988,1483.17765 2025.04065,1482.98017 C2023.30447,1483.12529 2021.5989,1482.4678 2020.4321,1481.20359 C2019.26529,1479.93938 2018.77192,1478.21436 2019.09898,1476.54248 C2020.41623,1470.8802 2024.99259,1466.48813 2030.81159,1465.30153 Z" id="Path" fill="#FFFFFF" fill-rule="nonzero"></path>
                <ellipse id="Oval" fill-opacity="0.478492577" fill="#D3D3D3" fill-rule="nonzero" cx="1420.32" cy="1172.97" rx="286.68" ry="77.94"></ellipse>
                <path d="M1045.5,756.39 C1031.41,757.44 1017.85,755.86 1006.42,752 C895.3,714.62 913.47,610.47 933.5,537.29 C955.92,455.16 1000.22,414.45 1000.22,414.45 C1005.1624,409.786961 1010.85549,405.990436 1017.06,403.22 C1026.98,398.83 1040.63,396.22 1055.43,403.04 C1088.43,418.31 1147.43,498.95 1153.43,616.35 C1158.39,712.52 1097.78,752.53 1045.5,756.39 Z" id="Path" fill="#72DD96" fill-rule="nonzero"></path>
                <path d="M1045.5,756.39 C1031.41,757.44 1017.85,755.86 1006.42,752 C895.3,714.62 913.47,610.47 933.5,537.29 C955.92,455.16 1000.22,414.45 1000.22,414.45 C1005.1624,409.786961 1010.85549,405.990436 1017.06,403.22 C1022.25737,403.620882 1027.33927,404.959117 1032.06,407.17 C1065.06,422.44 1124.06,503.07 1130.06,620.47 C1134.2,702.51 1090.78,743.67 1045.5,756.39 Z" id="Path" fill="#B8FFCF" fill-rule="nonzero"></path>
                <path d="M1098.85,656.54 L1041.6,699.09 L1041.6,939.33 C1041.6,943.488704 1038.2287,946.86 1034.07,946.86 C1029.9113,946.86 1026.54,943.488704 1026.54,939.33 L1026.54,649.69 L977.18,613.19 C975.576588,612.019249 974.513331,610.251115 974.23098,608.285951 C973.948628,606.320788 974.471067,604.324824 975.68,602.75 C978.183021,599.434677 982.896078,598.76841 986.22,601.26 L1026.54,631.09 L1026.54,529.75 C1026.54,525.591296 1029.9113,522.22 1034.07,522.22 C1038.2287,522.22 1041.6,525.591296 1041.6,529.75 L1041.6,581.52 L1071.82,559.4 C1075.17686,556.949557 1079.88158,557.663746 1082.36,561 C1083.55417,562.587995 1084.05858,564.58996 1083.75943,566.554209 C1083.46027,568.518458 1082.38276,570.279498 1080.77,571.44 L1041.6,600.2 L1041.6,680.49 L1089.72,644.6 C1093.04686,642.119865 1097.75099,642.78487 1100.26,646.09 C1101.47626,647.656222 1102.01203,649.645541 1101.74687,651.610745 C1101.48171,653.57595 1100.43786,655.352134 1098.85,656.54 L1098.85,656.54 Z" id="Path" fill="url(#linearGradient-8)" fill-rule="nonzero"></path>
                <path d="M1924.48049,827.766615 C1911.78314,828.529516 1899.56341,827.381531 1889.26315,824.57696 C1789.12625,797.417666 1805.50033,721.745102 1823.55056,668.5745 C1843.75457,608.90107 1883.67596,579.322289 1883.67596,579.322289 C1888.12985,575.934251 1893.26024,573.175799 1898.8515,571.162876 C1907.791,567.973221 1920.09184,566.076866 1933.42901,571.032092 C1963.16729,582.12686 2016.33573,640.717696 2021.74269,726.017351 C2026.21245,795.891863 1971.59314,824.962044 1924.48049,827.766615 Z" id="Path-Copy-3" fill="#72DD96" fill-rule="nonzero"></path>
                <path d="M1924.52267,827.766466 C1911.82064,828.52986 1899.59641,827.381134 1889.29236,824.574753 C1789.11856,797.39793 1805.49867,721.676527 1823.55556,668.471608 C1843.76701,608.759665 1883.70311,579.161794 1883.70311,579.161794 C1888.15864,575.77157 1893.29092,573.011337 1898.88423,570.997114 C1903.56962,571.288573 1908.15091,572.261525 1912.40661,573.86893 C1942.15585,584.970858 1995.34388,643.592238 2000.75283,728.946945 C2004.48501,788.593454 1965.34223,818.518494 1924.52267,827.766466 Z" id="Path-Copy-2" fill="#B8FFCF" fill-rule="nonzero"></path>
                <path d="M1972.33054,755.422133 L1920.75689,786.284511 L1920.75689,960.535453 C1920.75689,963.551845 1917.71986,965.997114 1913.97349,965.997114 C1910.22712,965.997114 1907.19009,963.551845 1907.19009,960.535453 L1907.19009,750.453689 L1862.72414,723.9795 C1861.27971,723.13033 1860.32187,721.847866 1860.06752,720.422494 C1859.81316,718.997121 1860.2838,717.549408 1861.37286,716.407156 C1863.62771,714.002485 1867.87347,713.519228 1870.86782,715.326429 L1907.19009,736.962732 L1907.19009,663.458776 C1907.19009,660.442384 1910.22712,657.997114 1913.97349,657.997114 C1917.71986,657.997114 1920.75689,660.442384 1920.75689,663.458776 L1920.75689,701.008607 L1947.98057,684.964522 C1951.0046,683.187166 1955.24284,683.705182 1957.47553,686.125035 C1958.55129,687.276839 1959.00569,688.728905 1958.7362,690.153615 C1958.46671,691.578325 1957.49603,692.855643 1956.04318,693.697378 L1920.75689,714.557589 L1920.75689,772.793554 L1964.10578,746.761809 C1967.10278,744.962917 1971.34049,745.445258 1973.60074,747.842536 C1974.69641,748.978549 1975.17906,750.421442 1974.94019,751.846845 C1974.70132,753.272248 1973.76097,754.56055 1972.33054,755.422133 L1972.33054,755.422133 Z" id="Path-Copy" fill="url(#linearGradient-9)" fill-rule="nonzero"></path>
                <path d="M2143.48049,856.670208 C2130.78314,857.761744 2118.56341,856.119243 2108.26315,852.106548 C2008.12625,813.247866 2024.50033,704.97789 2042.55056,628.903028 C2062.75457,543.524121 2102.67596,501.203711 2102.67596,501.203711 C2107.12985,496.356211 2112.26024,492.409503 2117.8515,489.529474 C2126.791,484.965814 2139.09184,482.252567 2152.42901,489.342353 C2182.16729,505.216405 2235.33573,589.046371 2240.74269,711.090492 C2245.21245,811.064794 2190.59314,852.657514 2143.48049,856.670208 Z" id="Path-Copy-3" fill="#72DD96" fill-rule="nonzero"></path>
                <path d="M2143.52267,856.669733 C2130.82064,857.762842 2118.59641,856.117973 2108.29236,852.099497 C2008.11856,813.184826 2024.49867,704.758848 2042.55556,628.574372 C2062.76701,543.072447 2102.70311,500.691058 2102.70311,500.691058 C2107.15864,495.836574 2112.29092,491.884179 2117.88423,489 C2122.56962,489.417341 2127.15091,490.810518 2131.40661,493.112171 C2161.15585,509.009096 2214.34388,592.949438 2219.75283,715.169407 C2223.48501,800.577638 2184.34223,843.427501 2143.52267,856.669733 Z" id="Path-Copy-2" fill="#B8FFCF" fill-rule="nonzero"></path>
                <path d="M2191.33054,784.425019 L2139.75689,815.287396 L2139.75689,989.538338 C2139.75689,992.554731 2136.71986,995 2132.97349,995 C2129.22712,995 2126.19009,992.554731 2126.19009,989.538338 L2126.19009,779.456575 L2081.72414,752.982385 C2080.27971,752.133216 2079.32187,750.850752 2079.06752,749.425379 C2078.81316,748.000006 2079.2838,746.552293 2080.37286,745.410041 C2082.62771,743.00537 2086.87347,742.522113 2089.86782,744.329314 L2126.19009,765.965618 L2126.19009,692.461662 C2126.19009,689.445269 2129.22712,687 2132.97349,687 C2136.71986,687 2139.75689,689.445269 2139.75689,692.461662 L2139.75689,730.011492 L2166.98057,713.967408 C2170.0046,712.190052 2174.24284,712.708067 2176.47553,715.12792 C2177.55129,716.279725 2178.00569,717.731791 2177.7362,719.1565 C2177.46671,720.58121 2176.49603,721.858528 2175.04318,722.700264 L2139.75689,743.560475 L2139.75689,801.796439 L2183.10578,775.764695 C2186.10278,773.965802 2190.34049,774.448144 2192.60074,776.845422 C2193.69641,777.981434 2194.17906,779.424328 2193.94019,780.84973 C2193.70132,782.275133 2192.76097,783.563435 2191.33054,784.425019 L2191.33054,784.425019 Z" id="Path-Copy" fill="url(#linearGradient-9)" fill-rule="nonzero"></path>
                <path d="M895.3,1198.45026 L880.64,1198.45 C880.227064,1198.45892 879.842732,1198.23985 879.64,1197.88 L844.17,1135.81 L756.63,1135.81 L756.63,1196.56 C756.627367,1197.06566 756.423273,1197.54941 756.062909,1197.90415 C755.702544,1198.25888 755.215639,1198.45533 754.71,1198.45 L745.25,1198.45 C744.745285,1198.45534 744.259402,1198.25858 743.90062,1197.90355 C743.541839,1197.54853 743.339972,1197.06474 743.34,1196.56 L743.34,1131.56 C743.369637,1130.76574 743.309253,1129.97067 743.16,1129.19 C743.174481,1128.78127 743.144302,1128.37218 743.07,1127.97 L724.07,995.97 C723.537045,992.324921 726.059921,988.937955 729.705,988.405 C733.350079,987.872046 736.737045,990.394921 737.27,994.04 L755.7,1122.58 L886,1122.58 C888.413801,1122.48592 890.685621,1123.72003 891.920501,1125.79617 C893.155381,1127.87231 893.155381,1130.45769 891.920501,1132.53383 C890.685621,1134.60997 888.413801,1135.84408 886,1135.75 L859.42,1135.75 L895.3,1198.45026 Z" id="Path" fill="url(#linearGradient-10)" fill-rule="nonzero"></path>
                <path d="M1014.75,1186.47 C1003.06,1179.54 981.61,1141.11 966.46,1117.24 C951.22,1093.24 936.46,1067.68 927.06,1063.32 C911.06,1055.91 895.24,1062.24 887.33,1062.66 C888.424284,1060.67651 889.699719,1058.79851 891.14,1057.05 C891.14,1057.05 906.03,1055.12 912.94,1056.05 C923.04,1057.46 933.05,1054.74 951.04,1084.66 C967.26,1111.8 1002.17,1169 1014.75,1186.47 Z" id="Path" fill="#936D47" fill-rule="nonzero"></path>
                <path d="M1036.46,1220.16 C1030.17,1219.46 1016.08,1210.86 1003.94,1207.44 C991.8,1204.02 998.89,1192.35 997.3,1188.44 C995.71,1184.53 939.08,1123.85 924.79,1105 C924.057329,1103.9728 922.805723,1103.44968 921.56,1103.65 C913.63,1104.86 884.32,1109.24 872.27,1109.92 C872.27,1109.92 878.03,1079.03 887.33,1062.71 C888.424284,1060.72651 889.699719,1058.84851 891.14,1057.1 C891.14,1057.1 906.03,1055.17 912.94,1056.1 C923.04,1057.51 933.05,1054.79 951.04,1084.71 C967.26,1111.82 1002.17,1169.03 1014.75,1186.49 C1014.84,1186.58 1014.84,1186.67 1014.93,1186.67 C1016.17,1188.33 1017.15,1189.67 1017.93,1190.53 C1017.93,1190.53 1036.01,1207.02 1041.06,1213.6 C1046.11,1220.18 1042.67,1221 1036.46,1220.16 Z" id="Path" fill="#A67C52" fill-rule="nonzero"></path>
                <path d="M1013.67,1185 C1010.89242,1185.95675 1008.04355,1186.69237 1005.15,1187.2 C1002.26201,1187.52341 999.354633,1187.64038 996.45,1187.55 C996.36,1187.55 998.36,1190.9 996.29,1196.49 C994.12,1202.32 999.73,1206.91 1009.29,1210.17 C1025.96,1215.84 1029.99,1219.06 1036.29,1220.34 C1043.37,1221.76 1047.14,1219.39 1038.93,1211.14 C1035.56126,1212.70831 1031.67621,1212.73022 1028.29,1211.2 C1022.56,1208.62 1017.35,1201.01 1015.78,1198.49 C1014.21,1195.97 1016.78,1189.13 1016.78,1189.13 L1013.67,1185 Z" id="Path" fill="#F0D762" fill-rule="nonzero"></path>
                <path d="M874.08,1115.05 C874.08,1115.12 874.08,1115.16 874.01,1115.16 C873.11,1115.22 858.55,1116.25 830.79,1120.84 C802.12,1125.58 786.48,1121.84 777.1,1107.93 C767.72,1094.02 768.76,1073.87 777.1,1052.71 C785.44,1031.55 789.61,1014 798,993.87 C806.39,973.74 815.43,943.32 837.88,945.87 C850.71,947.32 846.31,951.52 863.29,949.45 C884,946.91 888,946.15 885,967 C885,967 877.7,1004.16 871.45,1023.52 C867.747424,1034.99943 865.004664,1046.76654 863.25,1058.7 C863.25,1058.96 863.36,1059.11 863.62,1059.08 C866,1058.82 878.01,1057.52 890.97,1056.82 C891.12,1056.82 891.23,1056.88 891.18,1057.03 C890.13,1060 878.81,1092.58 874.08,1115.05 Z" id="Path" fill="url(#linearGradient-11)" fill-rule="nonzero"></path>
                <path d="M846.43,1008.84 L841.34,1029.35 C841.266038,1029.64721 841.359703,1029.96112 841.584437,1030.16921 C841.80917,1030.3773 842.129347,1030.44657 842.42,1030.35 C852.42,1026.91 910.25,1006.93 923.88,1002.56 C924.843683,1002.25954 925.658134,1001.60584 926.16,1000.73 C927.8,997.91 931.64,991.56 933.61,990.73 C936.15,989.64 934.19,993.32 934.39,995.45 C934.59,997.58 947.39,990.65 950.02,990.54 C951.02,990.49 951.59,1001.84 950.02,1006.1 C948.45,1010.36 940.79,1012.88 929.02,1013.1 C928.216726,1013.10567 927.420912,1013.25467 926.67,1013.54 C917.36,1017.2 852.36,1042.77 840.99,1047.54 C828.75,1052.7 822.99,1045.47 822.99,1037.21 C822.99,1028.95 828.74,1011.57 828.74,1011.57 L846.43,1008.84 Z" id="Path" fill="#A67C52" fill-rule="nonzero"></path>
                <path d="M935.46,995.14 L942.34,973.48 L953,973.48 L948.24,991.12 C948.24,991.12 937.15,996 935.46,995.14 Z" id="Path" fill="#000000" fill-rule="nonzero"></path>
                <path d="M819.88,1017.9 C819.502662,1017.99405 819.10502,1017.86081 818.860522,1017.55841 C818.616023,1017.256 818.569014,1016.83928 818.74,1016.49 C820.97,1010.59 828.66,990.18 832.2,980.96 C836.37,970.13 842.11,961.87 849.4,963.96 C856.69,966.05 856.7,976.13 854.09,991.46 C851.97,1003.95 850.89,1011.06 850.56,1013.27 C850.516428,1013.73158 850.142815,1014.09246 849.68,1014.12 L819.88,1017.9 Z" id="Path" fill="url(#linearGradient-12)" fill-rule="nonzero"></path>
                <path d="M891.25,932.83 C895.16,934.64 896.34,936.32 896.34,936.32 C902.062613,931.04161 909.554828,928.09824 917.34,928.07 C917.91,928.01 918.42,927.85 918.47,927.28 C918.89,922.28 920.84,901.14 923.59,894.77 C923.59,894.77 903.33,879.54 900.4,870.25 C897.47,860.96 881.22,859 872.23,885 C863.24,911 864,906.83 860.5,924.45 C857,942.07 860.5,950 860.5,950 C866.368017,949.558048 872.151646,948.340796 877.7,946.38 C888.78,942.25 891.25,938.77 891.25,938.77 L891.25,932.83 Z" id="Path" fill="#A67C52" fill-rule="nonzero"></path>
                <polygon id="Path" fill="#422607" fill-rule="nonzero" points="916.04 907.01 916.04 909.73 912.94 909.73 912.94 912.71 909.84 912.71 909.84 907.01"></polygon>
                <path d="M863.22,955.21 C863.213772,955.366397 863.136073,955.511273 863.009236,955.602986 C862.882399,955.694699 862.720473,955.723091 862.57,955.68 C779.57,939.93 781.23,867.07 815.93,835.03 C830.61,821.48 847.38,817.42 861.35,817.03 C881.73,816.47 901.35,825.55 914.74,840.75 C938.13,867.24 932.62,895.48 931.74,899.24 C931.671267,899.503265 931.404637,899.663242 931.14,899.6 C899.29,895.55 886.21,883.69 883.14,880.39 C883.012419,880.240809 882.808114,880.182158 882.620824,880.240958 C882.433535,880.299759 882.299414,880.464659 882.28,880.66 C881.87,883.89 880.02,893.82 871.97,907.66 C862.87,923.32 863.12,950.83 863.22,955.21 Z" id="Path" fill="#4D4D4D" fill-rule="nonzero"></path>
                <path d="M1392.19,765.23 C1385.94,760.38 1378.01,758.09 1372.03,752.92 C1365.94827,747.796008 1360.90118,741.557572 1357.16,734.54 C1346.79,714.25 1348.54,647.85 1406.25,639.8 C1446.95,634.12 1476.05,664.57 1481.76,701.22 C1487.47,737.87 1520.83,749.75 1535.95,779.68 C1551.07,809.61 1521.87,874.68 1473.95,865.87 C1426.03,857.06 1433.11,797.49 1416.64,788.19 C1405.93,782.15 1397.67,769.5 1392.19,765.23 Z" id="Path" fill="#D64B1B" fill-rule="nonzero"></path>
                <path d="M1360,967 C1360,967 1453.82,964.68 1485.09,967" id="Path"></path>
                <polyline id="Path" fill="#FFD7CC" fill-rule="nonzero" points="1426.97 793.05 1426.97 809.15 1406.25 809.15 1406.25 803.94 1406.25 793.33"></polyline>
                <path d="M1451,886.39 C1447.72,891.83 1430.62,904.81 1418.22,920.96 C1416.8,922.8 1416.89,927.19 1416.89,929.47 L1417.15,966.15 C1400.4,966.23 1384.63,966.5 1374.15,966.76 C1372.15,950.53 1371.22,938.76 1371.22,928.33 C1371.22,908.67 1347.03,898.93 1351.46,879.81 C1354.65,865.81 1363.25,826.46 1373.88,813.21 C1383.72,800.84 1400.46,803.38 1400.46,803.38 C1400.46,803.38 1411.98,804.52 1421.82,804.61 C1427.49,809.61 1436.44,819 1440.07,830.76 C1445.53,848.57 1456.52,877.26 1451,886.39 Z" id="Path" fill="url(#linearGradient-13)" fill-rule="nonzero"></path>
                <path d="M1480.77,895.25 C1478.91,899.11 1472.35,907.09 1467.66,912.62 C1464.41011,916.490732 1462.73266,921.440971 1462.96,926.49 C1463.22835,939.740606 1462.56002,952.993613 1460.96,966.15 C1447.4,965.97 1431.45,965.97 1416.21,966.15 L1416.03,947.15 C1416.44181,947.228055 1416.86126,947.258255 1417.28,947.24 C1427.38,947.24 1435.62,940.05 1435.62,931.18 C1435.62,923.64 1429.62,917.32 1421.62,915.65 C1433.27,902 1447.1,891.21 1450,886.39 C1455.5,877.26 1444.51,848.57 1439.1,830.76 C1435.47,819 1426.52,809.61 1420.85,804.61 C1423.89964,804.660229 1426.94933,804.513256 1429.98,804.17 C1437.24,803.17 1451.07,801.63 1458.86,810.17 C1466.86,818.85 1472.24,840.97 1475.79,856.32 C1479,869.72 1483.87,889.11 1480.77,895.25 Z" id="Path" fill="url(#linearGradient-14)" fill-rule="nonzero"></path>
                <path d="M1460.92,966.15 C1458.53,986.5 1454.92,1004.93 1453.12,1016.6 C1450,1037.07 1436.18,1138.37 1436,1139.78 C1436,1139.78 1436,1139.78 1435.93,1139.78 C1424.37,1135.72 1417.69,1145.07 1417.69,1145.07 L1416.18,966.16 C1431.41,966 1447.36,966 1460.92,966.15 Z" id="Path" fill="#B0DAFF" fill-rule="nonzero"></path>
                <path d="M1417.68,1145.06 C1414.05,1138.91 1401.87,1140.96 1401.87,1140.96 C1401.87,1140.96 1389.06,1071.26 1381.26,1021.78 C1377.63,998.61 1374.88,980.97 1373.2,966.78 C1383.65,966.52 1399.42,966.25 1416.2,966.17 L1417.68,1145.06 Z" id="Path" fill="#CCE7FF" fill-rule="nonzero"></path>
                <path d="M1435.58,931.22 C1435.58,940.09 1427.34,947.28 1417.24,947.28 C1416.82126,947.298255 1416.40181,947.268055 1415.99,947.19 L1415.91,929.47 C1415.91,927.19 1415.82,922.8 1417.24,920.96 C1418.66,919.12 1420.07,917.36 1421.58,915.69 C1429.55,917.36 1435.58,923.68 1435.58,931.22 Z" id="Path" fill="#FFDCC3" fill-rule="nonzero"></path>
                <path d="M1417.24,921 C1415.82,922.84 1415.91,927.23 1415.91,929.51 L1415.99,947.23 C1406.34,946.71 1398.8,939.78 1398.8,931.23 C1398.8,922.37 1407.05,915.18 1417.24,915.18 C1418.70248,915.175387 1420.16001,915.350022 1421.58,915.7 C1420.07,917.36 1418.65,919.12 1417.24,921 Z" id="Path" fill="#FFE6DF" fill-rule="nonzero"></path>
                <path d="M1406.81,891.54 L1426.43,891.54 C1426.73376,891.54 1426.98,891.786243 1426.98,892.09 L1426.98,921.62 C1426.98,922.106011 1426.58601,922.5 1426.1,922.5 L1407.1,922.5 C1406.61399,922.5 1406.22,922.106011 1406.22,921.62 L1406.22,892.1 C1406.21677,891.945199 1406.27894,891.796208 1406.39125,891.689616 C1406.50355,891.583024 1406.65558,891.528706 1406.81,891.54 Z" id="Path" fill="#333333" fill-rule="nonzero"></path>
                <path d="M1418.12,1153.8 L1418.12,1158 L1394.81,1158 C1394.63,1156.59 1394.54,1155.19 1394.46,1153.87 C1399.33,1153.8 1408.72,1153.8 1418.12,1153.8 Z" id="Path" fill="#FFFFFF" fill-rule="nonzero"></path>
                <path d="M1441.77,1153.89 C1441.77,1155.21 1441.69,1156.52 1441.6,1158.02 L1418.12,1158.02 L1418.12,1153.8 C1427.42,1153.8 1436.81,1153.89 1441.77,1153.89 Z" id="Path" fill="#FFFFFF" fill-rule="nonzero"></path>
                <path d="M1441.77,1153.89 C1436.77,1153.89 1427.42,1153.8 1418.12,1153.8 L1418.12,1144.06 C1421.3183,1140.06558 1426.31686,1137.95558 1431.41,1138.45 C1439.2,1139.24 1441.77,1144.06 1441.77,1153.89 Z" id="Path" fill="#D0021B" fill-rule="nonzero"></path>
                <path d="M1418.12,1144.06 L1418.12,1153.8 C1408.72,1153.8 1399.33,1153.8 1394.46,1153.89 C1394.28,1143.54 1399.06,1138.27 1406.06,1138.36 C1410.71292,1138.43612 1415.10748,1140.51315 1418.12,1144.06 Z" id="Path" fill="#FE5C70" fill-rule="nonzero"></path>
                <path d="M1460,756.55101 C1450.08,778.49101 1430.76,795.25101 1415,795.42101 L1415,660.03101 C1415.09,659.95101 1415.17,660.03101 1415.17,660.21101 C1416.06,670.04101 1422.44,706.01101 1467.81,707.77101 C1467.8,707.77101 1472.09,729.97101 1460,756.55101 Z" id="Path" fill="#FED8CE" fill-rule="nonzero"></path>
                <path d="M1415.9,660.18 L1415.9,795.57 C1412.53534,795.674543 1409.20282,794.887985 1406.24,793.29 C1387.36,783 1361.31,758 1364.41,706.86 C1364.41,706.86 1408.81,704.41 1415.54,660.45 C1415.63,660.18 1415.72,660.1 1415.9,660.18 Z" id="Path" fill="#FFE5DE" fill-rule="nonzero"></path>
                <path d="M1377.75,720.44 C1377.51583,720.437625 1377.2833,720.400555 1377.06,720.33 C1376.508,720.15546 1376.0481,719.768521 1375.78172,719.254512 C1375.51533,718.740503 1375.46435,718.141644 1375.64,717.59 C1375.64,717.47 1379.55,705.93 1394.89,709.14 C1395.4611,709.257738 1395.96167,709.598371 1396.28077,710.086417 C1396.59988,710.574463 1396.71118,711.169619 1396.59,711.74 C1396.32098,712.921676 1395.15747,713.672185 1393.97,713.43 C1382.84,711.1 1380.13,718.12 1379.85,718.93 C1379.54321,719.829344 1378.70022,720.435493 1377.75,720.44 L1377.75,720.44 Z" id="Path" fill="#D64B10" fill-rule="nonzero"></path>
                <ellipse id="Oval" fill="#333333" fill-rule="nonzero" transform="translate(1392.303709, 729.187640) rotate(-7.920000) translate(-1392.303709, -729.187640) " cx="1392.30371" cy="729.18764" rx="5.28" ry="7.09"></ellipse>
                <path d="M1455.29,720.44 C1455.52417,720.437625 1455.7567,720.400555 1455.98,720.33 C1456.532,720.15546 1456.9919,719.768521 1457.25828,719.254512 C1457.52467,718.740503 1457.57565,718.141644 1457.4,717.59 C1457.4,717.47 1453.49,705.93 1438.15,709.14 C1437.5784,709.257908 1437.07707,709.598115 1436.75636,710.085741 C1436.43565,710.573368 1436.32185,711.168446 1436.44,711.74 C1436.71367,712.923081 1437.88017,713.672661 1439.07,713.43 C1450.2,711.1 1452.91,718.12 1453.18,718.93 C1453.49307,719.829019 1454.33805,720.433718 1455.29,720.44 Z" id="Path" fill="#D64B10" fill-rule="nonzero"></path>
                <ellipse id="Oval" fill="#333333" fill-rule="nonzero" transform="translate(1442.470600, 730.289700) rotate(-81.950938) translate(-1442.470600, -730.289700) " cx="1442.4706" cy="730.2897" rx="7.08893642" ry="5.27920794"></ellipse>
                <path d="M1414.23,771.93 C1414.23,771.93 1406.54,770.38 1400.74,770.93 C1394.94,771.48 1403.81,779.44 1414.23,779.7 C1424.65,779.96 1429.61,775.31 1430.39,771.96 C1431.17,768.61 1418.35,772.58 1414.23,771.93 Z" id="Path" fill="#FF3B00" fill-rule="nonzero"></path>
                <circle id="Oval" fill-opacity="0.5" fill="#E6E6E6" fill-rule="nonzero" cx="1417" cy="906" r="2"></circle>
            </g>
        </g>
    </g>
</svg>