<svg xmlns="http://www.w3.org/2000/svg" xmlns:xlink="http://www.w3.org/1999/xlink" width="15.86" height="18" viewBox="0 0 15.86 18">
  <defs>
    <clipPath id="clip-path">
      <path id="Fill_1" data-name="Fill 1" d="M0,17.449V15.812A1.322,1.322,0,0,1,.721,14.7L9.78,9.429a.471.471,0,0,0,0-.858L.721,3.3A1.32,1.32,0,0,1,0,2.189V.552C0,.1.667-.161,1.134.111L15.521,8.474a.578.578,0,0,1,0,1.052L1.134,17.89A.838.838,0,0,1,.713,18C.346,18,0,17.775,0,17.449Zm0-6.47V7.021c0-.454.666-.713,1.133-.441L4.391,8.474a.578.578,0,0,1,0,1.052L1.134,11.42a.837.837,0,0,1-.422.111C.345,11.531,0,11.305,0,10.979Z" transform="translate(1)" fill="#231f20"/>
    </clipPath>
  </defs>
  <g id="Group_56" data-name="Group 56" transform="translate(-1 0)">
    <path id="Fill_1-2" data-name="Fill 1" d="M0,17.449V15.812A1.322,1.322,0,0,1,.721,14.7L9.78,9.429a.471.471,0,0,0,0-.858L.721,3.3A1.32,1.32,0,0,1,0,2.189V.552C0,.1.667-.161,1.134.111L15.521,8.474a.578.578,0,0,1,0,1.052L1.134,17.89A.838.838,0,0,1,.713,18C.346,18,0,17.775,0,17.449Zm0-6.47V7.021c0-.454.666-.713,1.133-.441L4.391,8.474a.578.578,0,0,1,0,1.052L1.134,11.42a.837.837,0,0,1-.422.111C.345,11.531,0,11.305,0,10.979Z" transform="translate(1)" fill="#231f20"/>
    <g id="Mask_Group_56" data-name="Mask Group 56" clip-path="url(#clip-path)">
      <g id="_Tint_Backgroud" data-name="↳Tint/Backgroud">
        <rect id="Color" width="18" height="18" fill="#262628"/>
      </g>
    </g>
  </g>
</svg>
