<?xml version="1.0" encoding="UTF-8"?>
<svg width="18px" height="18px" viewBox="0 0 18 18" version="1.1" xmlns="http://www.w3.org/2000/svg" xmlns:xlink="http://www.w3.org/1999/xlink">
    <!-- Generator: Sketch 54.1 (76490) - https://sketchapp.com -->
    <title>Icons/Location Copyloca</title>
    <desc>Created with Sketch.</desc>
    <defs>
        <linearGradient x1="100%" y1="0%" x2="29.8779765%" y2="87.14752%" id="linearGradient-1">
            <stop stop-color="#D9E862" offset="0%"></stop>
            <stop stop-color="#33CC66" offset="100%"></stop>
        </linearGradient>
        <path d="M17.0273672,16.9453125 L17.0273672,8.88178473e-16 L14.0751211,8.88178473e-16 L10.1460937,4.11598828 L10.1460937,16.9453125 L9.09140625,16.9453125 L9.09140625,5.05360547 L5.16800391,9.16372266 L5.16800391,16.9453125 L2.47851562,16.9453125 L2.47851562,15.8293477 C3.29892187,15.5986523 3.90234375,14.8443047 3.90234375,13.9511953 C3.90234375,12.8753086 3.02705859,12.0000234 1.95117187,12.0000234 C0.875285156,12.0000234 -6.96331881e-13,12.8752734 -6.96331881e-13,13.9511602 C-6.96331881e-13,14.8443047 0.603421875,15.5986523 1.42382812,15.8293125 L1.42382812,16.9453125 L-6.96331881e-13,16.9453125 L-6.96331881e-13,18 L18,18 L18,16.9453125 L17.0273672,16.9453125 Z M7.65878906,15.0000117 L6.60410156,15.0000117 L6.60410156,13.5 L7.65878906,13.5 L7.65878906,15.0000117 Z M7.65878906,11.6250117 L6.60410156,11.6250117 L6.60410156,10.125 L7.65878906,10.125 L7.65878906,11.6250117 Z M13.1173594,15.0000117 L12.0626719,15.0000117 L12.0626719,13.5 L13.1173594,13.5 L13.1173594,15.0000117 Z M13.1173594,11.6250117 L12.0626719,11.6250117 L12.0626719,10.125 L13.1173594,10.125 L13.1173594,11.6250117 Z M13.1173594,8.25001172 L12.0626719,8.25001172 L12.0626719,6.75 L13.1173594,6.75 L13.1173594,8.25001172 Z M15.1107539,15.0000117 L14.0560664,15.0000117 L14.0560664,13.5 L15.1107539,13.5 L15.1107539,15.0000117 Z M15.1107539,11.6250117 L14.0560664,11.6250117 L14.0560664,10.125 L15.1107539,10.125 L15.1107539,11.6250117 Z M15.1107539,8.25001172 L14.0560664,8.25001172 L14.0560664,6.75 L15.1107539,6.75 L15.1107539,8.25001172 Z M15.1107539,4.87501172 L14.0560664,4.87501172 L14.0560664,3.375 L15.1107539,3.375 L15.1107539,4.87501172 Z" id="path-2"></path>
    </defs>
    <g id="Icons/Location-Copy" stroke="none" stroke-width="1" fill="none" fill-rule="evenodd">
        <g id="building" transform="translate(14.000000, 3.000000)"></g>
        <mask id="mask-3" fill="white">
            <use xlink:href="#path-2"></use>
        </mask>
        <use id="Combined-Shape" fill="url(#linearGradient-1)" fill-rule="nonzero" xlink:href="#path-2"></use>
    </g>
</svg>