<svg id="Group_70" data-name="Group 70" xmlns="http://www.w3.org/2000/svg" xmlns:xlink="http://www.w3.org/1999/xlink" width="19.994" height="20" viewBox="0 0 19.994 20">
  <defs>
    <clipPath id="clip-path">
      <path id="explore" d="M9.994,20A10,10,0,0,1,2.924,2.932,10,10,0,0,1,17.07,17.073,9.923,9.923,0,0,1,9.994,20Zm0-18.454A8.457,8.457,0,0,0,4.016,15.98,8.456,8.456,0,0,0,15.977,4.025,8.4,8.4,0,0,0,9.994,1.546ZM5.614,13.9a.783.783,0,0,1-.624-.315.772.772,0,0,1-.015-.891L8.247,7.879a.74.74,0,0,1,.428-.309l5.849-1.664a.769.769,0,0,1,.215-.031A.771.771,0,0,1,15.364,7.1L11.9,11.853a.754.754,0,0,1-.4.283L5.841,13.868A.723.723,0,0,1,5.614,13.9ZM12.793,8l-3.422.974L7.485,11.75,10.8,10.734,12.793,8Z" fill="none"/>
    </clipPath>
    <linearGradient id="linear-gradient" x1="0.932" y1="0.059" x2="0.168" y2="0.816" gradientUnits="objectBoundingBox">
      <stop offset="0" stop-color="#d9e862"/>
      <stop offset="1" stop-color="#3c6"/>
    </linearGradient>
  </defs>
  <path id="explore-2" data-name="explore" d="M9.994,20A10,10,0,0,1,2.924,2.932,10,10,0,0,1,17.07,17.073,9.923,9.923,0,0,1,9.994,20Zm0-18.454A8.457,8.457,0,0,0,4.016,15.98,8.456,8.456,0,0,0,15.977,4.025,8.4,8.4,0,0,0,9.994,1.546ZM5.614,13.9a.783.783,0,0,1-.624-.315.772.772,0,0,1-.015-.891L8.247,7.879a.74.74,0,0,1,.428-.309l5.849-1.664a.769.769,0,0,1,.215-.031A.771.771,0,0,1,15.364,7.1L11.9,11.853a.754.754,0,0,1-.4.283L5.841,13.868A.723.723,0,0,1,5.614,13.9ZM12.793,8l-3.422.974L7.485,11.75,10.8,10.734,12.793,8Z" fill="none"/>
  <g id="Mask_Group_70" data-name="Mask Group 70" clip-path="url(#clip-path)">
    <g id="_Tint_Backgroud" data-name="↳Tint/Backgroud" transform="translate(0.002)">
      <rect id="Color" width="20" height="20" fill="url(#linear-gradient)"/>
    </g>
  </g>
</svg>
