<?xml version="1.0" encoding="UTF-8"?>
<svg width="41px" height="41px" viewBox="0 0 41 41" version="1.1" xmlns="http://www.w3.org/2000/svg" xmlns:xlink="http://www.w3.org/1999/xlink">
    <title>Buttons/Add Friendsfollow</title>
    <defs>
        <linearGradient x1="85.8682264%" y1="9.18896635%" x2="16.7514288%" y2="81.5795139%" id="linearGradient-1">
            <stop stop-color="#D9E862" offset="0%"></stop>
            <stop stop-color="#33CC66" offset="100%"></stop>
        </linearGradient>
        <linearGradient x1="69.1544818%" y1="9.18896635%" x2="32.244476%" y2="81.5795139%" id="linearGradient-2">
            <stop stop-color="#D9E862" offset="0%"></stop>
            <stop stop-color="#33CC66" offset="100%"></stop>
        </linearGradient>
        <path d="M22.3577633,26.1426237 C23.5889723,26.5591871 24.676138,26.8245155 26.2381637,27.2987381 C25.6380795,34.7898804 18.4681084,31.814921 22.3577633,26.1426237 Z M28.7594299,19.2610587 C28.6785744,17.0117824 28.2775736,14.0612341 25.0834266,14.5235574 C23.5860941,14.9096288 22.4797551,16.5342787 21.9594193,19.3373105 C21.6736354,20.8784903 21.8398187,23.041759 22.1769233,24.3385216 C22.4847145,25.2523626 22.3800362,25.1961908 22.7108531,25.3697371 C23.9912572,25.6547081 25.2588202,25.9701711 26.5496302,26.2918463 C27.8609418,25.3769554 28.9379231,20.5198047 28.7594299,19.2610587 Z M18.9020536,19.0884312 C19.2388925,17.7914936 19.4050759,15.6282248 19.1194248,14.0872201 C18.5994875,11.284057 17.4930157,9.65914463 15.9954175,9.27333567 C12.8012705,8.81101238 12.4002697,11.7615169 12.3194142,14.0109245 C12.140921,15.2694518 13.2180351,20.1269087 14.5294796,21.0416246 C15.820201,20.7199494 17.0875868,20.4047489 18.3683895,20.1195153 C18.6988078,19.9461441 18.5941296,20.0022721 18.9020536,19.0884312 Z M14.8405475,22.0487789 C15.4404104,29.5398337 22.6103815,26.5648743 18.7208151,20.8926644 C17.4896061,21.3092716 16.402529,21.5745563 14.8405475,22.0487789 Z" id="path-3"></path>
    </defs>
    <g id="OK____-Walkthrough" stroke="none" stroke-width="1" fill="none" fill-rule="evenodd">
        <g id="USER_PROFILE_ABOUT_HEADER" transform="translate(-311.000000, -96.000000)">
            <g id="Account-Infor" transform="translate(0.000000, 92.000000)">
                <g id="Buttons/Add-Friends" transform="translate(311.000000, 4.000000)">
                    <rect id="Rectangle" stroke="url(#linearGradient-1)" stroke-width="2" x="1" y="1" width="39" height="39" rx="19.5"></rect>
                    <mask id="mask-4" fill="white">
                        <use xlink:href="#path-3"></use>
                    </mask>
                    <use id="Like" fill="url(#linearGradient-2)" xlink:href="#path-3"></use>
                </g>
            </g>
        </g>
    </g>
</svg>