<svg xmlns="http://www.w3.org/2000/svg" width="34" height="33" viewBox="0 0 34 33">
  <path id="star_favorite_1499_copy_15" data-name="star_favorite [#1499] copy 15" d="M28.425,20.14a3.134,3.134,0,0,0-.886,2.754l1.1,6.461A3.107,3.107,0,0,1,25.6,33a3.042,3.042,0,0,1-1.433-.365l-5.738-3.051a3.056,3.056,0,0,0-2.865,0L9.83,32.635A3.042,3.042,0,0,1,8.4,33a3.107,3.107,0,0,1-3.033-3.645l1.1-6.461a3.134,3.134,0,0,0-.886-2.754L.932,15.564a3.122,3.122,0,0,1,1.705-5.308l6.416-.942a3.075,3.075,0,0,0,2.317-1.7l2.87-5.877a3.063,3.063,0,0,1,5.52,0l2.87,5.877a3.075,3.075,0,0,0,2.317,1.7l6.416.942a3.122,3.122,0,0,1,1.705,5.308Z" fill="#3c6"/>
</svg>
