<svg xmlns="http://www.w3.org/2000/svg" xmlns:xlink="http://www.w3.org/1999/xlink" width="50" height="50" viewBox="0 0 50 50">
  <defs>
    <clipPath id="clip-path">
      <path id="Shape" d="M25,50A24.969,24.969,0,0,1,7.344,7.344,24.969,24.969,0,1,1,42.656,42.656,24.821,24.821,0,0,1,25,50Zm0-22.5a32.542,32.542,0,0,0-10.937,2.222C11.068,30.919,7.5,33,7.5,36.11a21.671,21.671,0,0,0,35,0c0-3.11-3.569-5.191-6.562-6.389A32.542,32.542,0,0,0,25,27.5ZM25,5A9.781,9.781,0,0,0,15,15,9.78,9.78,0,0,0,25,25,9.781,9.781,0,0,0,35,15,9.782,9.782,0,0,0,25,5Z"/>
    </clipPath>
  </defs>
  <g id="Icons_Profiles" data-name="Icons/Profiles" transform="translate(0 0)">
    <g id="Group_41" data-name="Group 41" transform="translate(0 0)">
      <path id="Shape-2" data-name="Shape" d="M25,50A24.969,24.969,0,0,1,7.344,7.344,24.969,24.969,0,1,1,42.656,42.656,24.821,24.821,0,0,1,25,50Zm0-22.5a32.542,32.542,0,0,0-10.937,2.222C11.068,30.919,7.5,33,7.5,36.11a21.671,21.671,0,0,0,35,0c0-3.11-3.569-5.191-6.562-6.389A32.542,32.542,0,0,0,25,27.5ZM25,5A9.781,9.781,0,0,0,15,15,9.78,9.78,0,0,0,25,25,9.781,9.781,0,0,0,35,15,9.782,9.782,0,0,0,25,5Z"/>
      <g id="Mask_Group_41" data-name="Mask Group 41" clip-path="url(#clip-path)">
        <g id="_Tint_Backgroud" data-name="↳Tint/Backgroud" transform="translate(0 0)">
          <rect id="Color" width="50" height="50" fill="#9b9b9b"/>
        </g>
      </g>
    </g>
  </g>
</svg>
