<svg xmlns="http://www.w3.org/2000/svg" xmlns:xlink="http://www.w3.org/1999/xlink" width="18" height="16" viewBox="0 0 18 16">
  <defs>
    <clipPath id="clip-path">
      <path id="ChatMail" d="M4,16V13H3a3,3,0,0,1-3-3V3A3,3,0,0,1,3,0H15a3,3,0,0,1,3,3v7a3,3,0,0,1-3,3H7L4,16ZM3,2A1.013,1.013,0,0,0,2,3v7a1.013,1.013,0,0,0,1,1H6v.171L6.171,11H15a1.013,1.013,0,0,0,1-1V3a1.013,1.013,0,0,0-1-1Z" transform="translate(0 1)" fill="#c2c4ca"/>
    </clipPath>
  </defs>
  <g id="Group_31" data-name="Group 31" transform="translate(0 -1)">
    <path id="ChatMail-2" data-name="ChatMail" d="M4,16V13H3a3,3,0,0,1-3-3V3A3,3,0,0,1,3,0H15a3,3,0,0,1,3,3v7a3,3,0,0,1-3,3H7L4,16ZM3,2A1.013,1.013,0,0,0,2,3v7a1.013,1.013,0,0,0,1,1H6v.171L6.171,11H15a1.013,1.013,0,0,0,1-1V3a1.013,1.013,0,0,0-1-1Z" transform="translate(0 1)" fill="#c2c4ca"/>
    <g id="Mask_Group_31" data-name="Mask Group 31" clip-path="url(#clip-path)">
      <g id="_Tint_Backgroud" data-name="↳Tint/Backgroud">
        <rect id="Color" width="18" height="18" fill="#262628"/>
      </g>
    </g>
  </g>
</svg>
