<svg id="Done" xmlns="http://www.w3.org/2000/svg" xmlns:xlink="http://www.w3.org/1999/xlink" width="250" height="200" viewBox="0 0 250 200">
  <defs>
    <linearGradient id="linear-gradient" x1="0.859" y1="0.092" x2="0.168" y2="0.816" gradientUnits="objectBoundingBox">
      <stop offset="0" stop-color="#d9e862"/>
      <stop offset="1" stop-color="#3c6"/>
    </linearGradient>
    <linearGradient id="linear-gradient-2" x1="0.859" y1="0.092" x2="0.168" y2="0.816" gradientUnits="objectBoundingBox">
      <stop offset="0" stop-color="#d9e862" stop-opacity="0.094"/>
      <stop offset="1" stop-color="#3c6" stop-opacity="0.106"/>
    </linearGradient>
    <clipPath id="clip-path">
      <path id="Clip_2" data-name="Clip 2" d="M0,0H91.719V91.67H0Z" transform="translate(0 0.018)" opacity="0" fill="url(#linear-gradient)"/>
    </clipPath>
  </defs>
  <path id="BG" d="M202,63a7,7,0,1,1,7,7A7,7,0,0,1,202,63ZM46,70a7,7,0,1,1,0-14H7A7,7,0,1,1,7,42H47a7,7,0,0,0,0-14H22a7,7,0,0,1,0-14H62A7,7,0,1,1,62,0h57a7,7,0,0,1,0,14h64a7,7,0,1,1,0,14h22a7,7,0,1,1,0,14H186a7,7,0,1,0,0,14h6a7,7,0,0,1,0,14Z" transform="translate(17 64)" fill="url(#linear-gradient-2)"/>
  <g id="Alert_Icon" data-name="Alert Icon" transform="translate(79 49)">
    <g id="Group_3" data-name="Group 3" transform="translate(0 4)">
      <path id="Path_6" data-name="Path 6" d="M0,72,7.832,60.094l5.035-10.772,2.8-16.441.559-12.472,1.678-6.8,5.035-7.937,6.154-3.4L36.923,0h8.951l5.594,2.268,7.273,5.1,5.035,10.2V30.047l3.357,17.008,5.035,13.039L80,71.433,67.133,72H0Z" transform="translate(6 9.5)" fill="#fff"/>
      <path id="Fill_1" data-name="Fill 1" d="M46.364,91.67a10.95,10.95,0,0,1-10.214-7H7.056a6.805,6.805,0,0,1-4.962-2.1A6.807,6.807,0,0,1,0,77.609a48.621,48.621,0,0,0,5.016-4.85A44.026,44.026,0,0,0,9.7,66.172a49.743,49.743,0,0,0,4.106-8.736,64.543,64.543,0,0,0,2.757-11.354,90.6,90.6,0,0,0,1.075-14.332,21.019,21.019,0,0,1,1.612-8.082,26.5,26.5,0,0,1,4.837-7.489A26.015,26.015,0,0,1,31.542,10.4a30.157,30.157,0,0,1,9.467-2.956,5.489,5.489,0,0,1-.441-2.149,5.123,5.123,0,0,1,1.543-3.749,5.322,5.322,0,0,1,7.5,0,5.128,5.128,0,0,1,1.543,3.749,5.519,5.519,0,0,1-.441,2.149A30.161,30.161,0,0,1,60.177,10.4a26.015,26.015,0,0,1,7.455,5.781,26.506,26.506,0,0,1,4.836,7.489,21.021,21.021,0,0,1,1.612,8.082,90.5,90.5,0,0,0,1.076,14.332,64.554,64.554,0,0,0,2.756,11.354,49.624,49.624,0,0,0,4.107,8.736A43.889,43.889,0,0,0,86.7,72.759a48.363,48.363,0,0,0,5.017,4.85,7.156,7.156,0,0,1-7.056,7.056H56.578a10.949,10.949,0,0,1-10.214,7Zm-.331-81.558A27.576,27.576,0,0,0,35.6,12.025a20.73,20.73,0,0,0-7.477,4.891,23.306,23.306,0,0,0-4.246,6.259,15.568,15.568,0,0,0-1.477,6.38,109.211,109.211,0,0,1-1.023,15.282,81.062,81.062,0,0,1-3.069,13.52,64.187,64.187,0,0,1-5.115,11.758,56.638,56.638,0,0,1-7.161,10h80a56.634,56.634,0,0,1-7.162-10,64.18,64.18,0,0,1-5.115-11.758,81.061,81.061,0,0,1-3.069-13.52,109.222,109.222,0,0,1-1.023-15.282,15.568,15.568,0,0,0-1.477-6.38,23.309,23.309,0,0,0-4.247-6.259,20.733,20.733,0,0,0-7.476-4.891A27.573,27.573,0,0,0,46.032,10.112Z" transform="translate(0 0.018)" fill="url(#linear-gradient)"/>
      <path id="Clip_2-2" data-name="Clip 2" d="M0,0H91.719V91.67H0Z" transform="translate(0 0.018)" opacity="0" fill="url(#linear-gradient)"/>
    </g>
    <path id="Fill_4" data-name="Fill 4" d="M13.659.346,13.055,0,12.78.629l-.221.506A5.071,5.071,0,0,1,8,4.4,5.071,5.071,0,0,1,3.44,1.135L3.219.629,2.945,0l-.6.346L.467,1.419,0,1.687l.212.486.221.506A8.354,8.354,0,0,0,8,8a8.355,8.355,0,0,0,7.567-5.321l.221-.506L16,1.687l-.468-.268Z" transform="translate(48 43)" fill="#72dd96"/>
    <path id="Fill_6" data-name="Fill 6" d="M15.787,2.173,16,1.687l-.467-.268L13.659.346,13.055,0,12.78.629l-.221.506A5.071,5.071,0,0,1,8,4.4,5.071,5.071,0,0,1,3.441,1.135L3.219.629,2.945,0l-.6.346L.467,1.419,0,1.687l.212.487.221.506A8.354,8.354,0,0,0,8,8a8.355,8.355,0,0,0,7.566-5.321Z" transform="translate(28 43)" fill="#72dd96"/>
    <path id="Fill_8" data-name="Fill 8" d="M3,0A3,3,0,1,0,6,3,3,3,0,0,0,3,0" transform="translate(43 62)" fill="#72dd96"/>
    <path id="Fill_10" data-name="Fill 10" d="M7.851,0H.117V2.007h4.45L0,7.428V9H8V6.993H3.284l4.567-5.42Z" transform="translate(80 24)" fill="#72dd96"/>
    <path id="Fill_12" data-name="Fill 12" d="M0,16l14-.006,0-3.567-8.253,0,7.988-9.636V0L.2.006V3.573l7.788,0L0,13.206Z" transform="translate(70)" fill="#72dd96"/>
  </g>
</svg>
