<svg id="EmptyState" xmlns="http://www.w3.org/2000/svg" xmlns:xlink="http://www.w3.org/1999/xlink" width="250" height="200" viewBox="0 0 250 200">
  <defs>
    <linearGradient id="linear-gradient" x1="0.739" y1="0.225" x2="0.18" y2="0.839" gradientUnits="objectBoundingBox">
      <stop offset="0" stop-color="#b739f3"/>
      <stop offset="1" stop-color="#6950fb"/>
    </linearGradient>
    <clipPath id="clip-path">
      <path id="Shape" d="M48,64a52.2,52.2,0,0,1-29.4-8.96A50.992,50.992,0,0,1,7.561,44.92,49.286,49.286,0,0,1,0,32,49.286,49.286,0,0,1,7.561,19.08,50.991,50.991,0,0,1,18.6,8.96a52.715,52.715,0,0,1,58.8,0A50.993,50.993,0,0,1,88.439,19.08,49.294,49.294,0,0,1,96,32a49.291,49.291,0,0,1-7.562,12.92A50.993,50.993,0,0,1,77.4,55.04,52.2,52.2,0,0,1,48,64Zm0-53.333a21.126,21.126,0,1,0,15.147,6.186A21.239,21.239,0,0,0,48,10.667Zm0,32A10.476,10.476,0,1,1,55.6,39.6,10.643,10.643,0,0,1,48,42.666Z"/>
    </clipPath>
    <clipPath id="clip-path-3">
      <path id="Fill_1" data-name="Fill 1" d="M.006,113.743V103.071c0-2.869,1.742-5.562,4.693-7.281L63.753,61.465a3.071,3.071,0,0,0,0-5.591L4.7,21.542C1.748,19.829.012,17.13.012,14.267V3.6C.012.645,4.347-1.05,7.392.721L101.177,55.24c2.945,1.713,2.945,5.145,0,6.858L7.392,116.617a5.463,5.463,0,0,1-2.744.719C2.253,117.336.006,115.866.006,113.743Zm0-42.175L0,45.766c0-2.957,4.341-4.646,7.386-2.875L28.623,55.24c2.945,1.713,2.945,5.145,0,6.858L7.392,74.442a5.459,5.459,0,0,1-2.748.722C2.25,75.164.006,73.693.006,71.567Z" fill="#231f20"/>
    </clipPath>
  </defs>
  <path id="BG" d="M202,63a7,7,0,1,1,7,7A7,7,0,0,1,202,63ZM46,70a7,7,0,1,1,0-14H7A7,7,0,1,1,7,42H47a7,7,0,0,0,0-14H22a7,7,0,0,1,0-14H62A7,7,0,1,1,62,0h57a7,7,0,0,1,0,14h64a7,7,0,1,1,0,14h22a7,7,0,1,1,0,14H186a7,7,0,1,0,0,14h6a7,7,0,0,1,0,14Z" transform="translate(17 64)" fill="rgba(200,200,200,0.21)"/>
  <path id="Path" d="M0,21.333A21.126,21.126,0,0,1,21.333,0,21.126,21.126,0,0,1,42.667,21.333,21.126,21.126,0,0,1,21.333,42.667,21.126,21.126,0,0,1,0,21.333Z" transform="translate(103.667 78.667)" fill="#fff"/>
  <g id="bling" transform="translate(173 54)">
    <path id="Line" d="M.5,0V6" transform="translate(10)" fill="none" stroke="#9013fe" stroke-linecap="round" stroke-linejoin="round" stroke-miterlimit="10" stroke-width="2.5"/>
    <path id="Line-2" data-name="Line" d="M.5,0V6" transform="translate(10 14)" fill="none" stroke="#9013fe" stroke-linecap="round" stroke-linejoin="round" stroke-miterlimit="10" stroke-width="2.5"/>
    <path id="Line-3" data-name="Line" d="M.5,0V6" transform="translate(0.5 10.5) rotate(-90)" fill="none" stroke="#9013fe" stroke-linecap="round" stroke-linejoin="round" stroke-miterlimit="10" stroke-width="2.5"/>
    <path id="Line-4" data-name="Line" d="M.5,0V6" transform="translate(14.5 10.5) rotate(-90)" fill="none" stroke="#9013fe" stroke-linecap="round" stroke-linejoin="round" stroke-miterlimit="10" stroke-width="2.5"/>
  </g>
  <g id="bling-2" data-name="bling" transform="translate(57 143)">
    <path id="Line-5" data-name="Line" d="M.275,0V3.3" transform="translate(5.5)" fill="none" stroke="#9013fe" stroke-linecap="round" stroke-linejoin="round" stroke-miterlimit="10" stroke-width="2.5"/>
    <path id="Line-6" data-name="Line" d="M.275,0V3.3" transform="translate(5.5 7.7)" fill="none" stroke="#9013fe" stroke-linecap="round" stroke-linejoin="round" stroke-miterlimit="10" stroke-width="2.5"/>
    <path id="Line-7" data-name="Line" d="M.5,0V3.3" transform="translate(0.275 6) rotate(-90)" fill="none" stroke="#9013fe" stroke-linecap="round" stroke-linejoin="round" stroke-miterlimit="10" stroke-width="2.5"/>
    <path id="Line-8" data-name="Line" d="M.5,0V3.3" transform="translate(7.975 6) rotate(-90)" fill="none" stroke="#9013fe" stroke-linecap="round" stroke-linejoin="round" stroke-miterlimit="10" stroke-width="2.5"/>
  </g>
  <g id="bling-3" data-name="bling" transform="translate(161 137)">
    <path id="Line-9" data-name="Line" d="M.275,0V3.3" transform="translate(5.5)" fill="none" stroke="#9013fe" stroke-linecap="round" stroke-linejoin="round" stroke-miterlimit="10" stroke-width="2.5"/>
    <path id="Line-10" data-name="Line" d="M.275,0V3.3" transform="translate(5.5 7.7)" fill="none" stroke="#9013fe" stroke-linecap="round" stroke-linejoin="round" stroke-miterlimit="10" stroke-width="2.5"/>
    <path id="Line-11" data-name="Line" d="M.5,0V3.3" transform="translate(0.275 6) rotate(-90)" fill="none" stroke="#9013fe" stroke-linecap="round" stroke-linejoin="round" stroke-miterlimit="10" stroke-width="2.5"/>
    <path id="Line-12" data-name="Line" d="M.5,0V3.3" transform="translate(7.975 6) rotate(-90)" fill="none" stroke="#9013fe" stroke-linecap="round" stroke-linejoin="round" stroke-miterlimit="10" stroke-width="2.5"/>
  </g>
  <g id="bling-4" data-name="bling" transform="translate(69 42)">
    <path id="Line-13" data-name="Line" d="M.5,0V4" transform="translate(8)" fill="none" stroke="#9013fe" stroke-linecap="round" stroke-linejoin="round" stroke-miterlimit="10" stroke-width="2.5"/>
    <path id="Line-14" data-name="Line" d="M.5,0V4" transform="translate(8 12)" fill="none" stroke="#9013fe" stroke-linecap="round" stroke-linejoin="round" stroke-miterlimit="10" stroke-width="2.5"/>
    <path id="Line-15" data-name="Line" d="M.5,0V4" transform="translate(0.5 8.5) rotate(-90)" fill="none" stroke="#9013fe" stroke-linecap="round" stroke-linejoin="round" stroke-miterlimit="10" stroke-width="2.5"/>
    <path id="Line-16" data-name="Line" d="M.5,0V4" transform="translate(12.5 8.5) rotate(-90)" fill="none" stroke="#9013fe" stroke-linecap="round" stroke-linejoin="round" stroke-miterlimit="10" stroke-width="2.5"/>
  </g>
  <g id="add" transform="translate(77 68)">
    <g id="Icons_Views" data-name="Icons/Views">
      <path id="Shape-3" data-name="Shape" d="M48,64a52.2,52.2,0,0,1-29.4-8.96A50.992,50.992,0,0,1,7.561,44.92,49.286,49.286,0,0,1,0,32,49.286,49.286,0,0,1,7.561,19.08,50.991,50.991,0,0,1,18.6,8.96a52.715,52.715,0,0,1,58.8,0A50.993,50.993,0,0,1,88.439,19.08,49.294,49.294,0,0,1,96,32a49.291,49.291,0,0,1-7.562,12.92A50.993,50.993,0,0,1,77.4,55.04,52.2,52.2,0,0,1,48,64Zm0-53.333a21.126,21.126,0,1,0,15.147,6.186A21.239,21.239,0,0,0,48,10.667Zm0,32A10.476,10.476,0,1,1,55.6,39.6,10.643,10.643,0,0,1,48,42.666Z"/>
      <g id="Icons_Views-2" data-name="Icons/Views" clip-path="url(#clip-path)">
        <g id="_Tint_Backgroud" data-name="↳Tint/Backgroud" transform="translate(0 -16)">
          <rect id="Color" width="96" height="96" fill="#9b9b9b"/>
        </g>
      </g>
    </g>
    <path id="Shape-4" data-name="Shape" d="M48,64a52.2,52.2,0,0,1-29.4-8.96A50.992,50.992,0,0,1,7.561,44.92,49.286,49.286,0,0,1,0,32,49.286,49.286,0,0,1,7.561,19.08,50.991,50.991,0,0,1,18.6,8.96a52.715,52.715,0,0,1,58.8,0A50.993,50.993,0,0,1,88.439,19.08,49.294,49.294,0,0,1,96,32a49.291,49.291,0,0,1-7.562,12.92A50.993,50.993,0,0,1,77.4,55.04,52.2,52.2,0,0,1,48,64Zm0-53.333a21.126,21.126,0,1,0,15.147,6.186A21.239,21.239,0,0,0,48,10.667Zm0,32A10.476,10.476,0,1,1,55.6,39.6,10.643,10.643,0,0,1,48,42.666Z" fill="url(#linear-gradient)"/>
    <g id="Mask_Group_93" data-name="Mask Group 93" clip-path="url(#clip-path)">
      <path id="Rectangle_89" data-name="Rectangle 89" d="M0,0H2060.272l-28.324,309.333H28.277Z" transform="translate(-218.667 2544)" fill="#fff" stroke="#e3e3e3" stroke-miterlimit="10" stroke-width="1"/>
      <g id="Icons_Camera" data-name="Icons/Camera" transform="translate(1610.667 2640)">
        <g id="Group_58" data-name="Group 58" transform="translate(6.519 0)">
          <path id="Fill_1-2" data-name="Fill 1" d="M.006,113.743V103.071c0-2.869,1.742-5.562,4.693-7.281L63.753,61.465a3.071,3.071,0,0,0,0-5.591L4.7,21.542C1.748,19.829.012,17.13.012,14.267V3.6C.012.645,4.347-1.05,7.392.721L101.177,55.24c2.945,1.713,2.945,5.145,0,6.858L7.392,116.617a5.463,5.463,0,0,1-2.744.719C2.253,117.336.006,115.866.006,113.743Zm0-42.175L0,45.766c0-2.957,4.341-4.646,7.386-2.875L28.623,55.24c2.945,1.713,2.945,5.145,0,6.858L7.392,74.442a5.459,5.459,0,0,1-2.748.722C2.25,75.164.006,73.693.006,71.567Z" fill="#231f20"/>
          <g id="Mask_Group_58" data-name="Mask Group 58" clip-path="url(#clip-path-3)">
            <g id="_Tint_Backgroud-2" data-name="↳Tint/Backgroud" transform="translate(-6.519 0)">
              <rect id="Color-2" data-name="Color" width="117.333" height="117.333" fill="#262628"/>
            </g>
          </g>
        </g>
      </g>
      <text id="Type_a_comment_here" data-name="Type a comment here" transform="translate(-74.667 2679)" fill="#c2c4ca" font-size="16" font-family="Helvetica"><tspan x="0" y="12">Type a comment here ...</tspan></text>
    </g>
  </g>
</svg>
