<svg xmlns="http://www.w3.org/2000/svg" xmlns:xlink="http://www.w3.org/1999/xlink" width="28.001" height="27.979" viewBox="0 0 28.001 27.979">
  <defs>
    <clipPath id="clip-path">
      <path id="spot" d="M13.9,27.979c-4.58,0-8.071-1.169-10.378-3.473S.033,18.7,0,14.089C-.031,9.447,1.123,5.909,3.428,3.572S9.258.034,13.9,0h.191c4.581,0,8.074,1.169,10.381,3.473S27.968,9.284,28,13.893c.033,4.641-1.12,8.179-3.426,10.515s-5.831,3.538-10.476,3.57ZM14,2.368c-3.881,0-6.832.983-8.773,2.922s-2.924,4.888-2.924,8.766.984,6.827,2.924,8.766S10.121,25.745,14,25.745s6.832-.983,8.772-2.922S25.7,17.935,25.7,14.057s-.984-6.828-2.924-8.766S17.883,2.368,14,2.368Zm-.058,20.775c-3,0-5.285-.765-6.795-2.272s-2.286-3.8-2.308-6.817c-.02-3.036.735-5.35,2.243-6.879S10.9,4.861,13.938,4.839h.129c3,0,5.28.764,6.788,2.272s2.284,3.8,2.305,6.817c.022,3.036-.733,5.35-2.241,6.879s-3.814,2.315-6.853,2.336ZM14,7.253a6.945,6.945,0,0,0-5.09,1.7,6.936,6.936,0,0,0-1.7,5.086,6.934,6.934,0,0,0,1.7,5.085,6.946,6.946,0,0,0,5.09,1.7,6.943,6.943,0,0,0,5.088-1.7,6.934,6.934,0,0,0,1.7-5.085,6.936,6.936,0,0,0-1.7-5.086A6.942,6.942,0,0,0,14,7.253Zm-.028,11.2c-2.925,0-4.419-1.491-4.44-4.433a4.563,4.563,0,0,1,1.093-3.355A4.573,4.573,0,0,1,13.97,9.528h.062c2.922,0,4.414,1.491,4.434,4.433a4.564,4.564,0,0,1-1.093,3.355,4.57,4.57,0,0,1-3.341,1.139Z" fill="#fff"/>
    </clipPath>
  </defs>
  <g id="Group_35" data-name="Group 35" transform="translate(0)">
    <path id="spot-2" data-name="spot" d="M13.9,27.979c-4.58,0-8.071-1.169-10.378-3.473S.033,18.7,0,14.089C-.031,9.447,1.123,5.909,3.428,3.572S9.258.034,13.9,0h.191c4.581,0,8.074,1.169,10.381,3.473S27.968,9.284,28,13.893c.033,4.641-1.12,8.179-3.426,10.515s-5.831,3.538-10.476,3.57ZM14,2.368c-3.881,0-6.832.983-8.773,2.922s-2.924,4.888-2.924,8.766.984,6.827,2.924,8.766S10.121,25.745,14,25.745s6.832-.983,8.772-2.922S25.7,17.935,25.7,14.057s-.984-6.828-2.924-8.766S17.883,2.368,14,2.368Zm-.058,20.775c-3,0-5.285-.765-6.795-2.272s-2.286-3.8-2.308-6.817c-.02-3.036.735-5.35,2.243-6.879S10.9,4.861,13.938,4.839h.129c3,0,5.28.764,6.788,2.272s2.284,3.8,2.305,6.817c.022,3.036-.733,5.35-2.241,6.879s-3.814,2.315-6.853,2.336ZM14,7.253a6.945,6.945,0,0,0-5.09,1.7,6.936,6.936,0,0,0-1.7,5.086,6.934,6.934,0,0,0,1.7,5.085,6.946,6.946,0,0,0,5.09,1.7,6.943,6.943,0,0,0,5.088-1.7,6.934,6.934,0,0,0,1.7-5.085,6.936,6.936,0,0,0-1.7-5.086A6.942,6.942,0,0,0,14,7.253Zm-.028,11.2c-2.925,0-4.419-1.491-4.44-4.433a4.563,4.563,0,0,1,1.093-3.355A4.573,4.573,0,0,1,13.97,9.528h.062c2.922,0,4.414,1.491,4.434,4.433a4.564,4.564,0,0,1-1.093,3.355,4.57,4.57,0,0,1-3.341,1.139Z" fill="#fff"/>
    <g id="Mask_Group_35" data-name="Mask Group 35" clip-path="url(#clip-path)">
      <g id="_Tint_Backgroud" data-name="↳Tint/Backgroud" transform="translate(0.001 0.001)">
        <rect id="Color" width="28" height="28" fill="#d0d0d0"/>
      </g>
    </g>
  </g>
</svg>
