<svg xmlns="http://www.w3.org/2000/svg" xmlns:xlink="http://www.w3.org/1999/xlink" width="20" height="13.001" viewBox="0 0 20 13.001">
  <defs>
    <clipPath id="clip-path">
      <path id="Back_icon_2" data-name="Back icon 2" d="M.623,13H19.377a.623.623,0,0,0,.487-1.011L10.487.234a.622.622,0,0,0-.973,0L.136,11.99A.623.623,0,0,0,.623,13Z" transform="translate(0 0)" fill="none"/>
    </clipPath>
    <linearGradient id="linear-gradient" x1="0.859" y1="0.092" x2="0.168" y2="0.816" gradientUnits="objectBoundingBox">
      <stop offset="0" stop-color="#d9e862"/>
      <stop offset="1" stop-color="#3c6"/>
    </linearGradient>
  </defs>
  <g id="Group_52" data-name="Group 52" transform="translate(0)">
    <path id="Back_icon_2-2" data-name="Back icon 2" d="M.623,13H19.377a.623.623,0,0,0,.487-1.011L10.487.234a.622.622,0,0,0-.973,0L.136,11.99A.623.623,0,0,0,.623,13Z" transform="translate(0 0)" fill="none"/>
    <g id="Mask_Group_52" data-name="Mask Group 52" clip-path="url(#clip-path)">
      <g id="_Tint_Backgroud" data-name="↳Tint/Backgroud" transform="translate(0 -3.333)">
        <rect id="Color" width="20" height="20" fill="url(#linear-gradient)"/>
      </g>
    </g>
  </g>
</svg>
