<?xml version="1.0" encoding="UTF-8"?>
<svg width="201px" height="103px" viewBox="0 0 201 103" version="1.1" xmlns="http://www.w3.org/2000/svg" xmlns:xlink="http://www.w3.org/1999/xlink">
    <!-- Generator: Sketch 54.1 (76490) - https://sketchapp.com -->
    <title>EmptyState</title>
    <desc>Created with Sketch.</desc>
    <defs>
        <path d="M44.352,0 C24.192,0 6.8544,11.7056 0,28.32 C6.8544,44.9344 24.192,56.64 44.352,56.64 C64.512,56.64 81.8496,44.9344 88.704,28.32 C81.8496,11.7056 64.512,0 44.352,0 L44.352,0 Z M44.352,47.2 C33.31328,47.2 24.64,38.8928 24.64,28.32 C24.64,17.7472 33.31328,9.44 44.352,9.44 C55.39072,9.44 64.064,17.7472 64.064,28.32 C64.064,38.8928 55.39072,47.2 44.352,47.2 L44.352,47.2 Z M44.352,18.88 C38.7669333,18.88 34.496,22.9706667 34.496,28.32 C34.496,33.6693333 38.7669333,37.76 44.352,37.76 C49.9370667,37.76 54.208,33.6693333 54.208,28.32 C54.208,22.9706667 49.9370667,18.88 44.352,18.88 L44.352,18.88 Z" id="path-1"></path>
        <linearGradient x1="73.8743686%" y1="38.7750269%" x2="18.0315568%" y2="63.8082958%" id="linearGradient-3">
            <stop stop-color="#B739F3" offset="0%"></stop>
            <stop stop-color="#6950FB" offset="100%"></stop>
        </linearGradient>
        <path d="M0,28.32 C6.8544,44.9344 24.192,56.64 44.352,56.64 C64.512,56.64 81.8496,44.9344 88.704,28.32 C81.8496,11.7056 64.512,0 44.352,0 C24.192,0 6.8544,11.7056 0,28.32 Z M24.64,28.32 C24.64,17.7472 33.31328,9.44 44.352,9.44 C55.39072,9.44 64.064,17.7472 64.064,28.32 C64.064,38.8928 55.39072,47.2 44.352,47.2 C33.31328,47.2 24.64,38.8928 24.64,28.32 Z M44.352,18.88 C38.7669333,18.88 34.496,22.9706667 34.496,28.32 C34.496,33.6693333 38.7669333,37.76 44.352,37.76 C49.9370667,37.76 54.208,33.6693333 54.208,28.32 C54.208,22.9706667 49.9370667,18.88 44.352,18.88 L44.352,18.88 Z" id="path-4"></path>
        <path d="M6.01132925,3.18506126 C6.01132925,0.57094617 10.0030001,-0.932523263 12.8051002,0.641597929 L99.1263984,48.961749 C101.837864,50.4793488 101.837864,53.5258526 99.1263984,55.0434524 L12.8013237,103.363603 C10.0030001,104.929246 6.00755283,103.434255 6.00755283,100.817314 L6.00755283,91.3584566 C6.00755283,88.8178193 7.60875287,86.4269638 10.3277718,84.9037119 L64.6817155,54.4810644 C66.8909184,53.2432456 66.8909184,50.7591297 64.6817155,49.524137 L10.3277718,19.0930113 C7.60875287,17.5754115 6.01132925,15.184556 6.01132925,12.6467448 L6.01132925,3.18506126 Z M12.7975473,38.0163785 L32.3480487,48.961749 C35.0595148,50.4793488 35.0595148,53.5258526 32.3480487,55.0434524 L12.8013237,65.9831708 C9.99922368,67.5516398 6.00755283,66.0538225 6.00755283,63.4340553 L6,40.5654939 C6,37.9429006 9.99544726,36.4479094 12.7975473,38.0163785 Z" id="path-6"></path>
    </defs>
    <g id="OK____-Walkthrough" stroke="none" stroke-width="1" fill="none" fill-rule="evenodd">
        <g id="OK_POPUP_SPOTTED_3" transform="translate(-93.000000, -301.000000)">
            <g id="Card---Inbox" transform="translate(9.000000, 233.000000)">
                <g id="Eye3" transform="translate(69.000000, 33.000000)">
                    <path d="M58.212,118.59 C54.6398222,118.59 51.744,115.816404 51.744,112.395 C51.744,108.973596 54.6398222,106.2 58.212,106.2 L22.176,106.2 C18.6038222,106.2 15.708,103.426404 15.708,100.005 C15.708,96.583596 18.6038222,93.81 22.176,93.81 L59.136,93.81 C62.7081778,93.81 65.604,91.036404 65.604,87.615 C65.604,84.193596 62.7081778,81.42 59.136,81.42 L36.036,81.42 C32.4638222,81.42 29.568,78.646404 29.568,75.225 C29.568,71.803596 32.4638222,69.03 36.036,69.03 L72.996,69.03 C69.4238222,69.03 66.528,66.256404 66.528,62.835 C66.528,59.413596 69.4238222,56.64 72.996,56.64 L125.664,56.64 C129.236178,56.64 132.132,59.413596 132.132,62.835 C132.132,66.256404 129.236178,69.03 125.664,69.03 L184.8,69.03 C188.372178,69.03 191.268,71.803596 191.268,75.225 C191.268,78.646404 188.372178,81.42 184.8,81.42 L205.128,81.42 C208.700178,81.42 211.596,84.193596 211.596,87.615 C211.596,91.036404 208.700178,93.81 205.128,93.81 L187.572,93.81 C183.999822,93.81 181.104,96.583596 181.104,100.005 C181.104,103.426404 183.999822,106.2 187.572,106.2 L193.116,106.2 C196.688178,106.2 199.584,108.973596 199.584,112.395 C199.584,115.816404 196.688178,118.59 193.116,118.59 L58.212,118.59 Z M208.824,118.59 C205.251822,118.59 202.356,115.816404 202.356,112.395 C202.356,108.973596 205.251822,106.2 208.824,106.2 C212.396178,106.2 215.292,108.973596 215.292,112.395 C215.292,115.816404 212.396178,118.59 208.824,118.59 Z" id="BG" fill-opacity="0.209817526" fill="#C8C8C8"></path>
                    <path d="M95.788,88.5 C95.788,77.9272 104.46128,69.62 115.5,69.62 C126.53872,69.62 135.212,77.9272 135.212,88.5 C135.212,99.0728 126.53872,107.38 115.5,107.38 C104.46128,107.38 95.788,99.0728 95.788,88.5 Z" id="Path" fill="#FFFFFF"></path>
                    <g id="bling" stroke-width="1" transform="translate(159.852000, 47.790000)" stroke="#9013FE" stroke-linecap="round" stroke-linejoin="round">
                        <path d="M9.702,0 L9.702,5.31" id="Line" stroke-width="2.5"></path>
                        <path d="M9.702,12.39 L9.702,17.7" id="Line" stroke-width="2.5"></path>
                        <path d="M3.234,6.078 L3.234,11.622" id="Line" stroke-width="2.5" transform="translate(3.234000, 8.850000) rotate(-90.000000) translate(-3.234000, -8.850000) "></path>
                        <path d="M16.17,6.078 L16.17,11.622" id="Line" stroke-width="2.5" transform="translate(16.170000, 8.850000) rotate(-90.000000) translate(-16.170000, -8.850000) "></path>
                    </g>
                    <g id="bling" stroke-width="1" transform="translate(52.668000, 126.555000)" stroke="#9013FE" stroke-linecap="round" stroke-linejoin="round">
                        <path d="M5.3361,0 L5.3361,2.9205" id="Line" stroke-width="2.5"></path>
                        <path d="M5.3361,6.8145 L5.3361,9.735" id="Line" stroke-width="2.5"></path>
                        <path d="M1.7787,3.3429 L1.7787,6.3921" id="Line" stroke-width="2.5" transform="translate(1.778700, 4.867500) rotate(-90.000000) translate(-1.778700, -4.867500) "></path>
                        <path d="M8.8935,3.3429 L8.8935,6.3921" id="Line" stroke-width="2.5" transform="translate(8.893500, 4.867500) rotate(-90.000000) translate(-8.893500, -4.867500) "></path>
                    </g>
                    <g id="bling" stroke-width="1" transform="translate(148.764000, 121.245000)" stroke="#9013FE" stroke-linecap="round" stroke-linejoin="round">
                        <path d="M5.3361,0 L5.3361,2.9205" id="Line" stroke-width="2.5"></path>
                        <path d="M5.3361,6.8145 L5.3361,9.735" id="Line" stroke-width="2.5"></path>
                        <path d="M1.7787,3.3429 L1.7787,6.3921" id="Line" stroke-width="2.5" transform="translate(1.778700, 4.867500) rotate(-90.000000) translate(-1.778700, -4.867500) "></path>
                        <path d="M8.8935,3.3429 L8.8935,6.3921" id="Line" stroke-width="2.5" transform="translate(8.893500, 4.867500) rotate(-90.000000) translate(-8.893500, -4.867500) "></path>
                    </g>
                    <g id="bling" stroke-width="1" transform="translate(63.756000, 37.170000)" stroke="#9013FE" stroke-linecap="round" stroke-linejoin="round">
                        <path d="M7.854,0 L7.854,3.54" id="Line" stroke-width="2.5"></path>
                        <path d="M7.854,10.62 L7.854,14.16" id="Line" stroke-width="2.5"></path>
                        <path d="M2.31,5.232 L2.31,8.928" id="Line" stroke-width="2.5" transform="translate(2.310000, 7.080000) rotate(-90.000000) translate(-2.310000, -7.080000) "></path>
                        <path d="M13.398,5.232 L13.398,8.928" id="Line" stroke-width="2.5" transform="translate(13.398000, 7.080000) rotate(-90.000000) translate(-13.398000, -7.080000) "></path>
                    </g>
                    <g id="add" stroke-width="1" transform="translate(71.148000, 60.180000)">
                        <g id="Icons/Views">
                            <mask id="mask-2" fill="white">
                                <use xlink:href="#path-1"></use>
                            </mask>
                            <use id="Shape" fill="#000000" xlink:href="#path-1"></use>
                            <g id="↳Tint/Dark-Gray" mask="url(#mask-2)" fill="#9B9B9B">
                                <g transform="translate(0.000000, -14.160000)" id="Color">
                                    <rect x="0" y="0" width="89" height="85"></rect>
                                </g>
                            </g>
                        </g>
                        <mask id="mask-5" fill="white">
                            <use xlink:href="#path-4"></use>
                        </mask>
                        <use id="Shape" fill="url(#linearGradient-3)" xlink:href="#path-4"></use>
                        <polygon id="Rectangle-89" stroke="#E3E3E3" fill="#FFFFFF" mask="url(#mask-5)" points="-202.048 2251.44 1701.64312 2251.44 1675.47205 2525.2 -175.919704 2525.2"></polygon>
                        <g id="Icons/Play" mask="url(#mask-5)">
                            <g transform="translate(1488.256000, 2336.400000)">
                                <mask id="mask-7" fill="white">
                                    <use xlink:href="#path-6"></use>
                                </mask>
                                <use id="Fill-1" stroke="none" fill="#231F20" fill-rule="evenodd" xlink:href="#path-6"></use>
                                <g id="↳Tint/Backgroud" stroke="none" fill="none" mask="url(#mask-7)" fill-rule="evenodd">
                                    <rect id="Color" fill="#262628" x="0" y="0" width="108" height="104"></rect>
                                </g>
                            </g>
                        </g>
                        <text id="Type-a-comment-here" mask="url(#mask-5)" font-family="SFUIDisplay-Light, SF UI Display" font-size="16" font-weight="300" line-spacing="18" fill="#C2C4CA">
                            <tspan x="-68.992" y="2384.88">Type a comment here ...</tspan>
                        </text>
                    </g>
                </g>
            </g>
        </g>
    </g>
</svg>